{"glyphs":{"0":{"ha":768,"x_min":92,"x_max":675,"o":"m 496 730 q 513 713 513 730 l 513 148 q 496 132 513 132 l 271 132 q 255 148 255 132 l 255 713 q 271 730 255 730 l 496 730 m 92 178 q 285 -12 92 -4 q 304 -12 294 -12 l 464 -12 q 675 178 670 -3 l 675 685 q 464 873 673 872 l 304 873 q 92 685 94 871 l 92 178 z "},"1":{"ha":601,"x_min":26,"x_max":568,"o":"m 568 129 l 426 129 l 426 861 l 278 861 l 26 701 l 91 591 l 267 696 l 267 129 l 77 129 l 77 0 l 568 0 l 568 129 z "},"2":{"ha":643,"x_min":57,"x_max":597,"o":"m 57 255 l 57 0 l 591 0 l 591 138 l 217 138 l 217 254 q 236 296 217 283 q 241 298 240 297 l 472 416 q 583 509 560 463 q 597 578 597 538 l 597 677 q 422 867 597 861 q 399 867 410 867 l 77 861 l 77 723 l 419 723 q 437 705 435 720 l 437 574 q 418 549 435 559 l 176 425 q 84 359 103 387 q 57 255 57 323 z "},"3":{"ha":640,"x_min":34,"x_max":560,"o":"m 560 194 l 560 290 q 472 442 559 403 q 553 585 552 487 l 553 669 q 406 861 553 833 q 332 867 372 868 l 38 861 l 38 723 l 373 723 q 391 705 389 720 l 391 528 q 373 510 388 511 l 117 510 l 117 373 l 380 373 q 397 355 396 370 l 397 157 q 380 138 395 140 l 34 138 l 34 0 l 338 -5 q 548 114 505 -9 q 560 194 560 151 z "},"4":{"ha":751,"x_min":19,"x_max":713,"o":"m 586 0 l 586 189 l 713 189 l 713 324 l 586 324 l 586 861 l 433 867 q 307 822 347 869 q 255 738 289 802 l 19 302 l 19 189 l 426 189 l 426 0 l 586 0 m 384 711 q 406 724 395 724 l 426 724 l 426 324 l 175 324 l 384 711 z "},"5":{"ha":650,"x_min":58,"x_max":585,"o":"m 224 540 l 224 723 l 549 723 l 549 861 l 65 861 l 65 403 l 404 403 q 422 384 420 400 l 422 157 q 404 138 419 140 l 58 138 l 58 0 l 363 -5 q 578 133 547 -11 q 585 193 585 161 l 585 342 q 438 532 585 498 q 362 540 403 540 l 224 540 z "},"6":{"ha":701,"x_min":90,"x_max":650,"o":"m 429 -5 q 650 176 640 -5 q 650 193 650 184 l 650 347 q 540 529 650 495 q 441 541 498 541 l 252 541 l 252 704 q 270 723 255 722 l 602 723 l 602 861 l 312 867 q 102 747 145 871 q 90 667 90 711 l 90 190 q 311 -5 92 -4 l 429 -5 m 270 138 q 252 157 254 141 l 252 407 l 469 407 q 487 388 486 404 l 487 157 q 469 138 484 140 l 270 138 z "},"7":{"ha":581,"x_min":22,"x_max":557,"o":"m 258 -4 l 557 726 q 431 863 549 859 l 22 863 l 22 732 l 366 734 q 377 711 385 731 l 84 -4 l 258 -4 z "},"8":{"ha":753,"x_min":80,"x_max":673,"o":"m 450 -5 q 669 144 640 -5 q 673 194 673 168 l 673 290 q 585 442 671 404 q 666 585 665 486 l 666 669 q 477 865 666 852 q 446 867 461 867 l 308 867 q 87 685 96 867 q 87 669 87 677 l 87 585 q 168 442 88 486 q 80 290 81 401 l 80 194 q 231 1 80 34 q 302 -5 264 -5 l 450 -5 m 243 157 l 243 357 q 260 374 245 373 l 492 374 q 511 357 510 372 l 511 157 q 492 138 509 140 l 260 138 q 243 157 244 141 m 250 526 l 250 705 q 267 723 252 722 l 486 723 q 505 705 503 720 l 505 526 q 486 509 502 510 l 267 509 q 250 526 251 511 z "},"9":{"ha":701,"x_min":52,"x_max":612,"o":"m 612 194 l 612 671 q 391 867 609 865 l 273 867 q 52 685 61 867 q 52 669 52 677 l 52 506 q 161 324 52 358 q 260 312 203 312 l 449 312 l 449 157 q 431 138 446 140 l 88 138 l 88 0 l 389 -5 q 600 114 556 -9 q 612 194 612 151 m 232 448 q 214 465 216 450 l 214 704 q 232 723 217 722 l 431 723 q 449 704 448 720 l 449 448 l 232 448 z "},"A":{"ha":741,"x_min":12,"x_max":730,"o":"m 730 0 l 536 861 l 376 867 q 245 826 281 869 q 202 719 221 795 l 12 0 l 161 0 l 213 208 l 526 208 l 571 0 l 730 0 m 338 708 q 354 724 345 723 l 414 724 l 498 345 l 247 345 l 338 708 z "},"Æ":{"ha":1084,"x_min":4,"x_max":1039,"o":"m 159 0 l 254 231 l 533 231 l 533 0 l 1039 0 l 1039 138 l 693 138 l 693 365 l 1006 365 l 1006 502 l 693 502 l 693 723 l 1032 723 l 1032 861 l 484 863 q 362 825 396 863 q 308 719 342 800 l 4 0 l 159 0 m 452 708 q 468 723 460 723 l 533 723 l 533 368 l 309 368 l 452 708 z "},"Á":{"ha":741,"x_min":12,"x_max":730,"o":"m 730 0 l 536 861 l 376 867 q 245 826 281 869 q 202 719 221 795 l 12 0 l 161 0 l 213 208 l 526 208 l 571 0 l 730 0 m 338 708 q 354 724 345 723 l 414 724 l 498 345 l 247 345 l 338 708 m 327 928 l 412 1137 l 567 1135 l 438 928 l 327 928 z "},"Ă":{"ha":741,"x_min":12,"x_max":730,"o":"m 730 0 l 536 861 l 376 867 q 245 826 281 869 q 202 719 221 795 l 12 0 l 161 0 l 213 208 l 526 208 l 571 0 l 730 0 m 338 708 q 354 724 345 723 l 414 724 l 498 345 l 247 345 l 338 708 m 222 1115 q 279 959 222 996 q 406 932 321 932 q 564 1004 530 932 q 582 1115 582 1044 l 486 1115 q 450 1032 486 1048 q 406 1025 431 1025 q 324 1074 335 1025 q 320 1115 320 1090 l 222 1115 z "},"Â":{"ha":741,"x_min":12,"x_max":730,"o":"m 730 0 l 536 861 l 376 867 q 245 826 281 869 q 202 719 221 795 l 12 0 l 161 0 l 213 208 l 526 208 l 571 0 l 730 0 m 338 708 q 354 724 345 723 l 414 724 l 498 345 l 247 345 l 338 708 m 465 1130 l 309 1130 l 176 928 l 300 928 l 387 1059 l 463 928 l 591 928 l 465 1130 z "},"Ä":{"ha":741,"x_min":12,"x_max":730,"o":"m 730 0 l 536 861 l 376 867 q 245 826 281 869 q 202 719 221 795 l 12 0 l 161 0 l 213 208 l 526 208 l 571 0 l 730 0 m 338 708 q 354 724 345 723 l 414 724 l 498 345 l 247 345 l 338 708 m 332 954 l 332 1095 l 201 1095 l 201 954 l 332 954 m 581 954 l 581 1095 l 449 1095 l 449 954 l 581 954 z "},"À":{"ha":741,"x_min":12,"x_max":730,"o":"m 730 0 l 536 861 l 376 867 q 245 826 281 869 q 202 719 221 795 l 12 0 l 161 0 l 213 208 l 526 208 l 571 0 l 730 0 m 338 708 q 354 724 345 723 l 414 724 l 498 345 l 247 345 l 338 708 m 210 1135 l 363 1137 l 452 928 l 346 928 l 210 1135 z "},"Ā":{"ha":741,"x_min":12,"x_max":730,"o":"m 730 0 l 536 861 l 376 867 q 245 826 281 869 q 202 719 221 795 l 12 0 l 161 0 l 213 208 l 526 208 l 571 0 l 730 0 m 338 708 q 354 724 345 723 l 414 724 l 498 345 l 247 345 l 338 708 m 570 1067 l 203 1067 l 203 958 l 570 958 l 570 1067 z "},"Ą":{"ha":741,"x_min":12,"x_max":753,"o":"m 730 0 l 536 861 l 376 867 q 245 826 281 869 q 202 719 221 795 l 12 0 l 161 0 l 213 208 l 526 208 l 571 0 l 627 0 l 551 -69 q 515 -159 515 -102 l 515 -191 q 597 -286 515 -273 q 652 -290 621 -290 l 753 -290 l 753 -189 l 643 -189 q 633 -179 635 -186 l 633 -127 q 644 -104 635 -115 l 730 0 m 338 708 q 354 724 345 723 l 414 724 l 498 345 l 247 345 l 338 708 z "},"Å":{"ha":741,"x_min":12,"x_max":730,"o":"m 730 0 l 536 861 l 376 867 q 245 826 281 869 q 202 719 221 795 l 12 0 l 161 0 l 213 208 l 526 208 l 571 0 l 730 0 m 338 708 q 354 724 345 723 l 414 724 l 498 345 l 247 345 l 338 708 m 532 1038 q 476 1161 532 1135 q 391 1175 444 1175 q 264 1118 289 1175 q 252 1038 252 1088 q 309 916 252 940 q 391 902 340 902 q 522 967 498 902 q 532 1038 532 996 m 330 1038 q 351 1100 330 1089 q 391 1105 365 1105 q 449 1080 439 1105 q 454 1038 454 1065 q 426 974 454 985 q 391 970 411 970 q 334 1001 342 970 q 330 1038 330 1016 z "},"Ã":{"ha":741,"x_min":12,"x_max":730,"o":"m 730 0 l 536 861 l 376 867 q 245 826 281 869 q 202 719 221 795 l 12 0 l 161 0 l 213 208 l 526 208 l 571 0 l 730 0 m 338 708 q 354 724 345 723 l 414 724 l 498 345 l 247 345 l 338 708 m 274 952 q 307 1006 275 1005 q 389 977 323 1006 q 479 954 444 954 q 583 1112 582 956 l 488 1112 q 461 1061 488 1065 q 452 1059 456 1059 q 365 1088 431 1059 q 277 1111 312 1111 q 189 1038 206 1111 q 180 954 180 1004 l 274 952 z "},"B":{"ha":765,"x_min":92,"x_max":692,"o":"m 692 194 l 692 286 q 600 439 690 401 q 671 579 670 481 l 671 669 q 515 863 671 837 q 452 867 486 867 l 92 861 l 92 0 l 469 -5 q 684 125 646 -8 q 692 194 692 157 m 511 373 q 530 354 529 370 l 530 149 q 511 132 528 133 l 251 132 l 251 373 l 511 373 m 491 731 q 510 713 509 728 l 510 521 q 491 503 507 505 l 251 503 l 251 731 l 491 731 z "},"C":{"ha":597,"x_min":77,"x_max":575,"o":"m 575 144 l 255 144 q 239 160 240 146 l 239 701 q 255 718 241 716 l 575 718 l 575 861 l 289 861 q 79 697 91 861 q 77 673 77 685 l 77 189 q 289 0 80 1 l 575 0 l 575 144 z "},"Ć":{"ha":597,"x_min":77,"x_max":575,"o":"m 575 144 l 255 144 q 239 160 240 146 l 239 701 q 255 718 241 716 l 575 718 l 575 861 l 289 861 q 79 697 91 861 q 77 673 77 685 l 77 189 q 289 0 80 1 l 575 0 l 575 144 m 288 928 l 373 1137 l 528 1135 l 399 928 l 288 928 z "},"Č":{"ha":597,"x_min":77,"x_max":575,"o":"m 575 144 l 255 144 q 239 160 240 146 l 239 701 q 255 718 241 716 l 575 718 l 575 861 l 289 861 q 79 697 91 861 q 77 673 77 685 l 77 189 q 289 0 80 1 l 575 0 l 575 144 m 285 935 l 441 935 l 574 1137 l 450 1137 l 363 1005 l 288 1137 l 159 1137 l 285 935 z "},"Ç":{"ha":597,"x_min":77,"x_max":575,"o":"m 575 144 l 255 144 q 239 160 240 146 l 239 701 q 255 718 241 716 l 575 718 l 575 861 l 289 861 q 79 697 91 861 q 77 673 77 685 l 77 189 q 289 0 80 1 l 296 0 l 267 -134 l 378 -134 q 388 -144 387 -137 l 388 -195 q 378 -205 385 -203 l 252 -205 l 252 -290 l 361 -290 q 481 -182 480 -288 l 481 -145 q 397 -60 481 -68 q 373 -58 385 -58 l 359 -58 l 370 0 l 575 0 l 575 144 z "},"D":{"ha":770,"x_min":92,"x_max":692,"o":"m 511 730 q 530 711 529 727 l 530 151 q 511 132 528 133 l 251 132 l 251 730 l 511 730 m 92 0 l 469 -7 q 690 159 673 -11 q 692 193 692 175 l 692 669 q 536 864 692 842 q 472 868 506 868 l 92 861 l 92 0 z "},"Ď":{"ha":770,"x_min":92,"x_max":692,"o":"m 511 730 q 530 711 529 727 l 530 151 q 511 132 528 133 l 251 132 l 251 730 l 511 730 m 92 0 l 469 -7 q 690 159 673 -11 q 692 193 692 175 l 692 669 q 536 864 692 842 q 472 868 506 868 l 92 861 l 92 0 m 305 935 l 461 935 l 594 1137 l 471 1137 l 384 1005 l 308 1137 l 179 1137 l 305 935 z "},"Đ":{"ha":770,"x_min":24,"x_max":692,"o":"m 511 730 q 530 711 529 727 l 530 151 q 511 132 528 133 l 251 132 l 251 373 l 388 373 l 388 498 l 251 498 l 251 730 l 511 730 m 92 0 l 469 -7 q 690 159 673 -11 q 692 193 692 175 l 692 669 q 536 864 692 842 q 472 868 506 868 l 92 861 l 92 498 l 24 498 l 24 373 l 92 373 l 92 0 z "},"E":{"ha":642,"x_min":92,"x_max":600,"o":"m 600 0 l 600 138 l 251 138 l 251 369 l 567 369 l 567 506 l 251 506 l 251 723 l 593 723 l 593 861 l 92 861 l 92 0 l 600 0 z "},"É":{"ha":642,"x_min":92,"x_max":600,"o":"m 600 0 l 600 138 l 251 138 l 251 369 l 567 369 l 567 506 l 251 506 l 251 723 l 593 723 l 593 861 l 92 861 l 92 0 l 600 0 m 285 928 l 370 1137 l 525 1135 l 396 928 l 285 928 z "},"Ě":{"ha":642,"x_min":92,"x_max":600,"o":"m 600 0 l 600 138 l 251 138 l 251 369 l 567 369 l 567 506 l 251 506 l 251 723 l 593 723 l 593 861 l 92 861 l 92 0 l 600 0 m 273 935 l 429 935 l 562 1137 l 438 1137 l 351 1005 l 275 1137 l 146 1137 l 273 935 z "},"Ê":{"ha":642,"x_min":92,"x_max":600,"o":"m 600 0 l 600 138 l 251 138 l 251 369 l 567 369 l 567 506 l 251 506 l 251 723 l 593 723 l 593 861 l 92 861 l 92 0 l 600 0 m 423 1130 l 267 1130 l 134 928 l 258 928 l 345 1059 l 420 928 l 549 928 l 423 1130 z "},"Ë":{"ha":642,"x_min":92,"x_max":600,"o":"m 600 0 l 600 138 l 251 138 l 251 369 l 567 369 l 567 506 l 251 506 l 251 723 l 593 723 l 593 861 l 92 861 l 92 0 l 600 0 m 289 954 l 289 1095 l 157 1095 l 157 954 l 289 954 m 537 954 l 537 1095 l 406 1095 l 406 954 l 537 954 z "},"Ė":{"ha":642,"x_min":92,"x_max":600,"o":"m 600 0 l 600 138 l 251 138 l 251 369 l 567 369 l 567 506 l 251 506 l 251 723 l 593 723 l 593 861 l 92 861 l 92 0 l 600 0 m 411 948 l 411 1103 l 274 1103 l 274 948 l 411 948 z "},"È":{"ha":642,"x_min":92,"x_max":600,"o":"m 600 0 l 600 138 l 251 138 l 251 369 l 567 369 l 567 506 l 251 506 l 251 723 l 593 723 l 593 861 l 92 861 l 92 0 l 600 0 m 167 1135 l 320 1137 l 408 928 l 302 928 l 167 1135 z "},"Ē":{"ha":642,"x_min":92,"x_max":600,"o":"m 600 0 l 600 138 l 251 138 l 251 369 l 567 369 l 567 506 l 251 506 l 251 723 l 593 723 l 593 861 l 92 861 l 92 0 l 600 0 m 526 1067 l 160 1067 l 160 958 l 526 958 l 526 1067 z "},"Ę":{"ha":642,"x_min":92,"x_max":623,"o":"m 600 0 l 600 138 l 251 138 l 251 369 l 567 369 l 567 506 l 251 506 l 251 723 l 593 723 l 593 861 l 92 861 l 92 0 l 496 0 l 420 -69 q 385 -159 385 -102 l 385 -191 q 467 -286 385 -273 q 522 -290 491 -290 l 623 -290 l 623 -189 l 513 -189 q 503 -179 505 -186 l 503 -127 q 514 -104 505 -115 l 600 0 z "},"Ð":{"ha":770,"x_min":24,"x_max":692,"o":"m 511 730 q 530 711 529 727 l 530 151 q 511 132 528 133 l 251 132 l 251 373 l 388 373 l 388 498 l 251 498 l 251 730 l 511 730 m 92 0 l 469 -7 q 690 159 673 -11 q 692 193 692 175 l 692 669 q 536 864 692 842 q 472 868 506 868 l 92 861 l 92 498 l 24 498 l 24 373 l 92 373 l 92 0 z "},"€":{"ha":642,"x_min":46,"x_max":604,"o":"m 604 671 l 604 814 l 331 814 q 121 650 133 814 q 119 625 119 637 l 119 534 l 46 534 l 46 445 l 119 445 l 119 378 l 46 378 l 46 288 l 119 288 l 119 189 q 331 0 122 1 l 604 0 l 604 142 l 297 142 q 281 159 282 145 l 281 288 l 463 288 l 463 378 l 281 378 l 281 445 l 463 445 l 463 534 l 281 534 l 281 655 q 297 671 283 670 l 604 671 z "},"F":{"ha":595,"x_min":92,"x_max":581,"o":"m 555 492 l 251 492 l 251 723 l 581 723 l 581 861 l 92 861 l 92 0 l 251 0 l 251 357 l 555 357 l 555 492 z "},"G":{"ha":736,"x_min":79,"x_max":671,"o":"m 460 -12 q 671 178 666 -3 l 671 471 l 397 471 l 397 338 l 518 338 l 518 148 q 502 132 518 132 l 258 132 q 241 148 241 132 l 241 713 q 258 730 241 730 l 655 730 l 655 873 l 290 873 q 79 685 80 871 l 79 178 q 271 -12 79 -4 q 290 -12 281 -12 l 460 -12 z "},"Ğ":{"ha":736,"x_min":79,"x_max":671,"o":"m 460 -12 q 671 178 666 -3 l 671 471 l 397 471 l 397 338 l 518 338 l 518 148 q 502 132 518 132 l 258 132 q 241 148 241 132 l 241 713 q 258 730 241 730 l 655 730 l 655 873 l 290 873 q 79 685 80 871 l 79 178 q 271 -12 79 -4 q 290 -12 281 -12 l 460 -12 m 220 1115 q 277 959 220 996 q 403 932 319 932 q 562 1004 528 932 q 579 1115 579 1044 l 483 1115 q 448 1032 483 1048 q 403 1025 429 1025 q 321 1074 332 1025 q 317 1115 317 1090 l 220 1115 z "},"H":{"ha":810,"x_min":92,"x_max":718,"o":"m 559 0 l 718 0 l 718 861 l 559 861 l 559 507 l 251 507 l 251 861 l 92 861 l 92 0 l 251 0 l 251 368 l 559 368 l 559 0 z "},"I":{"ha":374,"x_min":109,"x_max":267,"o":"m 267 0 l 267 861 l 109 861 l 109 0 l 267 0 z "},"Í":{"ha":374,"x_min":109,"x_max":359,"o":"m 267 0 l 267 861 l 109 861 l 109 0 l 267 0 m 119 928 l 205 1137 l 359 1135 l 231 928 l 119 928 z "},"Î":{"ha":374,"x_min":-22,"x_max":393,"o":"m 267 0 l 267 861 l 109 861 l 109 0 l 267 0 m 267 1130 l 111 1130 l -22 928 l 102 928 l 189 1059 l 264 928 l 393 928 l 267 1130 z "},"Ï":{"ha":374,"x_min":1,"x_max":381,"o":"m 267 0 l 267 861 l 109 861 l 109 0 l 267 0 m 133 954 l 133 1095 l 1 1095 l 1 954 l 133 954 m 381 954 l 381 1095 l 250 1095 l 250 954 l 381 954 z "},"İ":{"ha":374,"x_min":109,"x_max":267,"o":"m 267 0 l 267 861 l 109 861 l 109 0 l 267 0 m 256 948 l 256 1103 l 119 1103 l 119 948 l 256 948 z "},"Ì":{"ha":374,"x_min":11,"x_max":267,"o":"m 267 0 l 267 861 l 109 861 l 109 0 l 267 0 m 11 1135 l 164 1137 l 252 928 l 146 928 l 11 1135 z "},"Ī":{"ha":374,"x_min":4,"x_max":370,"o":"m 267 0 l 267 861 l 109 861 l 109 0 l 267 0 m 370 1067 l 4 1067 l 4 958 l 370 958 l 370 1067 z "},"Į":{"ha":374,"x_min":53,"x_max":290,"o":"m 267 0 l 267 861 l 109 861 l 109 0 l 164 0 l 88 -69 q 53 -159 53 -102 l 53 -191 q 134 -286 53 -273 q 190 -290 159 -290 l 290 -290 l 290 -189 l 180 -189 q 171 -179 172 -186 l 171 -127 q 182 -104 172 -115 l 267 0 z "},"J":{"ha":404,"x_min":7,"x_max":315,"o":"m 315 861 l 155 861 l 155 148 q 138 132 155 132 l 7 132 l 7 -12 l 110 -12 q 313 151 301 -12 q 315 175 315 163 l 315 861 z "},"K":{"ha":770,"x_min":99,"x_max":766,"o":"m 418 365 q 434 350 429 365 l 598 0 l 766 0 l 617 315 q 544 423 576 400 q 522 435 533 430 q 590 519 559 453 q 605 553 597 534 l 735 861 l 576 861 l 434 521 q 416 505 425 506 l 258 505 l 258 861 l 99 861 l 99 0 l 258 0 l 258 365 l 418 365 z "},"L":{"ha":566,"x_min":92,"x_max":559,"o":"m 559 138 l 251 138 l 251 861 l 92 861 l 92 0 l 559 0 l 559 138 z "},"Ĺ":{"ha":566,"x_min":92,"x_max":559,"o":"m 559 138 l 251 138 l 251 861 l 92 861 l 92 0 l 559 0 l 559 138 m 100 928 l 186 1137 l 340 1135 l 212 928 l 100 928 z "},"Ľ":{"ha":566,"x_min":92,"x_max":559,"o":"m 559 138 l 251 138 l 251 861 l 92 861 l 92 0 l 559 0 l 559 138 m 442 553 q 529 731 528 639 l 529 863 l 395 863 l 395 707 l 439 707 q 396 591 437 654 l 442 553 z "},"Ł":{"ha":566,"x_min":92,"x_max":559,"o":"m 559 138 l 251 138 l 251 861 l 92 861 l 92 0 l 559 0 l 559 138 z "},"M":{"ha":913,"x_min":83,"x_max":831,"o":"m 731 861 l 684 861 l 458 427 l 258 808 q 209 857 236 849 q 170 861 193 861 l 83 861 l 83 0 l 224 0 l 224 605 l 400 258 l 494 258 l 678 614 l 678 0 l 831 0 l 831 764 q 772 857 831 844 q 731 861 754 861 z "},"N":{"ha":796,"x_min":83,"x_max":713,"o":"m 601 0 l 713 0 l 713 861 l 575 861 l 575 282 l 194 861 l 83 861 l 83 0 l 220 0 l 220 579 l 601 0 z "},"Ń":{"ha":796,"x_min":83,"x_max":713,"o":"m 601 0 l 713 0 l 713 861 l 575 861 l 575 282 l 194 861 l 83 861 l 83 0 l 220 0 l 220 579 l 601 0 m 330 928 l 415 1137 l 570 1135 l 441 928 l 330 928 z "},"Ň":{"ha":796,"x_min":83,"x_max":713,"o":"m 601 0 l 713 0 l 713 861 l 575 861 l 575 282 l 194 861 l 83 861 l 83 0 l 220 0 l 220 579 l 601 0 m 319 935 l 475 935 l 608 1137 l 484 1137 l 397 1005 l 321 1137 l 193 1137 l 319 935 z "},"Ñ":{"ha":796,"x_min":83,"x_max":713,"o":"m 601 0 l 713 0 l 713 861 l 575 861 l 575 282 l 194 861 l 83 861 l 83 0 l 220 0 l 220 579 l 601 0 m 277 952 q 309 1006 278 1005 q 392 977 326 1006 q 481 954 446 954 q 586 1112 585 956 l 491 1112 q 464 1061 491 1065 q 454 1059 458 1059 q 368 1088 434 1059 q 279 1111 315 1111 q 191 1038 209 1111 q 183 954 183 1004 l 277 952 z "},"O":{"ha":788,"x_min":79,"x_max":709,"o":"m 530 730 q 547 713 545 727 l 547 148 q 530 132 544 133 l 258 132 q 241 148 241 132 l 241 713 q 258 730 241 730 l 530 730 m 79 178 q 271 -12 79 -4 q 290 -12 281 -12 l 498 -12 q 709 178 704 -3 l 709 685 q 498 873 707 872 l 290 873 q 79 685 80 871 l 79 178 z "},"Œ":{"ha":1090,"x_min":76,"x_max":1046,"o":"m 1046 0 l 1046 138 l 699 138 l 699 369 l 1013 369 l 1013 506 l 699 506 l 699 723 l 1039 723 l 1039 861 l 288 867 q 76 678 77 867 l 76 183 q 285 -5 76 -7 q 288 -5 286 -5 l 1046 0 m 255 138 q 239 155 240 141 l 239 708 q 255 723 241 722 l 540 723 l 540 138 l 255 138 z "},"Ó":{"ha":788,"x_min":79,"x_max":709,"o":"m 530 730 q 547 713 545 727 l 547 148 q 530 132 544 133 l 258 132 q 241 148 241 132 l 241 713 q 258 730 241 730 l 530 730 m 79 178 q 271 -12 79 -4 q 290 -12 281 -12 l 498 -12 q 709 178 704 -3 l 709 685 q 498 873 707 872 l 290 873 q 79 685 80 871 l 79 178 m 338 928 l 423 1137 l 578 1135 l 449 928 l 338 928 z "},"Ô":{"ha":788,"x_min":79,"x_max":709,"o":"m 530 730 q 547 713 545 727 l 547 148 q 530 132 544 133 l 258 132 q 241 148 241 132 l 241 713 q 258 730 241 730 l 530 730 m 79 178 q 271 -12 79 -4 q 290 -12 281 -12 l 498 -12 q 709 178 704 -3 l 709 685 q 498 873 707 872 l 290 873 q 79 685 80 871 l 79 178 m 476 1130 l 320 1130 l 187 928 l 311 928 l 397 1059 l 473 928 l 602 928 l 476 1130 z "},"Ö":{"ha":788,"x_min":79,"x_max":709,"o":"m 530 730 q 547 713 545 727 l 547 148 q 530 132 544 133 l 258 132 q 241 148 241 132 l 241 713 q 258 730 241 730 l 530 730 m 79 178 q 271 -12 79 -4 q 290 -12 281 -12 l 498 -12 q 709 178 704 -3 l 709 685 q 498 873 707 872 l 290 873 q 79 685 80 871 l 79 178 m 343 954 l 343 1095 l 212 1095 l 212 954 l 343 954 m 591 954 l 591 1095 l 460 1095 l 460 954 l 591 954 z "},"Ò":{"ha":788,"x_min":79,"x_max":709,"o":"m 530 730 q 547 713 545 727 l 547 148 q 530 132 544 133 l 258 132 q 241 148 241 132 l 241 713 q 258 730 241 730 l 530 730 m 79 178 q 271 -12 79 -4 q 290 -12 281 -12 l 498 -12 q 709 178 704 -3 l 709 685 q 498 873 707 872 l 290 873 q 79 685 80 871 l 79 178 m 221 1135 l 374 1137 l 463 928 l 357 928 l 221 1135 z "},"Ő":{"ha":788,"x_min":79,"x_max":709,"o":"m 530 730 q 547 713 545 727 l 547 148 q 530 132 544 133 l 258 132 q 241 148 241 132 l 241 713 q 258 730 241 730 l 530 730 m 79 178 q 271 -12 79 -4 q 290 -12 281 -12 l 498 -12 q 709 178 704 -3 l 709 685 q 498 873 707 872 l 290 873 q 79 685 80 871 l 79 178 m 236 928 l 319 1137 l 467 1135 l 345 928 l 236 928 m 445 928 l 532 1137 l 684 1135 l 553 928 l 445 928 z "},"Ō":{"ha":788,"x_min":79,"x_max":709,"o":"m 530 730 q 547 713 545 727 l 547 148 q 530 132 544 133 l 258 132 q 241 148 241 132 l 241 713 q 258 730 241 730 l 530 730 m 79 178 q 271 -12 79 -4 q 290 -12 281 -12 l 498 -12 q 709 178 704 -3 l 709 685 q 498 873 707 872 l 290 873 q 79 685 80 871 l 79 178 m 579 1067 l 213 1067 l 213 958 l 579 958 l 579 1067 z "},"Ø":{"ha":788,"x_min":79,"x_max":709,"o":"m 587 932 l 557 869 q 498 873 528 873 l 290 873 q 79 685 80 871 l 79 178 q 146 22 80 69 l 100 -75 l 197 -75 l 229 -8 q 290 -12 258 -12 l 498 -12 q 709 178 704 -3 l 709 685 q 639 841 708 795 l 684 932 l 587 932 m 241 713 q 258 730 241 730 l 490 730 l 241 217 l 241 713 m 547 148 q 530 132 544 133 l 297 132 l 547 648 l 547 148 z "},"Õ":{"ha":788,"x_min":79,"x_max":709,"o":"m 530 730 q 547 713 545 727 l 547 148 q 530 132 544 133 l 258 132 q 241 148 241 132 l 241 713 q 258 730 241 730 l 530 730 m 79 178 q 271 -12 79 -4 q 290 -12 281 -12 l 498 -12 q 709 178 704 -3 l 709 685 q 498 873 707 872 l 290 873 q 79 685 80 871 l 79 178 m 285 952 q 317 1006 286 1005 q 400 977 334 1006 q 490 954 454 954 q 594 1112 593 956 l 499 1112 q 472 1061 499 1065 q 463 1059 467 1059 q 376 1088 442 1059 q 288 1111 323 1111 q 199 1038 217 1111 q 191 954 191 1004 l 285 952 z "},"P":{"ha":707,"x_min":98,"x_max":678,"o":"m 256 0 l 256 307 l 458 307 q 662 420 613 307 q 678 509 678 460 l 678 669 q 522 863 678 837 q 458 867 492 867 l 98 861 l 98 0 l 256 0 m 498 728 q 517 711 515 726 l 517 463 q 498 445 514 446 l 256 445 l 256 728 l 498 728 z "},"Q":{"ha":789,"x_min":79,"x_max":709,"o":"m 530 730 q 547 713 545 727 l 547 148 q 530 132 544 133 l 258 132 q 241 148 241 132 l 241 713 q 258 730 241 730 l 530 730 m 79 178 q 271 -12 79 -4 q 290 -12 281 -12 l 381 -12 l 414 -164 l 566 -164 l 524 -11 q 709 178 708 1 l 709 685 q 498 873 707 872 l 290 873 q 79 685 80 871 l 79 178 z "},"R":{"ha":750,"x_min":98,"x_max":713,"o":"m 256 0 l 256 328 l 427 328 q 449 313 442 328 q 450 309 449 311 l 553 0 l 713 0 l 623 258 q 563 347 600 321 q 682 532 681 396 l 682 669 q 524 863 682 838 q 461 867 494 867 l 98 861 l 98 0 l 256 0 m 500 728 q 519 711 518 726 l 519 483 q 500 465 517 467 l 256 465 l 256 728 l 500 728 z "},"Ŕ":{"ha":750,"x_min":98,"x_max":713,"o":"m 256 0 l 256 328 l 427 328 q 449 313 442 328 q 450 309 449 311 l 553 0 l 713 0 l 623 258 q 563 347 600 321 q 682 532 681 396 l 682 669 q 524 863 682 838 q 461 867 494 867 l 98 861 l 98 0 l 256 0 m 500 728 q 519 711 518 726 l 519 483 q 500 465 517 467 l 256 465 l 256 728 l 500 728 m 297 928 l 382 1137 l 537 1135 l 408 928 l 297 928 z "},"Ř":{"ha":750,"x_min":98,"x_max":713,"o":"m 256 0 l 256 328 l 427 328 q 449 313 442 328 q 450 309 449 311 l 553 0 l 713 0 l 623 258 q 563 347 600 321 q 682 532 681 396 l 682 669 q 524 863 682 838 q 461 867 494 867 l 98 861 l 98 0 l 256 0 m 500 728 q 519 711 518 726 l 519 483 q 500 465 517 467 l 256 465 l 256 728 l 500 728 m 286 935 l 442 935 l 575 1137 l 452 1137 l 365 1005 l 289 1137 l 160 1137 l 286 935 z "},"S":{"ha":655,"x_min":46,"x_max":613,"o":"m 227 505 q 209 524 210 507 l 209 704 q 227 723 212 722 l 585 723 l 585 861 l 269 867 q 58 747 102 871 q 46 667 46 711 l 46 559 q 241 362 46 373 q 267 361 255 361 l 433 361 q 450 342 449 358 l 450 157 q 433 138 448 140 l 64 138 l 64 0 l 392 -5 q 606 133 575 -11 q 613 193 613 161 l 613 307 q 467 496 613 463 q 391 505 431 505 l 227 505 z "},"Ś":{"ha":655,"x_min":46,"x_max":613,"o":"m 227 505 q 209 524 210 507 l 209 704 q 227 723 212 722 l 585 723 l 585 861 l 269 867 q 58 747 102 871 q 46 667 46 711 l 46 559 q 241 362 46 373 q 267 361 255 361 l 433 361 q 450 342 449 358 l 450 157 q 433 138 448 140 l 64 138 l 64 0 l 392 -5 q 606 133 575 -11 q 613 193 613 161 l 613 307 q 467 496 613 463 q 391 505 431 505 l 227 505 m 267 928 l 353 1137 l 507 1135 l 378 928 l 267 928 z "},"Š":{"ha":655,"x_min":46,"x_max":613,"o":"m 227 505 q 209 524 210 507 l 209 704 q 227 723 212 722 l 585 723 l 585 861 l 269 867 q 58 747 102 871 q 46 667 46 711 l 46 559 q 241 362 46 373 q 267 361 255 361 l 433 361 q 450 342 449 358 l 450 157 q 433 138 448 140 l 64 138 l 64 0 l 392 -5 q 606 133 575 -11 q 613 193 613 161 l 613 307 q 467 496 613 463 q 391 505 431 505 l 227 505 m 255 935 l 411 935 l 544 1137 l 420 1137 l 334 1005 l 258 1137 l 129 1137 l 255 935 z "},"T":{"ha":582,"x_min":7,"x_max":575,"o":"m 370 0 l 370 723 l 575 723 l 575 861 l 7 861 l 7 723 l 212 723 l 212 0 l 370 0 z "},"Ť":{"ha":582,"x_min":7,"x_max":575,"o":"m 370 0 l 370 723 l 575 723 l 575 861 l 7 861 l 7 723 l 212 723 l 212 0 l 370 0 m 221 925 l 377 925 l 510 1127 l 387 1127 l 300 996 l 224 1127 l 95 1127 l 221 925 z "},"Þ":{"ha":742,"x_min":98,"x_max":681,"o":"m 256 0 l 256 168 l 461 168 q 663 281 614 168 q 681 372 681 321 l 681 526 q 492 723 681 709 q 461 724 476 724 l 256 724 l 256 861 l 98 861 l 98 0 l 256 0 m 500 586 q 519 567 518 583 l 519 324 q 500 307 517 308 l 256 307 l 256 586 l 500 586 z "},"U":{"ha":784,"x_min":79,"x_max":705,"o":"m 494 -12 q 705 178 700 -3 l 705 861 l 543 861 l 543 148 q 526 132 543 132 l 258 132 q 241 148 241 132 l 241 861 l 79 861 l 79 178 q 271 -12 79 -4 q 290 -12 281 -12 l 494 -12 z "},"Ú":{"ha":784,"x_min":79,"x_max":705,"o":"m 494 -12 q 705 178 700 -3 l 705 861 l 543 861 l 543 148 q 526 132 543 132 l 258 132 q 241 148 241 132 l 241 861 l 79 861 l 79 178 q 271 -12 79 -4 q 290 -12 281 -12 l 494 -12 m 334 928 l 419 1137 l 574 1135 l 445 928 l 334 928 z "},"Û":{"ha":784,"x_min":79,"x_max":705,"o":"m 494 -12 q 705 178 700 -3 l 705 861 l 543 861 l 543 148 q 526 132 543 132 l 258 132 q 241 148 241 132 l 241 861 l 79 861 l 79 178 q 271 -12 79 -4 q 290 -12 281 -12 l 494 -12 m 472 1130 l 316 1130 l 183 928 l 307 928 l 393 1059 l 469 928 l 598 928 l 472 1130 z "},"Ü":{"ha":784,"x_min":79,"x_max":705,"o":"m 494 -12 q 705 178 700 -3 l 705 861 l 543 861 l 543 148 q 526 132 543 132 l 258 132 q 241 148 241 132 l 241 861 l 79 861 l 79 178 q 271 -12 79 -4 q 290 -12 281 -12 l 494 -12 m 338 954 l 338 1095 l 206 1095 l 206 954 l 338 954 m 586 954 l 586 1095 l 454 1095 l 454 954 l 586 954 z "},"Ù":{"ha":784,"x_min":79,"x_max":705,"o":"m 494 -12 q 705 178 700 -3 l 705 861 l 543 861 l 543 148 q 526 132 543 132 l 258 132 q 241 148 241 132 l 241 861 l 79 861 l 79 178 q 271 -12 79 -4 q 290 -12 281 -12 l 494 -12 m 216 1135 l 369 1137 l 457 928 l 351 928 l 216 1135 z "},"Ű":{"ha":784,"x_min":79,"x_max":705,"o":"m 494 -12 q 705 178 700 -3 l 705 861 l 543 861 l 543 148 q 526 132 543 132 l 258 132 q 241 148 241 132 l 241 861 l 79 861 l 79 178 q 271 -12 79 -4 q 290 -12 281 -12 l 494 -12 m 232 928 l 315 1137 l 463 1135 l 340 928 l 232 928 m 441 928 l 528 1137 l 680 1135 l 549 928 l 441 928 z "},"Ū":{"ha":784,"x_min":79,"x_max":705,"o":"m 494 -12 q 705 178 700 -3 l 705 861 l 543 861 l 543 148 q 526 132 543 132 l 258 132 q 241 148 241 132 l 241 861 l 79 861 l 79 178 q 271 -12 79 -4 q 290 -12 281 -12 l 494 -12 m 575 1067 l 209 1067 l 209 958 l 575 958 l 575 1067 z "},"Ų":{"ha":784,"x_min":79,"x_max":705,"o":"m 494 -12 q 705 178 700 -3 l 705 861 l 543 861 l 543 148 q 526 132 543 132 l 258 132 q 241 148 241 132 l 241 861 l 79 861 l 79 178 q 271 -12 79 -4 q 290 -12 281 -12 l 370 -12 l 304 -72 q 269 -161 269 -104 l 269 -194 q 350 -289 269 -275 q 406 -293 374 -293 l 506 -293 l 506 -191 l 396 -191 q 387 -182 388 -189 l 387 -130 q 397 -107 388 -118 l 475 -12 l 494 -12 z "},"Ů":{"ha":784,"x_min":79,"x_max":705,"o":"m 494 -12 q 705 178 700 -3 l 705 861 l 543 861 l 543 148 q 526 132 543 132 l 258 132 q 241 148 241 132 l 241 861 l 79 861 l 79 178 q 271 -12 79 -4 q 290 -12 281 -12 l 494 -12 m 538 1038 q 483 1161 538 1135 q 397 1175 450 1175 q 271 1118 296 1175 q 259 1038 259 1088 q 316 916 259 940 q 397 902 347 902 q 529 967 505 902 q 538 1038 538 996 m 336 1038 q 358 1100 336 1089 q 397 1105 372 1105 q 456 1080 446 1105 q 461 1038 461 1065 q 433 974 461 985 q 397 970 418 970 q 340 1001 349 970 q 336 1038 336 1016 z "},"V":{"ha":719,"x_min":9,"x_max":711,"o":"m 532 144 l 711 861 l 560 861 l 392 155 q 376 138 385 140 l 323 138 l 167 861 l 9 861 l 199 0 l 370 -4 q 490 33 458 -5 q 532 144 511 62 z "},"W":{"ha":1086,"x_min":91,"x_max":996,"o":"m 391 -12 q 540 75 513 -12 q 543 83 541 79 q 693 -12 576 -8 l 831 -12 q 985 66 955 -12 q 996 144 996 98 l 993 861 l 834 861 l 836 148 q 819 132 836 132 l 635 132 q 618 148 620 134 l 618 861 l 465 861 l 465 148 q 449 132 463 133 l 267 132 q 251 148 252 134 l 251 861 l 91 861 l 91 144 q 175 -1 91 26 q 256 -12 209 -12 l 391 -12 z "},"X":{"ha":766,"x_min":4,"x_max":762,"o":"m 434 518 q 415 503 425 503 l 358 503 q 339 518 345 506 l 190 861 l 22 861 l 157 553 q 232 441 195 464 q 243 434 237 437 q 175 350 209 418 q 159 315 170 338 l 4 0 l 165 0 l 331 350 q 350 365 340 365 l 407 365 q 426 350 420 362 l 593 0 l 762 0 l 605 313 q 538 419 563 397 q 519 433 529 427 q 585 513 553 449 q 604 553 590 525 l 749 861 l 590 861 l 434 518 z "},"Y":{"ha":735,"x_min":11,"x_max":723,"o":"m 445 0 l 445 305 q 529 365 500 315 q 560 435 543 388 l 723 861 l 563 861 l 414 454 q 395 439 406 441 l 347 439 q 328 454 332 442 l 179 861 l 11 861 l 170 437 q 240 326 202 350 q 285 308 259 313 l 285 0 l 445 0 z "},"Ý":{"ha":735,"x_min":11,"x_max":723,"o":"m 445 0 l 445 305 q 529 365 500 315 q 560 435 543 388 l 723 861 l 563 861 l 414 454 q 395 439 406 441 l 347 439 q 328 454 332 442 l 179 861 l 11 861 l 170 437 q 240 326 202 350 q 285 308 259 313 l 285 0 l 445 0 m 309 928 l 395 1137 l 549 1135 l 420 928 l 309 928 z "},"Ÿ":{"ha":735,"x_min":11,"x_max":723,"o":"m 445 0 l 445 305 q 529 365 500 315 q 560 435 543 388 l 723 861 l 563 861 l 414 454 q 395 439 406 441 l 347 439 q 328 454 332 442 l 179 861 l 11 861 l 170 437 q 240 326 202 350 q 285 308 259 313 l 285 0 l 445 0 m 315 954 l 315 1095 l 183 1095 l 183 954 l 315 954 m 563 954 l 563 1095 l 431 1095 l 431 954 l 563 954 z "},"Z":{"ha":654,"x_min":28,"x_max":633,"o":"m 616 129 l 236 129 q 225 145 221 129 q 228 152 227 149 l 633 726 q 507 863 625 859 l 65 863 l 65 732 l 430 734 q 444 718 448 734 q 441 712 442 715 l 28 123 q 130 -1 28 8 q 145 -1 138 -1 l 614 -1 l 616 129 z "},"Ź":{"ha":654,"x_min":28,"x_max":633,"o":"m 616 129 l 236 129 q 225 145 221 129 q 228 152 227 149 l 633 726 q 507 863 625 859 l 65 863 l 65 732 l 430 734 q 444 718 448 734 q 441 712 442 715 l 28 123 q 130 -1 28 8 q 145 -1 138 -1 l 614 -1 l 616 129 m 273 928 l 358 1137 l 513 1135 l 384 928 l 273 928 z "},"Ž":{"ha":654,"x_min":28,"x_max":633,"o":"m 616 129 l 236 129 q 225 145 221 129 q 228 152 227 149 l 633 726 q 507 863 625 859 l 65 863 l 65 732 l 430 734 q 444 718 448 734 q 441 712 442 715 l 28 123 q 130 -1 28 8 q 145 -1 138 -1 l 614 -1 l 616 129 m 260 935 l 416 935 l 549 1137 l 426 1137 l 339 1005 l 263 1137 l 134 1137 l 260 935 z "},"Ż":{"ha":654,"x_min":28,"x_max":633,"o":"m 616 129 l 236 129 q 225 145 221 129 q 228 152 227 149 l 633 726 q 507 863 625 859 l 65 863 l 65 732 l 430 734 q 444 718 448 734 q 441 712 442 715 l 28 123 q 130 -1 28 8 q 145 -1 138 -1 l 614 -1 l 616 129 m 399 948 l 399 1103 l 262 1103 l 262 948 l 399 948 z "},"a":{"ha":589,"x_min":38,"x_max":529,"o":"m 374 113 l 206 113 q 190 129 190 113 l 190 269 q 206 285 193 283 l 374 285 l 374 113 m 254 -12 q 378 84 359 -11 l 391 0 l 529 0 l 529 492 q 444 652 529 620 q 342 666 404 666 l 81 666 l 81 537 l 358 537 q 374 521 373 534 l 374 395 l 221 395 q 57 331 92 395 q 38 231 38 294 l 38 144 q 123 -3 38 24 q 202 -12 156 -12 l 254 -12 z "},"á":{"ha":589,"x_min":38,"x_max":529,"o":"m 374 113 l 206 113 q 190 129 190 113 l 190 269 q 206 285 193 283 l 374 285 l 374 113 m 254 -12 q 378 84 359 -11 l 391 0 l 529 0 l 529 492 q 444 652 529 620 q 342 666 404 666 l 81 666 l 81 537 l 358 537 q 374 521 373 534 l 374 395 l 221 395 q 57 331 92 395 q 38 231 38 294 l 38 144 q 123 -3 38 24 q 202 -12 156 -12 l 254 -12 m 239 749 l 324 958 l 479 956 l 350 749 l 239 749 z "},"ă":{"ha":589,"x_min":38,"x_max":529,"o":"m 374 113 l 206 113 q 190 129 190 113 l 190 269 q 206 285 193 283 l 374 285 l 374 113 m 254 -12 q 378 84 359 -11 l 391 0 l 529 0 l 529 492 q 444 652 529 620 q 342 666 404 666 l 81 666 l 81 537 l 358 537 q 374 521 373 534 l 374 395 l 221 395 q 57 331 92 395 q 38 231 38 294 l 38 144 q 123 -3 38 24 q 202 -12 156 -12 l 254 -12 m 134 936 q 191 780 134 817 q 317 753 233 753 q 476 825 442 753 q 494 936 494 865 l 397 936 q 362 853 397 869 q 317 846 343 846 q 236 895 247 846 q 232 936 232 911 l 134 936 z "},"â":{"ha":589,"x_min":38,"x_max":529,"o":"m 374 113 l 206 113 q 190 129 190 113 l 190 269 q 206 285 193 283 l 374 285 l 374 113 m 254 -12 q 378 84 359 -11 l 391 0 l 529 0 l 529 492 q 444 652 529 620 q 342 666 404 666 l 81 666 l 81 537 l 358 537 q 374 521 373 534 l 374 395 l 221 395 q 57 331 92 395 q 38 231 38 294 l 38 144 q 123 -3 38 24 q 202 -12 156 -12 l 254 -12 m 377 951 l 221 951 l 88 749 l 212 749 l 298 880 l 374 749 l 503 749 l 377 951 z "},"´":{"ha":414,"x_min":85,"x_max":326,"o":"m 85 749 l 171 958 l 326 956 l 197 749 l 85 749 z "},"ä":{"ha":589,"x_min":38,"x_max":529,"o":"m 374 113 l 206 113 q 190 129 190 113 l 190 269 q 206 285 193 283 l 374 285 l 374 113 m 254 -12 q 378 84 359 -11 l 391 0 l 529 0 l 529 492 q 444 652 529 620 q 342 666 404 666 l 81 666 l 81 537 l 358 537 q 374 521 373 534 l 374 395 l 221 395 q 57 331 92 395 q 38 231 38 294 l 38 144 q 123 -3 38 24 q 202 -12 156 -12 l 254 -12 m 244 774 l 244 916 l 113 916 l 113 774 l 244 774 m 492 774 l 492 916 l 361 916 l 361 774 l 492 774 z "},"æ":{"ha":914,"x_min":38,"x_max":863,"o":"m 528 536 q 544 552 528 552 l 696 552 q 711 536 709 549 l 711 372 l 528 372 l 528 536 m 845 -8 l 845 121 l 544 121 q 528 137 528 121 l 528 262 l 863 262 l 863 507 q 793 658 863 625 q 680 677 751 677 l 583 677 q 456 635 484 677 q 452 627 453 629 q 323 665 414 666 l 81 663 l 81 534 l 361 536 q 377 519 376 533 l 377 387 l 221 387 q 57 323 92 387 q 38 222 38 286 l 38 144 q 123 -3 38 24 q 202 -12 156 -12 l 264 -12 q 388 94 374 -9 q 582 -8 425 -8 l 845 -8 m 206 113 q 190 129 190 113 l 190 260 q 206 277 193 275 l 377 277 l 377 165 q 382 113 377 134 l 206 113 z "},"à":{"ha":589,"x_min":38,"x_max":529,"o":"m 374 113 l 206 113 q 190 129 190 113 l 190 269 q 206 285 193 283 l 374 285 l 374 113 m 254 -12 q 378 84 359 -11 l 391 0 l 529 0 l 529 492 q 444 652 529 620 q 342 666 404 666 l 81 666 l 81 537 l 358 537 q 374 521 373 534 l 374 395 l 221 395 q 57 331 92 395 q 38 231 38 294 l 38 144 q 123 -3 38 24 q 202 -12 156 -12 l 254 -12 m 122 956 l 275 958 l 363 749 l 258 749 l 122 956 z "},"ā":{"ha":589,"x_min":38,"x_max":529,"o":"m 374 113 l 206 113 q 190 129 190 113 l 190 269 q 206 285 193 283 l 374 285 l 374 113 m 254 -12 q 378 84 359 -11 l 391 0 l 529 0 l 529 492 q 444 652 529 620 q 342 666 404 666 l 81 666 l 81 537 l 358 537 q 374 521 373 534 l 374 395 l 221 395 q 57 331 92 395 q 38 231 38 294 l 38 144 q 123 -3 38 24 q 202 -12 156 -12 l 254 -12 m 480 888 l 114 888 l 114 779 l 480 779 l 480 888 z "},"&":{"ha":781,"x_min":80,"x_max":747,"o":"m 433 -5 q 647 137 614 -5 q 652 194 652 164 l 652 339 q 671 357 655 355 l 746 357 l 747 502 l 704 502 q 496 363 521 502 q 492 313 492 340 l 492 157 q 475 138 490 140 l 260 138 q 243 157 244 141 l 243 385 q 260 403 245 401 l 412 403 l 412 517 l 267 517 q 250 536 251 519 l 250 705 q 267 723 252 722 l 468 723 q 486 705 484 720 l 486 602 l 646 602 l 646 669 q 427 867 643 865 l 308 867 q 87 685 96 867 q 87 669 87 677 l 87 602 q 168 461 88 503 q 80 309 81 422 l 80 194 q 231 1 80 34 q 302 -5 264 -5 l 433 -5 z "},"ං":{"ha":566,"x_min":30,"x_max":517,"o":"m 103 24 q 30 94 31 27 l 30 528 q 100 605 30 597 q 114 605 107 605 l 442 605 q 517 526 515 602 l 517 99 q 458 26 517 33 q 441 24 449 24 l 103 24 m 163 465 l 163 167 q 195 140 165 141 l 354 140 q 384 170 382 142 l 384 464 q 353 495 374 492 l 194 495 q 163 465 164 492 z "},"ą":{"ha":589,"x_min":38,"x_max":552,"o":"m 374 113 l 206 113 q 190 129 190 113 l 190 269 q 206 285 193 283 l 374 285 l 374 113 m 254 -12 q 378 84 359 -11 l 391 0 l 426 0 l 350 -69 q 315 -159 315 -102 l 315 -191 q 396 -286 315 -273 q 452 -290 420 -290 l 552 -290 l 552 -189 l 442 -189 q 433 -179 434 -186 l 433 -127 q 444 -104 434 -115 l 529 0 l 529 492 q 444 652 529 620 q 342 666 404 666 l 81 666 l 81 537 l 358 537 q 374 521 373 534 l 374 395 l 221 395 q 57 331 92 395 q 38 231 38 294 l 38 144 q 123 -3 38 24 q 202 -12 156 -12 l 254 -12 z "},"≈":{"ha":594,"x_min":50,"x_max":545,"o":"m 153 396 q 198 452 160 450 q 308 414 220 452 q 422 382 382 382 q 540 495 521 382 q 545 574 545 529 l 444 574 q 393 503 441 505 q 281 541 372 503 q 165 574 203 574 q 58 480 80 574 q 50 396 52 445 l 153 396 m 152 152 q 198 224 153 222 q 308 186 220 224 q 422 155 382 155 q 540 271 521 155 q 545 332 544 300 l 444 332 q 393 277 437 278 q 278 315 372 277 q 165 346 203 346 q 60 256 81 346 q 50 153 50 216 l 152 152 z "},"å":{"ha":589,"x_min":38,"x_max":529,"o":"m 374 113 l 206 113 q 190 129 190 113 l 190 269 q 206 285 193 283 l 374 285 l 374 113 m 254 -12 q 378 84 359 -11 l 391 0 l 529 0 l 529 492 q 444 652 529 620 q 342 666 404 666 l 81 666 l 81 537 l 358 537 q 374 521 373 534 l 374 395 l 221 395 q 57 331 92 395 q 38 231 38 294 l 38 144 q 123 -3 38 24 q 202 -12 156 -12 l 254 -12 m 444 859 q 388 982 444 956 q 302 996 355 996 q 176 939 201 996 q 164 859 164 909 q 221 736 164 761 q 302 723 252 723 q 434 788 410 723 q 444 859 444 817 m 241 859 q 263 921 241 910 q 302 926 277 926 q 361 901 351 926 q 366 859 366 886 q 338 795 366 806 q 302 791 323 791 q 245 822 254 791 q 241 859 241 837 z "},"^":{"ha":648,"x_min":58,"x_max":590,"o":"m 274 916 l 58 468 l 176 468 l 323 793 l 471 468 l 590 468 l 373 916 l 274 916 z "},"~":{"ha":594,"x_min":50,"x_max":545,"o":"m 152 283 q 198 355 153 354 q 308 317 220 355 q 422 286 382 286 q 538 396 519 286 q 545 479 545 431 l 444 479 q 393 407 441 408 q 281 445 372 407 q 165 477 203 477 q 58 384 80 477 q 50 285 50 343 l 152 283 z "},"*":{"ha":496,"x_min":35,"x_max":461,"o":"m 212 572 l 245 662 l 209 686 l 136 628 l 87 560 l 165 505 l 212 572 m 410 563 l 361 628 l 288 688 l 252 662 l 285 574 l 334 507 l 410 563 m 382 696 l 461 723 l 431 812 l 354 787 l 275 735 l 289 693 l 382 696 m 270 739 l 296 829 l 296 911 l 199 911 l 199 827 l 227 739 l 270 739 m 206 693 l 221 735 l 142 787 l 65 811 l 35 720 l 113 696 l 206 693 z "},"@":{"ha":920,"x_min":85,"x_max":848,"o":"m 643 -66 l 643 37 l 221 37 q 205 53 206 39 l 205 700 q 221 716 208 715 l 713 716 q 730 700 728 713 l 730 240 q 713 224 727 225 l 659 224 q 643 240 643 224 l 643 616 l 446 620 q 288 530 312 623 q 282 475 282 505 l 282 270 q 385 134 282 148 q 415 133 400 133 l 439 133 q 526 206 509 134 q 606 136 533 145 q 651 133 627 133 l 708 133 q 833 187 807 133 q 848 279 848 220 l 848 631 q 665 818 848 807 q 637 819 651 819 l 296 819 q 85 647 95 819 q 85 631 85 639 l 85 123 q 264 -65 85 -53 q 296 -66 279 -66 l 643 -66 m 400 250 l 400 510 q 416 526 400 526 l 525 525 l 525 250 q 509 233 522 235 l 416 233 q 400 250 400 233 z "},"ã":{"ha":589,"x_min":38,"x_max":529,"o":"m 374 113 l 206 113 q 190 129 190 113 l 190 269 q 206 285 193 283 l 374 285 l 374 113 m 254 -12 q 378 84 359 -11 l 391 0 l 529 0 l 529 492 q 444 652 529 620 q 342 666 404 666 l 81 666 l 81 537 l 358 537 q 374 521 373 534 l 374 395 l 221 395 q 57 331 92 395 q 38 231 38 294 l 38 144 q 123 -3 38 24 q 202 -12 156 -12 l 254 -12 m 186 773 q 218 827 187 826 q 301 798 235 827 q 391 774 355 774 q 495 933 494 777 l 400 933 q 373 882 400 886 q 363 880 368 880 q 277 909 343 880 q 189 932 224 932 q 100 859 118 932 q 92 774 92 825 l 186 773 z "},"b":{"ha":633,"x_min":73,"x_max":575,"o":"m 392 -7 q 557 61 524 -11 q 575 157 575 98 l 575 521 q 490 667 575 640 q 411 677 457 677 l 350 677 q 228 593 251 675 l 228 916 l 73 916 l 73 0 l 392 -7 m 228 536 q 244 552 228 552 l 407 552 q 423 536 422 549 l 423 138 q 407 122 420 123 l 228 123 l 228 536 z "},"\\":{"ha":586,"x_min":7,"x_max":579,"o":"m 425 -130 l 579 -130 l 160 916 l 7 916 l 425 -130 z "},"|":{"ha":368,"x_min":121,"x_max":247,"o":"m 247 -80 l 247 916 l 121 916 l 121 -80 l 247 -80 z "},"{":{"ha":438,"x_min":62,"x_max":414,"o":"m 282 793 q 298 810 285 808 l 414 810 l 414 922 l 349 922 q 125 723 126 920 l 125 426 q 109 408 122 410 l 62 408 l 62 282 l 109 282 q 125 264 123 279 l 125 -31 q 349 -231 127 -229 l 414 -231 l 414 -118 l 298 -118 q 282 -102 283 -115 l 282 203 q 163 345 279 328 q 282 487 281 363 l 282 793 z "},"}":{"ha":438,"x_min":24,"x_max":376,"o":"m 156 793 q 140 810 153 808 l 24 810 l 24 922 l 90 922 q 313 723 312 920 l 313 426 q 330 408 316 410 l 376 408 l 376 282 l 330 282 q 313 264 315 279 l 313 -31 q 90 -231 311 -229 l 24 -231 l 24 -118 l 140 -118 q 156 -102 155 -115 l 156 203 q 275 345 159 328 q 156 487 157 363 l 156 793 z "},"[":{"ha":388,"x_min":76,"x_max":358,"o":"m 358 -231 l 358 -121 l 231 -121 l 231 812 l 358 812 l 358 922 l 76 922 l 76 -231 l 358 -231 z "},"]":{"ha":388,"x_min":30,"x_max":312,"o":"m 30 -231 l 30 -121 l 157 -121 l 157 812 l 30 812 l 30 922 l 312 922 l 312 -231 l 30 -231 z "},"˘":{"ha":472,"x_min":72,"x_max":431,"o":"m 72 936 q 129 780 72 817 q 255 753 171 753 q 414 825 380 753 q 431 936 431 865 l 335 936 q 300 853 335 869 q 255 846 281 846 q 174 895 184 846 q 170 936 170 911 l 72 936 z "},"¦":{"ha":376,"x_min":125,"x_max":251,"o":"m 251 -80 l 251 311 l 125 311 l 125 -80 l 251 -80 m 251 526 l 251 916 l 125 916 l 125 526 l 251 526 z "},"•":{"ha":400,"x_min":90,"x_max":311,"o":"m 90 326 q 170 240 90 247 q 189 239 179 239 l 212 239 q 311 312 304 239 q 311 326 311 319 l 311 430 q 233 517 311 510 q 212 518 222 518 l 189 518 q 91 446 98 518 q 90 430 90 438 l 90 326 z "},"c":{"ha":484,"x_min":58,"x_max":463,"o":"m 463 -12 l 463 118 l 229 118 q 213 134 214 121 l 213 532 q 229 547 216 545 l 463 547 l 463 677 l 260 677 q 72 586 109 677 q 58 498 58 549 l 58 168 q 156 1 58 35 q 260 -12 198 -12 l 463 -12 z "},"ć":{"ha":484,"x_min":58,"x_max":463,"o":"m 463 -12 l 463 118 l 229 118 q 213 134 214 121 l 213 532 q 229 547 216 545 l 463 547 l 463 677 l 260 677 q 72 586 109 677 q 58 498 58 549 l 58 168 q 156 1 58 35 q 260 -12 198 -12 l 463 -12 m 193 749 l 278 958 l 433 956 l 304 749 l 193 749 z "},"ˇ":{"ha":553,"x_min":71,"x_max":486,"o":"m 197 755 l 353 755 l 486 958 l 362 958 l 275 826 l 199 958 l 71 958 l 197 755 z "},"č":{"ha":484,"x_min":58,"x_max":496,"o":"m 463 -12 l 463 118 l 229 118 q 213 134 214 121 l 213 532 q 229 547 216 545 l 463 547 l 463 677 l 260 677 q 72 586 109 677 q 58 498 58 549 l 58 168 q 156 1 58 35 q 260 -12 198 -12 l 463 -12 m 208 755 l 363 755 l 496 958 l 373 958 l 286 826 l 210 958 l 81 958 l 208 755 z "},"ç":{"ha":484,"x_min":58,"x_max":463,"o":"m 463 -12 l 463 118 l 229 118 q 213 134 214 121 l 213 532 q 229 547 216 545 l 463 547 l 463 677 l 260 677 q 72 586 109 677 q 58 498 58 549 l 58 168 q 153 3 58 37 q 217 -11 180 -7 l 191 -134 l 302 -134 q 312 -144 311 -137 l 312 -195 q 302 -205 309 -203 l 176 -205 l 176 -290 l 285 -290 q 406 -182 404 -288 l 406 -145 q 321 -60 406 -68 q 297 -58 309 -58 l 283 -58 l 292 -12 l 463 -12 z "},"¸":{"ha":374,"x_min":75,"x_max":304,"o":"m 210 -195 q 201 -205 208 -203 l 75 -205 l 75 -290 l 183 -290 q 304 -182 302 -288 l 304 -145 q 220 -60 304 -68 q 195 -58 208 -58 l 182 -58 l 194 7 l 122 19 l 90 -134 l 201 -134 q 210 -144 209 -137 l 210 -195 z "},"¢":{"ha":491,"x_min":49,"x_max":460,"o":"m 460 91 l 460 220 l 220 220 q 203 236 203 220 l 203 620 q 220 636 206 635 l 460 636 l 460 765 l 336 765 l 336 890 l 216 890 l 216 764 q 58 663 87 754 q 49 586 49 629 l 49 270 q 148 104 49 137 q 216 92 178 95 l 216 -30 l 336 -30 l 336 91 l 460 91 z "},"ˆ":{"ha":553,"x_min":68,"x_max":483,"o":"m 357 951 l 201 951 l 68 749 l 191 749 l 278 880 l 354 749 l 483 749 l 357 951 z "},":":{"ha":293,"x_min":76,"x_max":217,"o":"m 217 31 l 217 195 l 76 195 l 76 31 l 217 31 m 217 385 l 217 549 l 76 549 l 76 385 l 217 385 z "},",":{"ha":251,"x_min":53,"x_max":193,"o":"m 53 3 l 100 3 q 54 -117 95 -56 l 103 -156 q 193 28 191 -65 l 193 164 l 53 164 l 53 3 z "},"©":{"ha":700,"x_min":83,"x_max":617,"o":"m 526 808 q 540 793 538 806 l 540 289 q 526 275 537 277 l 175 275 q 160 289 161 278 l 160 793 q 175 808 163 807 l 526 808 m 83 347 q 163 218 83 241 q 233 210 193 210 l 467 210 q 608 283 583 210 q 617 347 617 311 l 617 736 q 537 865 617 842 q 467 873 507 873 l 233 873 q 92 800 117 873 q 83 736 83 773 l 83 347 m 487 326 l 487 430 l 347 430 q 331 446 332 433 l 331 637 q 347 652 334 651 l 487 652 l 487 757 l 370 757 q 225 697 255 757 q 209 608 209 663 l 209 475 q 274 340 209 368 q 370 326 309 326 l 487 326 z "},"¤":{"ha":817,"x_min":46,"x_max":770,"o":"m 496 574 q 513 557 513 574 l 513 301 q 496 285 510 286 l 321 285 q 305 301 307 288 l 305 557 q 321 574 308 572 l 496 574 m 155 338 q 165 260 155 297 l 46 141 l 127 60 l 244 176 q 361 155 290 155 l 458 155 q 574 175 528 155 l 689 60 l 770 141 l 651 260 q 663 338 663 293 l 663 521 q 651 600 663 566 l 770 719 l 689 799 l 572 684 q 458 704 528 704 l 361 704 q 244 684 290 704 l 129 799 l 47 718 l 167 598 q 155 521 155 566 l 155 338 z "},"d":{"ha":632,"x_min":58,"x_max":560,"o":"m 406 916 l 406 667 l 241 669 q 77 605 113 669 q 58 505 58 568 l 58 144 q 144 -3 58 24 q 222 -12 176 -12 l 283 -12 q 410 88 392 -9 l 422 0 l 560 0 l 560 916 l 406 916 m 406 129 q 389 113 406 113 l 227 113 q 210 129 210 113 l 210 529 q 227 545 210 545 l 406 544 l 406 129 z "},"†":{"ha":553,"x_min":27,"x_max":526,"o":"m 308 0 l 326 330 l 326 484 l 300 610 l 256 610 l 228 486 l 228 328 l 247 0 l 308 0 m 149 600 l 239 625 l 239 669 l 151 696 l 27 696 l 27 600 l 149 600 m 526 600 l 526 696 l 403 696 l 315 669 l 315 625 l 404 600 l 526 600 m 300 685 l 326 774 l 324 911 l 229 911 l 229 773 l 256 685 l 300 685 z "},"‡":{"ha":639,"x_min":27,"x_max":526,"o":"m 300 286 l 326 395 l 326 506 l 300 614 l 256 614 l 229 507 l 229 393 l 256 286 l 300 286 m 324 -11 l 326 121 l 300 212 l 256 212 l 229 122 l 229 -11 l 324 -11 m 151 201 l 239 228 l 239 271 l 149 297 l 27 296 l 27 201 l 151 201 m 526 201 l 526 296 l 404 297 l 315 271 l 315 228 l 403 201 l 526 201 m 218 627 l 239 666 l 171 697 l 62 700 l 27 618 l 114 604 l 218 627 m 526 605 l 526 700 l 403 700 l 315 673 l 315 629 l 404 604 l 526 605 m 300 690 l 326 780 l 324 911 l 229 911 l 229 779 l 256 690 l 300 690 z "},"ď":{"ha":750,"x_min":58,"x_max":753,"o":"m 406 916 l 406 667 l 241 669 q 77 605 113 669 q 58 505 58 568 l 58 144 q 144 -3 58 24 q 222 -12 176 -12 l 283 -12 q 410 88 392 -9 l 422 0 l 560 0 l 560 916 l 406 916 m 406 129 q 389 113 406 113 l 227 113 q 210 129 210 113 l 210 529 q 227 545 210 545 l 406 544 l 406 129 m 624 769 l 667 769 q 625 661 662 716 l 670 624 q 753 793 751 707 l 753 918 l 624 918 l 624 769 z "},"đ":{"ha":632,"x_min":58,"x_max":614,"o":"m 406 916 l 406 846 l 277 846 l 277 745 l 406 745 l 406 667 l 241 669 q 77 605 113 669 q 58 505 58 568 l 58 144 q 144 -3 58 24 q 222 -12 176 -12 l 283 -12 q 410 88 392 -9 l 422 0 l 560 0 l 560 745 l 614 745 l 614 846 l 560 846 l 560 916 l 406 916 m 406 129 q 389 113 406 113 l 227 113 q 210 129 210 113 l 210 529 q 227 545 210 545 l 406 544 l 406 129 z "},"°":{"ha":420,"x_min":34,"x_max":388,"o":"m 34 576 q 130 461 34 475 q 164 460 146 460 l 256 460 q 385 547 372 460 q 388 576 388 560 l 388 754 q 300 869 388 854 q 256 873 279 873 l 164 873 q 37 788 52 873 q 34 754 34 772 l 34 576 m 258 772 q 274 755 273 769 l 274 576 q 258 560 271 562 l 164 560 q 148 576 148 560 l 148 755 q 164 772 151 770 l 258 772 z "},"¨":{"ha":506,"x_min":68,"x_max":448,"o":"m 199 774 l 199 916 l 68 916 l 68 774 l 199 774 m 448 774 l 448 916 l 316 916 l 316 774 l 448 774 z "},"÷":{"ha":693,"x_min":68,"x_max":625,"o":"m 625 339 l 625 450 l 68 450 l 68 339 l 625 339 m 412 68 l 412 224 l 279 224 l 279 68 l 412 68 m 412 567 l 412 723 l 279 723 l 279 567 l 412 567 z "},"$":{"ha":659,"x_min":54,"x_max":591,"o":"m 235 490 q 217 509 218 492 l 217 651 q 235 669 220 667 l 564 669 l 564 808 l 396 811 l 396 947 l 264 947 l 264 814 q 64 686 102 812 q 54 614 54 652 l 54 544 q 243 347 54 361 q 274 346 259 346 l 411 346 q 429 328 427 343 l 429 179 q 411 161 426 163 l 73 161 l 73 22 l 264 18 l 264 -114 l 396 -114 l 396 16 q 586 160 557 23 q 591 216 591 187 l 591 297 q 374 490 589 488 l 235 490 z "},"˙":{"ha":245,"x_min":54,"x_max":191,"o":"m 191 769 l 191 924 l 54 924 l 54 769 l 191 769 z "},"ı":{"ha":320,"x_min":84,"x_max":237,"o":"m 237 0 l 237 665 l 84 665 l 84 0 l 237 0 z "},"◌":{"ha":757,"x_min":57,"x_max":688,"o":"m 134 130 q 175 170 141 167 q 214 136 213 170 q 214 130 214 133 q 175 91 208 95 q 134 123 137 91 q 134 130 134 127 m 77 222 q 117 262 81 260 q 155 227 153 262 q 155 221 155 222 q 115 182 151 183 q 77 216 80 182 q 77 222 77 218 m 224 72 q 263 111 227 110 q 301 77 300 111 q 301 72 301 73 q 262 33 298 34 q 224 66 225 33 q 224 72 224 71 m 327 50 q 366 90 331 88 q 404 56 403 90 q 404 50 404 52 q 365 11 400 12 q 327 45 328 11 q 327 50 327 49 m 58 326 q 98 365 61 363 q 137 332 134 365 q 137 326 137 328 q 98 286 133 288 q 58 320 60 286 q 58 326 58 324 m 77 431 q 117 471 81 469 q 155 435 153 471 q 155 430 155 431 q 117 391 151 392 q 77 425 80 391 q 77 431 77 429 m 434 72 q 473 111 437 110 q 511 77 510 111 q 511 72 511 73 q 472 33 509 34 q 434 66 435 33 q 434 72 434 71 m 142 521 q 183 559 149 557 q 221 529 218 559 q 221 519 221 524 q 180 481 217 483 q 142 515 144 481 q 142 521 142 519 m 525 132 q 564 170 532 167 q 602 134 601 170 q 602 129 602 130 q 563 91 595 94 q 525 132 525 94 m 232 581 q 273 620 236 618 q 311 585 309 620 q 311 579 311 581 q 271 540 308 541 q 232 581 233 543 m 585 222 q 625 262 589 260 q 665 221 665 259 q 623 182 658 183 q 585 216 586 182 q 585 222 585 220 m 338 601 q 377 640 342 639 q 415 605 414 640 q 415 600 415 601 q 376 560 411 562 q 338 594 340 560 q 338 601 338 598 m 608 326 q 647 365 610 363 q 686 332 684 365 q 686 326 686 328 q 647 286 682 288 q 608 320 609 286 q 608 326 608 324 m 442 581 q 483 620 446 618 q 521 585 519 620 q 521 579 521 581 q 481 540 518 541 q 442 581 444 543 m 589 430 q 629 469 593 468 q 669 435 666 469 q 669 429 669 431 q 628 389 665 391 q 589 430 589 392 m 530 521 q 571 559 534 557 q 610 526 608 559 q 610 519 610 522 q 570 481 602 486 q 530 515 532 481 q 530 521 530 519 z "},"e":{"ha":601,"x_min":60,"x_max":549,"o":"m 532 -8 l 532 121 l 229 121 q 213 137 213 121 l 213 254 l 549 254 l 549 507 q 480 658 549 625 q 366 677 438 677 l 240 677 q 80 614 114 677 q 60 507 60 575 l 60 171 q 159 5 60 38 q 262 -8 201 -8 l 532 -8 m 213 536 q 229 552 213 552 l 382 552 q 399 536 399 552 l 399 363 l 213 363 l 213 536 z "},"é":{"ha":601,"x_min":60,"x_max":549,"o":"m 532 -8 l 532 121 l 229 121 q 213 137 213 121 l 213 254 l 549 254 l 549 507 q 480 658 549 625 q 366 677 438 677 l 240 677 q 80 614 114 677 q 60 507 60 575 l 60 171 q 159 5 60 38 q 262 -8 201 -8 l 532 -8 m 213 536 q 229 552 213 552 l 382 552 q 399 536 399 552 l 399 363 l 213 363 l 213 536 m 244 749 l 330 958 l 484 956 l 355 749 l 244 749 z "},"ě":{"ha":601,"x_min":60,"x_max":549,"o":"m 532 -8 l 532 121 l 229 121 q 213 137 213 121 l 213 254 l 549 254 l 549 507 q 480 658 549 625 q 366 677 438 677 l 240 677 q 80 614 114 677 q 60 507 60 575 l 60 171 q 159 5 60 38 q 262 -8 201 -8 l 532 -8 m 213 536 q 229 552 213 552 l 382 552 q 399 536 399 552 l 399 363 l 213 363 l 213 536 m 233 755 l 389 755 l 522 958 l 399 958 l 312 826 l 236 958 l 107 958 l 233 755 z "},"ê":{"ha":601,"x_min":60,"x_max":549,"o":"m 532 -8 l 532 121 l 229 121 q 213 137 213 121 l 213 254 l 549 254 l 549 507 q 480 658 549 625 q 366 677 438 677 l 240 677 q 80 614 114 677 q 60 507 60 575 l 60 171 q 159 5 60 38 q 262 -8 201 -8 l 532 -8 m 213 536 q 229 552 213 552 l 382 552 q 399 536 399 552 l 399 363 l 213 363 l 213 536 m 382 951 l 227 951 l 94 749 l 217 749 l 304 880 l 380 749 l 509 749 l 382 951 z "},"ë":{"ha":601,"x_min":60,"x_max":549,"o":"m 532 -8 l 532 121 l 229 121 q 213 137 213 121 l 213 254 l 549 254 l 549 507 q 480 658 549 625 q 366 677 438 677 l 240 677 q 80 614 114 677 q 60 507 60 575 l 60 171 q 159 5 60 38 q 262 -8 201 -8 l 532 -8 m 213 536 q 229 552 213 552 l 382 552 q 399 536 399 552 l 399 363 l 213 363 l 213 536 m 250 774 l 250 916 l 118 916 l 118 774 l 250 774 m 498 774 l 498 916 l 366 916 l 366 774 l 498 774 z "},"ė":{"ha":601,"x_min":60,"x_max":549,"o":"m 532 -8 l 532 121 l 229 121 q 213 137 213 121 l 213 254 l 549 254 l 549 507 q 480 658 549 625 q 366 677 438 677 l 240 677 q 80 614 114 677 q 60 507 60 575 l 60 171 q 159 5 60 38 q 262 -8 201 -8 l 532 -8 m 213 536 q 229 552 213 552 l 382 552 q 399 536 399 552 l 399 363 l 213 363 l 213 536 m 372 769 l 372 924 l 235 924 l 235 769 l 372 769 z "},"è":{"ha":601,"x_min":60,"x_max":549,"o":"m 532 -8 l 532 121 l 229 121 q 213 137 213 121 l 213 254 l 549 254 l 549 507 q 480 658 549 625 q 366 677 438 677 l 240 677 q 80 614 114 677 q 60 507 60 575 l 60 171 q 159 5 60 38 q 262 -8 201 -8 l 532 -8 m 213 536 q 229 552 213 552 l 382 552 q 399 536 399 552 l 399 363 l 213 363 l 213 536 m 127 956 l 281 958 l 369 749 l 263 749 l 127 956 z "},"…":{"ha":789,"x_min":65,"x_max":724,"o":"m 461 0 l 461 153 l 330 153 l 330 0 l 461 0 m 724 0 l 724 153 l 593 153 l 593 0 l 724 0 m 198 0 l 198 153 l 66 153 l 66 0 l 198 0 z "},"ē":{"ha":601,"x_min":60,"x_max":549,"o":"m 532 -8 l 532 121 l 229 121 q 213 137 213 121 l 213 254 l 549 254 l 549 507 q 480 658 549 625 q 366 677 438 677 l 240 677 q 80 614 114 677 q 60 507 60 575 l 60 171 q 159 5 60 38 q 262 -8 201 -8 l 532 -8 m 213 536 q 229 552 213 552 l 382 552 q 399 536 399 552 l 399 363 l 213 363 l 213 536 m 487 888 l 121 888 l 121 779 l 487 779 l 487 888 z "},"—":{"ha":909,"x_min":-1,"x_max":910,"o":"m 910 453 l -1 453 l -1 328 l 910 328 l 910 453 z "},"–":{"ha":587,"x_min":27,"x_max":560,"o":"m 560 453 l 27 453 l 27 328 l 560 328 l 560 453 z "},"ę":{"ha":601,"x_min":60,"x_max":555,"o":"m 532 -8 l 532 121 l 229 121 q 213 137 213 121 l 213 254 l 549 254 l 549 507 q 480 658 549 625 q 366 677 438 677 l 240 677 q 80 614 114 677 q 60 507 60 575 l 60 171 q 159 5 60 38 q 262 -8 201 -8 l 429 -8 l 353 -77 q 317 -167 317 -110 l 317 -199 q 399 -294 317 -281 q 454 -298 423 -298 l 555 -298 l 555 -197 l 445 -197 q 435 -187 437 -194 l 435 -136 q 446 -113 437 -123 l 532 -8 m 213 536 q 229 552 213 552 l 382 552 q 399 536 399 552 l 399 363 l 213 363 l 213 536 z "},"=":{"ha":711,"x_min":68,"x_max":639,"o":"m 639 541 l 68 541 l 68 430 l 639 430 l 639 541 m 639 285 l 68 285 l 68 174 l 639 174 l 639 285 z "},"℮":{"ha":677,"x_min":56,"x_max":621,"o":"m 187 96 l 187 347 l 621 347 q 499 625 621 534 q 347 675 430 675 q 109 536 190 675 q 56 330 56 444 q 155 64 56 161 q 339 -12 231 -12 q 544 68 453 -12 q 579 104 564 85 l 552 132 q 363 30 479 41 q 340 28 351 28 q 187 96 244 30 m 486 586 l 486 387 l 187 387 l 187 566 q 347 636 248 636 q 486 586 430 635 z "},"ð":{"ha":625,"x_min":58,"x_max":627,"o":"m 361 -12 q 545 75 509 -12 q 560 168 560 113 l 560 750 q 556 807 560 783 l 627 842 l 595 911 l 525 876 q 372 925 480 926 l 161 924 l 161 811 l 391 812 l 393 812 l 263 747 l 296 678 l 407 734 l 407 632 l 256 632 q 75 551 111 632 q 58 453 58 513 l 58 168 q 156 1 58 35 q 260 -12 198 -12 l 361 -12 m 212 134 l 212 502 q 227 517 214 515 l 408 517 l 408 134 q 392 118 406 119 l 227 118 q 212 134 213 121 z "},"!":{"ha":330,"x_min":98,"x_max":256,"o":"m 221 277 l 256 670 l 256 875 l 98 875 l 98 670 l 133 277 l 221 277 m 252 0 l 252 170 l 102 170 l 102 0 l 252 0 z "},"¡":{"ha":324,"x_min":91,"x_max":250,"o":"m 126 388 l 91 -5 l 91 -210 l 250 -210 l 250 -5 l 214 388 l 126 388 m 95 665 l 95 495 l 245 495 l 245 665 l 95 665 z "},"f":{"ha":418,"x_min":28,"x_max":441,"o":"m 441 798 l 441 926 l 290 928 q 121 852 156 928 q 103 753 103 814 l 103 665 l 28 665 l 28 545 l 103 545 l 103 0 l 256 0 l 256 545 l 415 545 l 415 665 l 256 665 l 256 783 q 271 798 259 796 l 441 798 z "},"ﬁ":{"ha":720,"x_min":22,"x_max":636,"o":"m 636 0 l 636 665 l 483 665 l 483 0 l 636 0 m 396 545 l 396 665 l 259 665 l 259 780 q 275 796 262 795 l 418 795 l 418 924 l 293 925 q 122 846 156 926 q 106 751 106 808 l 106 665 l 22 665 l 22 545 l 106 545 l 106 0 l 259 0 l 259 545 l 396 545 m 636 788 l 636 924 l 483 924 l 483 788 l 636 788 z "},"ﬂ":{"ha":723,"x_min":22,"x_max":642,"o":"m 411 545 l 411 665 l 254 665 l 254 783 q 270 798 256 796 l 419 798 l 419 926 l 289 928 q 118 852 153 928 q 100 753 100 812 l 100 665 l 22 665 l 22 545 l 100 545 l 100 0 l 254 0 l 254 545 l 411 545 m 642 0 l 642 916 l 488 916 l 488 0 l 642 0 z "},"ƒ":{"ha":551,"x_min":11,"x_max":522,"o":"m 106 -258 q 266 -193 228 -259 q 293 -84 288 -153 l 338 444 l 473 444 l 473 563 l 346 563 l 365 783 q 380 798 368 796 l 522 798 l 522 926 l 399 928 q 239 861 277 928 q 212 753 217 822 l 195 563 l 111 563 l 111 444 l 186 444 l 141 -113 q 125 -129 137 -127 l 11 -127 l 11 -256 l 106 -258 z "},"⁴":{"ha":534,"x_min":20,"x_max":498,"o":"m 414 338 l 414 448 l 498 448 l 498 551 l 414 551 l 414 864 l 281 867 q 195 833 222 868 q 168 789 184 819 l 20 529 l 20 448 l 288 448 l 288 338 l 414 338 m 264 753 q 277 761 273 761 l 288 761 l 288 551 l 146 551 l 264 753 z "},"⁄":{"ha":633,"x_min":9,"x_max":618,"o":"m 494 873 l 9 -12 l 136 -12 l 618 873 l 494 873 z "},"g":{"ha":620,"x_min":58,"x_max":560,"o":"m 406 129 q 389 113 406 113 l 227 113 q 210 129 210 113 l 210 524 q 227 540 213 538 l 406 538 l 406 129 m 389 -142 l 85 -142 l 85 -270 l 358 -270 q 547 -179 510 -270 q 560 -91 560 -142 l 560 665 l 241 669 q 77 604 111 670 q 58 505 58 567 l 58 144 q 144 -3 58 24 q 222 -12 176 -12 l 283 -12 q 406 72 382 -11 l 406 -126 q 389 -142 406 -142 z "},"ğ":{"ha":620,"x_min":58,"x_max":560,"o":"m 406 129 q 389 113 406 113 l 227 113 q 210 129 210 113 l 210 524 q 227 540 213 538 l 406 538 l 406 129 m 389 -142 l 85 -142 l 85 -270 l 358 -270 q 547 -179 510 -270 q 560 -91 560 -142 l 560 665 l 241 669 q 77 604 111 670 q 58 505 58 567 l 58 144 q 144 -3 58 24 q 222 -12 176 -12 l 283 -12 q 406 72 382 -11 l 406 -126 q 389 -142 406 -142 m 146 936 q 203 780 146 817 q 330 753 245 753 q 488 825 454 753 q 506 936 506 865 l 410 936 q 374 853 410 869 q 330 846 355 846 q 248 895 259 846 q 244 936 244 911 l 146 936 z "},"ß":{"ha":689,"x_min":31,"x_max":640,"o":"m 418 -5 q 636 144 608 -5 q 640 194 640 168 l 640 302 q 545 457 639 419 q 620 595 618 500 l 620 669 q 431 865 620 852 q 400 867 415 867 l 321 867 q 109 731 141 867 q 102 673 102 703 l 102 665 l 31 665 l 31 545 l 102 545 l 102 0 l 255 0 l 255 720 q 274 738 258 736 l 448 738 q 465 720 464 735 l 465 529 q 441 511 464 513 l 323 511 l 323 387 l 468 387 q 486 369 484 384 l 486 141 q 468 123 483 125 l 323 123 l 323 -5 l 418 -5 z "},"`":{"ha":425,"x_min":39,"x_max":281,"o":"m 39 956 l 193 958 l 281 749 l 175 749 l 39 956 z "},">":{"ha":635,"x_min":66,"x_max":582,"o":"m 582 458 l 66 711 l 66 581 l 442 408 l 66 236 l 66 107 l 582 361 l 582 458 z "},"≥":{"ha":640,"x_min":62,"x_max":578,"o":"m 578 477 l 62 701 l 62 572 l 429 427 l 62 282 l 62 155 l 578 380 l 578 477 m 566 129 l 62 129 l 62 18 l 566 18 l 566 129 z "},"«":{"ha":587,"x_min":41,"x_max":555,"o":"m 53 326 l 189 109 l 313 109 l 191 335 q 191 357 186 346 l 317 582 l 198 582 l 53 362 q 52 328 41 345 q 53 326 53 327 m 290 326 l 422 109 l 549 109 l 429 335 q 429 357 423 346 l 555 582 l 431 582 l 290 362 q 289 328 278 345 q 290 326 290 327 z "},"»":{"ha":589,"x_min":26,"x_max":540,"o":"m 528 365 l 392 582 l 267 582 l 389 355 q 389 334 395 345 l 263 109 l 382 109 l 528 328 q 529 362 540 346 q 528 365 528 363 m 290 365 l 159 582 l 31 582 l 152 355 q 152 334 157 345 l 26 109 l 149 109 l 290 328 q 292 362 302 346 q 290 365 290 363 z "},"‹":{"ha":366,"x_min":38,"x_max":334,"o":"m 52 326 l 186 109 l 328 109 l 206 335 q 206 357 202 347 l 334 582 l 195 582 l 52 362 q 49 330 38 345 q 52 326 50 327 z "},"›":{"ha":366,"x_min":33,"x_max":328,"o":"m 315 365 l 180 582 l 38 582 l 160 355 q 160 334 164 343 l 33 109 l 171 109 l 315 328 q 317 361 328 346 q 315 365 316 363 z "},"h":{"ha":627,"x_min":65,"x_max":567,"o":"m 340 677 q 218 601 244 675 l 218 916 l 65 916 l 68 0 l 220 0 l 218 536 q 235 552 218 552 l 397 552 q 414 536 412 549 l 414 0 l 567 0 l 567 521 q 481 667 567 640 q 403 677 449 677 l 340 677 z "},"˝":{"ha":560,"x_min":81,"x_max":529,"o":"m 81 749 l 164 958 l 312 956 l 190 749 l 81 749 m 290 749 l 377 958 l 529 956 l 399 749 l 290 749 z "},"-":{"ha":439,"x_min":38,"x_max":401,"o":"m 401 453 l 38 453 l 38 328 l 401 328 l 401 453 z "},"i":{"ha":316,"x_min":81,"x_max":235,"o":"m 235 0 l 235 665 l 81 665 l 81 0 l 235 0 m 235 772 l 235 907 l 81 907 l 81 772 l 235 772 z "},"í":{"ha":320,"x_min":84,"x_max":342,"o":"m 237 0 l 237 665 l 84 665 l 84 0 l 237 0 m 102 749 l 187 958 l 342 956 l 213 749 l 102 749 z "},"î":{"ha":320,"x_min":-49,"x_max":366,"o":"m 237 0 l 237 665 l 84 665 l 84 0 l 237 0 m 240 951 l 84 951 l -49 749 l 75 749 l 161 880 l 237 749 l 366 749 l 240 951 z "},"ï":{"ha":320,"x_min":-26,"x_max":354,"o":"m 237 0 l 237 665 l 84 665 l 84 0 l 237 0 m 106 774 l 106 916 l -26 916 l -26 774 l 106 774 m 354 774 l 354 916 l 222 916 l 222 774 l 354 774 z "},"ì":{"ha":320,"x_min":-16,"x_max":237,"o":"m 237 0 l 237 665 l 84 665 l 84 0 l 237 0 m -16 956 l 137 958 l 225 749 l 119 749 l -16 956 z "},"ī":{"ha":320,"x_min":4,"x_max":316,"o":"m 237 0 l 237 665 l 84 665 l 84 0 l 237 0 m 316 888 l 4 888 l 4 779 l 316 779 l 316 888 z "},"∞":{"ha":1061,"x_min":49,"x_max":1012,"o":"m 206 264 q 190 279 191 267 l 190 460 q 206 475 193 473 l 365 475 q 387 460 376 473 l 456 362 l 396 282 q 368 264 377 266 l 206 264 m 836 137 q 1008 264 987 137 q 1012 313 1012 288 l 1012 426 q 894 597 1012 574 q 836 602 868 602 l 730 602 q 604 556 648 602 q 557 499 590 541 l 537 472 l 524 492 q 438 582 469 564 q 340 602 401 602 l 225 602 q 71 541 104 602 q 49 426 49 500 l 49 313 q 117 156 49 190 q 225 137 156 137 l 336 137 q 458 189 411 137 q 507 250 467 198 l 522 270 l 541 243 q 621 157 593 175 q 724 137 658 137 l 836 137 m 712 264 q 671 285 685 266 l 605 378 l 662 456 q 696 475 681 475 l 854 475 q 871 460 869 472 l 871 279 q 854 264 868 266 l 712 264 z "},"∫":{"ha":502,"x_min":16,"x_max":472,"o":"m 164 741 l 164 -110 q 148 -126 164 -126 l 16 -126 l 16 -270 l 119 -270 q 323 -107 311 -270 q 324 -83 324 -95 l 324 768 q 340 784 324 784 l 472 784 l 472 928 l 369 928 q 165 765 178 928 q 164 741 164 753 z "},"į":{"ha":320,"x_min":22,"x_max":259,"o":"m 237 0 l 237 665 l 84 665 l 84 0 l 133 0 l 57 -69 q 22 -159 22 -102 l 22 -191 q 103 -286 22 -273 q 159 -290 127 -290 l 259 -290 l 259 -189 l 149 -189 q 140 -179 141 -186 l 140 -127 q 151 -104 141 -115 l 236 0 l 237 0 m 229 769 l 229 924 l 92 924 l 92 769 l 229 769 z "},"j":{"ha":298,"x_min":-43,"x_max":229,"o":"m 229 772 l 229 907 l 76 907 l 76 772 l 229 772 m 60 -140 l -43 -140 l -43 -270 l 27 -270 q 216 -179 179 -270 q 229 -91 229 -142 l 229 665 l 76 665 l 76 -125 q 60 -140 73 -138 z "},"k":{"ha":635,"x_min":77,"x_max":631,"o":"m 369 283 q 387 267 381 281 l 473 0 l 631 0 l 553 228 q 492 340 525 317 q 465 354 480 349 q 522 467 496 380 l 581 665 l 429 665 l 359 427 q 343 412 354 414 l 228 412 l 228 916 l 77 916 l 77 0 l 228 0 l 228 283 l 369 283 z "},"l":{"ha":315,"x_min":81,"x_max":233,"o":"m 233 0 l 233 916 l 81 916 l 81 0 l 233 0 z "},"ĺ":{"ha":315,"x_min":81,"x_max":330,"o":"m 233 0 l 233 916 l 81 916 l 81 0 l 233 0 m 90 966 l 175 1175 l 330 1173 l 201 966 l 90 966 z "},"ľ":{"ha":425,"x_min":81,"x_max":426,"o":"m 233 0 l 233 916 l 81 916 l 81 0 l 233 0 m 297 769 l 340 769 q 298 661 335 716 l 343 624 q 426 793 425 707 l 426 918 l 297 918 l 297 769 z "},"<":{"ha":625,"x_min":43,"x_max":559,"o":"m 43 332 l 559 80 l 559 210 l 183 382 l 559 555 l 559 684 l 43 430 l 43 332 z "},"≤":{"ha":640,"x_min":62,"x_max":578,"o":"m 62 378 l 578 155 l 578 283 l 210 429 l 578 574 l 578 701 l 62 476 l 62 378 m 578 129 l 65 129 l 65 18 l 578 18 l 578 129 z "},"¬":{"ha":735,"x_min":54,"x_max":667,"o":"m 667 460 l 54 460 l 54 350 l 541 350 l 541 174 l 667 174 l 667 460 z "},"◊":{"ha":696,"x_min":20,"x_max":675,"o":"m 391 -5 l 675 431 l 400 867 l 302 867 l 20 425 l 297 -5 l 391 -5 m 286 259 l 170 439 l 239 533 l 353 716 l 410 602 l 526 422 l 453 320 l 339 142 l 286 259 z "},"ł":{"ha":324,"x_min":-12,"x_max":338,"o":"m 236 0 l 236 426 l 338 463 l 307 556 l 236 530 l 236 916 l 84 916 l 84 476 l -12 441 l 19 346 l 84 370 l 84 0 l 236 0 z "},"m":{"ha":936,"x_min":64,"x_max":883,"o":"m 338 677 q 212 585 233 675 l 201 665 l 64 665 l 65 0 l 218 0 l 216 536 q 232 552 216 552 l 381 552 q 397 536 396 549 l 397 0 l 551 0 l 551 521 l 551 534 l 551 536 q 567 552 551 552 l 713 552 q 730 536 728 549 l 730 0 l 883 0 l 883 521 q 798 667 883 640 q 719 677 765 677 l 673 677 q 545 579 566 675 q 425 675 525 665 q 387 677 406 677 l 338 677 z "},"¯":{"ha":491,"x_min":62,"x_max":429,"o":"m 429 888 l 62 888 l 62 779 l 429 779 l 429 888 z "},"−":{"ha":734,"x_min":68,"x_max":667,"o":"m 667 460 l 68 460 l 68 349 l 667 349 l 667 460 z "},"×":{"ha":639,"x_min":68,"x_max":572,"o":"m 492 654 l 320 481 l 148 654 l 68 574 l 240 401 l 68 229 l 148 151 l 319 321 l 491 149 l 572 231 l 400 403 l 571 574 l 492 654 z "},"n":{"ha":632,"x_min":72,"x_max":574,"o":"m 347 677 q 221 585 240 675 l 209 665 l 72 665 l 73 0 l 227 0 l 225 536 q 241 552 225 552 l 404 552 q 420 536 419 549 l 420 0 l 574 0 l 574 521 q 488 667 574 640 q 410 677 456 677 l 347 677 z "},"ń":{"ha":632,"x_min":72,"x_max":574,"o":"m 347 677 q 221 585 240 675 l 209 665 l 72 665 l 73 0 l 227 0 l 225 536 q 241 552 225 552 l 404 552 q 420 536 419 549 l 420 0 l 574 0 l 574 521 q 488 667 574 640 q 410 677 456 677 l 347 677 m 271 749 l 357 958 l 511 956 l 382 749 l 271 749 z "},"ň":{"ha":632,"x_min":72,"x_max":574,"o":"m 347 677 q 221 585 240 675 l 209 665 l 72 665 l 73 0 l 227 0 l 225 536 q 241 552 225 552 l 404 552 q 420 536 419 549 l 420 0 l 574 0 l 574 521 q 488 667 574 640 q 410 677 456 677 l 347 677 m 254 755 l 410 755 l 543 958 l 419 958 l 332 826 l 256 958 l 127 958 l 254 755 z "},"≠":{"ha":707,"x_min":68,"x_max":639,"o":"m 431 696 l 366 541 l 68 541 l 68 430 l 319 430 l 258 285 l 68 285 l 68 174 l 212 174 l 145 18 l 267 18 l 332 174 l 639 174 l 639 285 l 378 285 l 439 430 l 639 430 l 639 541 l 486 541 l 551 696 l 431 696 z "},"ñ":{"ha":632,"x_min":72,"x_max":574,"o":"m 347 677 q 221 585 240 675 l 209 665 l 72 665 l 73 0 l 227 0 l 225 536 q 241 552 225 552 l 404 552 q 420 536 419 549 l 420 0 l 574 0 l 574 521 q 488 667 574 640 q 410 677 456 677 l 347 677 m 218 773 q 251 827 220 826 q 334 798 267 827 q 423 774 388 774 q 528 933 526 777 l 433 933 q 406 882 433 886 q 396 880 400 880 q 309 909 376 880 q 221 932 256 932 q 133 859 151 932 q 125 774 125 825 l 218 773 z "},"#":{"ha":712,"x_min":22,"x_max":690,"o":"m 80 0 l 195 0 l 237 217 l 391 217 l 349 0 l 464 0 l 506 217 l 627 217 l 627 326 l 526 326 l 567 544 l 690 544 l 690 652 l 589 652 l 629 868 l 515 868 l 473 652 l 320 652 l 361 868 l 247 868 l 205 652 l 85 652 l 85 544 l 184 544 l 142 326 l 22 326 l 22 217 l 122 217 l 80 0 m 453 544 l 411 326 l 258 326 l 298 544 l 453 544 z "},"o":{"ha":625,"x_min":58,"x_max":567,"o":"m 396 547 q 412 532 411 544 l 412 134 q 396 118 410 119 l 229 118 q 213 134 214 121 l 213 532 q 229 547 216 545 l 396 547 m 58 168 q 156 1 58 35 q 260 -12 198 -12 l 365 -12 q 552 77 515 -12 q 567 168 567 114 l 567 498 q 468 663 567 631 q 365 677 426 677 l 260 677 q 72 586 109 677 q 58 498 58 549 l 58 168 z "},"ó":{"ha":625,"x_min":58,"x_max":567,"o":"m 396 547 q 412 532 411 544 l 412 134 q 396 118 410 119 l 229 118 q 213 134 214 121 l 213 532 q 229 547 216 545 l 396 547 m 58 168 q 156 1 58 35 q 260 -12 198 -12 l 365 -12 q 552 77 515 -12 q 567 168 567 114 l 567 498 q 468 663 567 631 q 365 677 426 677 l 260 677 q 72 586 109 677 q 58 498 58 549 l 58 168 m 258 749 l 343 958 l 498 956 l 369 749 l 258 749 z "},"ô":{"ha":625,"x_min":58,"x_max":567,"o":"m 396 547 q 412 532 411 544 l 412 134 q 396 118 410 119 l 229 118 q 213 134 214 121 l 213 532 q 229 547 216 545 l 396 547 m 58 168 q 156 1 58 35 q 260 -12 198 -12 l 365 -12 q 552 77 515 -12 q 567 168 567 114 l 567 498 q 468 663 567 631 q 365 677 426 677 l 260 677 q 72 586 109 677 q 58 498 58 549 l 58 168 m 396 951 l 240 951 l 107 749 l 231 749 l 317 880 l 393 749 l 522 749 l 396 951 z "},"ö":{"ha":625,"x_min":58,"x_max":567,"o":"m 396 547 q 412 532 411 544 l 412 134 q 396 118 410 119 l 229 118 q 213 134 214 121 l 213 532 q 229 547 216 545 l 396 547 m 58 168 q 156 1 58 35 q 260 -12 198 -12 l 365 -12 q 552 77 515 -12 q 567 168 567 114 l 567 498 q 468 663 567 631 q 365 677 426 677 l 260 677 q 72 586 109 677 q 58 498 58 549 l 58 168 m 262 774 l 262 916 l 130 916 l 130 774 l 262 774 m 510 774 l 510 916 l 378 916 l 378 774 l 510 774 z "},"œ":{"ha":955,"x_min":58,"x_max":903,"o":"m 399 547 q 415 532 414 544 l 415 134 q 399 118 412 119 l 229 118 q 213 134 214 121 l 213 532 q 229 547 216 545 l 399 547 m 566 536 q 581 552 568 551 l 735 552 q 751 536 750 549 l 751 363 l 566 363 l 566 536 m 640 -8 l 886 -8 l 886 121 l 581 121 q 566 137 567 123 l 566 254 l 903 254 l 903 507 q 834 658 903 625 q 720 677 792 677 l 620 677 q 486 631 517 675 q 340 677 445 677 l 260 677 q 72 586 109 677 q 58 498 58 549 l 58 168 q 156 1 58 35 q 260 -12 198 -12 l 340 -12 q 492 45 454 -11 q 640 -8 533 -8 z "},"˛":{"ha":477,"x_min":142,"x_max":380,"o":"m 380 -290 l 380 -189 l 270 -189 q 260 -179 262 -186 l 260 -127 q 271 -104 262 -115 l 357 0 l 263 8 l 178 -69 q 142 -159 142 -102 l 142 -191 q 224 -286 142 -273 q 279 -290 248 -290 l 380 -290 z "},"ò":{"ha":625,"x_min":58,"x_max":567,"o":"m 396 547 q 412 532 411 544 l 412 134 q 396 118 410 119 l 229 118 q 213 134 214 121 l 213 532 q 229 547 216 545 l 396 547 m 58 168 q 156 1 58 35 q 260 -12 198 -12 l 365 -12 q 552 77 515 -12 q 567 168 567 114 l 567 498 q 468 663 567 631 q 365 677 426 677 l 260 677 q 72 586 109 677 q 58 498 58 549 l 58 168 m 140 956 l 293 958 l 381 749 l 275 749 l 140 956 z "},"ő":{"ha":625,"x_min":58,"x_max":604,"o":"m 396 547 q 412 532 411 544 l 412 134 q 396 118 410 119 l 229 118 q 213 134 214 121 l 213 532 q 229 547 216 545 l 396 547 m 58 168 q 156 1 58 35 q 260 -12 198 -12 l 365 -12 q 552 77 515 -12 q 567 168 567 114 l 567 498 q 468 663 567 631 q 365 677 426 677 l 260 677 q 72 586 109 677 q 58 498 58 549 l 58 168 m 156 749 l 239 958 l 387 956 l 264 749 l 156 749 m 365 749 l 452 958 l 604 956 l 473 749 l 365 749 z "},"ō":{"ha":625,"x_min":58,"x_max":567,"o":"m 396 547 q 412 532 411 544 l 412 134 q 396 118 410 119 l 229 118 q 213 134 214 121 l 213 532 q 229 547 216 545 l 396 547 m 58 168 q 156 1 58 35 q 260 -12 198 -12 l 365 -12 q 552 77 515 -12 q 567 168 567 114 l 567 498 q 468 663 567 631 q 365 677 426 677 l 260 677 q 72 586 109 677 q 58 498 58 549 l 58 168 m 499 888 l 133 888 l 133 779 l 499 779 l 499 888 z "},"½":{"ha":1108,"x_min":26,"x_max":1062,"o":"m 408 441 l 320 441 l 320 861 l 202 861 l 26 750 l 77 658 l 194 728 l 194 441 l 58 441 l 58 338 l 408 338 l 408 441 m 742 873 l 258 -12 l 384 -12 l 867 873 l 742 873 m 690 164 l 690 0 l 1059 0 l 1059 103 l 821 103 l 821 148 q 836 174 822 167 l 986 245 q 1058 313 1048 274 q 1062 343 1062 327 l 1062 412 q 945 529 1062 529 q 943 529 944 529 l 705 525 l 705 422 l 921 422 q 932 410 930 419 l 932 359 q 920 345 929 350 l 764 269 q 700 217 712 244 q 690 164 690 195 z "},"¼":{"ha":1141,"x_min":26,"x_max":1104,"o":"m 1020 0 l 1020 110 l 1104 110 l 1104 213 l 1020 213 l 1020 526 l 887 529 q 802 495 829 530 q 774 452 791 481 l 627 191 l 627 110 l 894 110 l 894 0 l 1020 0 m 871 415 q 883 423 879 423 l 894 423 l 894 213 l 753 213 l 871 415 m 408 441 l 320 441 l 320 861 l 202 861 l 26 750 l 77 658 l 194 728 l 194 441 l 58 441 l 58 338 l 408 338 l 408 441 m 747 873 l 263 -12 l 389 -12 l 872 873 l 747 873 z "},"¹":{"ha":441,"x_min":26,"x_max":408,"o":"m 408 441 l 320 441 l 320 861 l 202 861 l 26 750 l 77 658 l 194 728 l 194 441 l 58 441 l 58 338 l 408 338 l 408 441 z "},"ª":{"ha":496,"x_min":45,"x_max":438,"o":"m 304 491 l 187 491 q 171 507 171 491 l 171 598 q 187 614 171 614 l 304 614 l 304 491 m 212 378 q 304 441 288 378 q 308 463 307 452 l 319 389 l 438 389 l 438 751 q 391 884 438 854 q 270 907 353 907 l 75 907 l 75 802 l 288 803 q 304 787 304 803 l 304 708 l 208 708 q 65 655 96 708 q 45 553 45 618 l 45 529 q 123 387 45 410 q 186 378 151 378 l 212 378 z "},"º":{"ha":530,"x_min":57,"x_max":479,"o":"m 334 803 q 350 787 350 803 l 350 503 q 334 487 350 487 l 201 487 q 184 503 184 487 l 184 787 q 201 803 184 803 l 334 803 m 57 548 q 142 392 57 423 q 240 378 182 378 l 294 378 q 465 460 431 378 q 479 548 479 496 l 479 738 q 392 898 479 867 q 294 911 353 911 l 240 911 q 73 834 107 911 q 57 738 57 796 l 57 548 z "},"ø":{"ha":625,"x_min":58,"x_max":567,"o":"m 465 749 l 430 673 q 365 677 401 677 l 260 677 q 72 586 109 677 q 58 498 58 549 l 58 168 q 126 15 60 56 l 80 -83 l 161 -83 l 197 -8 q 260 -12 227 -12 l 365 -12 q 552 77 515 -12 q 567 168 567 114 l 567 498 q 500 648 566 609 l 547 749 l 465 749 m 213 532 q 229 547 216 545 l 372 547 l 213 205 l 213 532 m 412 134 q 396 118 410 119 l 255 118 l 412 458 l 412 134 z "},"õ":{"ha":625,"x_min":58,"x_max":567,"o":"m 396 547 q 412 532 411 544 l 412 134 q 396 118 410 119 l 229 118 q 213 134 214 121 l 213 532 q 229 547 216 545 l 396 547 m 58 168 q 156 1 58 35 q 260 -12 198 -12 l 365 -12 q 552 77 515 -12 q 567 168 567 114 l 567 498 q 468 663 567 631 q 365 677 426 677 l 260 677 q 72 586 109 677 q 58 498 58 549 l 58 168 m 203 773 q 236 827 205 826 q 319 798 252 827 q 408 774 373 774 q 513 933 511 777 l 418 933 q 391 882 418 886 q 381 880 385 880 q 294 909 361 880 q 206 932 241 932 q 118 859 136 932 q 110 774 110 825 l 203 773 z "},"p":{"ha":632,"x_min":72,"x_max":574,"o":"m 227 -258 l 227 -1 l 391 -3 q 555 62 521 -4 q 574 161 574 99 l 574 521 q 488 667 574 640 q 410 677 456 677 l 347 677 q 222 576 240 674 l 209 665 l 72 665 l 72 -258 l 227 -258 m 227 536 q 243 552 229 551 l 406 552 q 422 536 420 549 l 422 138 q 406 122 422 122 l 227 123 l 227 536 z "},"¶":{"ha":738,"x_min":31,"x_max":640,"o":"m 506 0 l 640 0 l 640 861 l 251 867 q 41 746 79 869 q 31 678 31 715 l 31 609 q 130 441 31 491 q 251 415 182 415 l 281 415 l 281 0 l 415 0 l 415 728 l 506 728 l 506 0 z "},"(":{"ha":389,"x_min":76,"x_max":365,"o":"m 365 -231 l 365 -115 l 248 -115 q 233 -99 235 -113 l 233 791 q 248 807 236 806 l 365 807 l 365 922 l 300 922 q 76 723 77 920 l 76 -31 q 300 -231 79 -229 l 365 -231 z "},")":{"ha":389,"x_min":24,"x_max":313,"o":"m 24 -231 l 24 -115 l 141 -115 q 156 -99 155 -113 l 156 791 q 141 807 153 806 l 24 807 l 24 922 l 90 922 q 313 723 312 920 l 313 -31 q 90 -231 311 -229 l 24 -231 z "},"∂":{"ha":701,"x_min":52,"x_max":612,"o":"m 391 -5 q 612 190 610 -3 l 612 667 q 484 856 612 817 q 389 867 442 868 l 99 861 l 99 723 l 431 723 q 449 704 448 720 l 449 444 q 316 530 422 529 l 244 530 q 56 389 77 530 q 52 336 52 365 l 52 193 q 247 -4 52 7 q 273 -5 260 -5 l 391 -5 m 232 138 q 214 157 216 141 l 214 377 q 232 395 217 393 l 433 395 q 449 378 448 392 l 449 157 q 431 138 446 140 l 232 138 z "},"%":{"ha":1043,"x_min":37,"x_max":1006,"o":"m 37 491 q 137 374 37 387 q 168 373 152 373 l 282 373 q 416 491 416 376 l 414 753 q 323 868 412 853 q 282 871 304 871 l 168 871 q 39 785 54 871 q 37 753 37 769 l 37 491 m 279 764 q 296 749 294 761 l 296 496 q 279 481 293 483 l 171 481 q 155 496 156 484 l 155 749 q 171 764 157 762 l 279 764 m 629 109 q 719 -7 629 8 q 761 -9 739 -9 l 875 -9 q 1005 83 993 -9 q 1006 109 1006 95 l 1006 369 q 911 486 1006 472 q 875 488 894 488 l 761 488 q 632 404 647 488 q 629 369 629 388 l 629 109 m 872 380 q 888 365 887 377 l 888 114 q 872 98 886 99 l 764 98 q 747 114 749 100 l 747 365 q 764 380 750 378 l 872 380 m 704 873 l 220 -12 l 346 -12 l 829 873 l 704 873 z "},".":{"ha":247,"x_min":53,"x_max":194,"o":"m 194 0 l 194 164 l 53 164 l 53 0 l 194 0 z "},"·":{"ha":282,"x_min":65,"x_max":217,"o":"m 217 293 l 217 467 l 65 467 l 65 293 l 217 293 z "},"‰":{"ha":1499,"x_min":37,"x_max":1461,"o":"m 1085 109 q 1175 -7 1085 8 q 1217 -9 1195 -9 l 1331 -9 q 1458 77 1444 -9 q 1461 109 1461 92 l 1461 369 q 1371 486 1461 471 q 1331 488 1352 488 l 1217 488 q 1088 404 1103 488 q 1085 369 1085 388 l 1085 109 m 1328 380 q 1343 365 1341 377 l 1343 114 q 1328 98 1340 99 l 1219 98 q 1203 114 1204 100 l 1203 365 q 1219 380 1206 378 l 1328 380 m 37 491 q 137 374 37 387 q 168 373 152 373 l 282 373 q 416 491 416 376 l 414 753 q 323 868 412 853 q 282 871 304 871 l 168 871 q 39 785 54 871 q 37 753 37 769 l 37 491 m 279 764 q 296 749 294 761 l 296 496 q 279 481 293 483 l 171 481 q 155 496 156 484 l 155 749 q 171 764 157 762 l 279 764 m 629 109 q 719 -7 629 8 q 761 -9 739 -9 l 875 -9 q 1005 83 993 -9 q 1006 109 1006 95 l 1006 369 q 911 486 1006 472 q 875 488 894 488 l 761 488 q 632 404 647 488 q 629 369 629 388 l 629 109 m 872 380 q 888 365 887 377 l 888 114 q 872 98 886 99 l 764 98 q 747 114 749 100 l 747 365 q 764 380 750 378 l 872 380 m 704 873 l 220 -12 l 346 -12 l 829 873 l 704 873 z "},"π":{"ha":699,"x_min":20,"x_max":678,"o":"m 252 0 l 252 545 l 446 545 l 446 0 l 600 0 l 600 545 l 678 545 l 678 665 l 20 665 l 20 545 l 99 545 l 99 0 l 252 0 z "},"+":{"ha":734,"x_min":72,"x_max":662,"o":"m 662 460 l 425 460 l 425 693 l 309 693 l 309 460 l 72 460 l 72 349 l 309 349 l 309 117 l 425 117 l 425 349 l 662 349 l 662 460 z "},"±":{"ha":734,"x_min":72,"x_max":662,"o":"m 662 519 l 425 519 l 425 723 l 309 723 l 309 519 l 72 519 l 72 408 l 309 408 l 309 206 l 425 206 l 425 408 l 662 408 l 662 519 m 662 129 l 72 129 l 72 18 l 662 18 l 662 129 z "},"∏":{"ha":806,"x_min":27,"x_max":780,"o":"m 780 861 l 27 861 l 27 723 l 118 723 l 118 0 l 277 0 l 277 723 l 530 723 l 530 0 l 689 0 l 689 723 l 780 723 l 780 861 z "},"q":{"ha":632,"x_min":58,"x_max":560,"o":"m 241 669 q 77 604 111 670 q 58 505 58 567 l 58 144 q 144 -3 58 24 q 222 -12 176 -12 l 283 -12 q 406 72 382 -11 l 406 -258 l 560 -258 l 560 665 l 241 669 m 406 129 q 389 113 406 113 l 227 113 q 210 129 210 113 l 210 524 q 227 540 213 538 l 406 538 l 406 129 z "},"?":{"ha":505,"x_min":35,"x_max":448,"o":"m 256 240 l 258 297 q 277 355 259 335 q 281 359 279 358 l 378 458 q 445 567 437 519 q 448 606 448 585 l 448 685 q 334 859 448 829 q 254 867 300 867 l 35 867 l 35 732 l 279 732 q 296 716 294 730 l 296 583 q 286 559 294 568 l 164 430 q 113 353 119 382 q 110 315 110 338 l 110 240 l 256 240 m 258 0 l 258 170 l 109 170 l 109 0 l 258 0 z "},"¿":{"ha":518,"x_min":71,"x_max":483,"o":"m 262 425 l 260 368 q 241 309 259 330 q 237 305 239 307 l 140 206 q 73 98 81 145 q 71 58 71 80 l 71 -20 q 184 -194 71 -164 q 264 -202 218 -202 l 483 -202 l 483 -68 l 239 -68 q 222 -52 224 -65 l 222 81 q 232 106 224 96 l 354 235 q 406 312 399 282 q 408 350 408 327 l 408 425 l 262 425 m 260 665 l 260 495 l 410 495 l 410 665 l 260 665 z "},"\"":{"ha":396,"x_min":49,"x_max":332,"o":"m 49 625 l 49 930 l 160 930 l 160 800 l 117 625 l 49 625 m 221 625 l 221 930 l 332 930 l 332 800 l 289 625 l 221 625 z "},"„":{"ha":431,"x_min":53,"x_max":373,"o":"m 239 9 l 283 9 q 240 -104 278 -46 l 286 -141 q 350 -57 328 -100 q 372 34 372 -14 l 372 163 l 239 163 l 239 9 m 53 9 l 98 9 q 54 -104 92 -46 l 100 -141 q 120 -121 111 -132 q 136 -101 129 -111 q 151 -80 144 -91 q 163 -58 157 -69 q 173 -36 168 -47 q 180 -13 178 -24 q 184 10 183 -1 q 186 34 186 22 l 186 163 l 53 163 l 53 9 z "},"“":{"ha":437,"x_min":61,"x_max":384,"o":"m 197 792 l 151 792 q 195 907 157 849 l 149 945 q 62 768 62 859 l 62 636 l 197 636 l 197 792 m 382 792 l 336 792 q 381 907 343 849 l 335 945 q 248 768 248 859 l 248 636 l 382 636 l 382 792 z "},"”":{"ha":435,"x_min":52,"x_max":374,"o":"m 239 776 l 285 776 q 240 661 278 719 l 286 623 q 373 800 373 709 l 373 932 l 239 932 l 239 776 m 53 776 l 99 776 q 54 661 92 719 l 100 623 q 187 800 187 709 l 187 932 l 53 932 l 53 776 z "},"‘":{"ha":247,"x_min":61,"x_max":198,"o":"m 197 792 l 151 792 q 195 907 157 849 l 149 945 q 62 768 62 859 l 62 636 l 197 636 l 197 792 z "},"’":{"ha":237,"x_min":46,"x_max":183,"o":"m 47 776 l 94 776 q 49 661 87 719 l 95 623 q 182 800 182 709 l 182 932 l 47 932 l 47 776 z "},"‚":{"ha":251,"x_min":53,"x_max":193,"o":"m 53 3 l 100 3 q 54 -117 95 -56 l 103 -156 q 193 28 191 -65 l 193 164 l 53 164 l 53 3 z "},"'":{"ha":228,"x_min":49,"x_max":165,"o":"m 49 624 l 49 930 l 165 930 l 165 800 l 119 624 l 49 624 z "},"r":{"ha":393,"x_min":69,"x_max":396,"o":"m 345 677 q 218 585 237 675 l 206 665 l 69 665 l 71 0 l 224 0 l 222 526 q 239 543 222 543 l 396 543 l 396 677 l 345 677 z "},"ŕ":{"ha":393,"x_min":69,"x_max":396,"o":"m 345 677 q 218 585 237 675 l 206 665 l 69 665 l 71 0 l 224 0 l 222 526 q 239 543 222 543 l 396 543 l 396 677 l 345 677 m 106 749 l 191 958 l 346 956 l 217 749 l 106 749 z "},"√":{"ha":806,"x_min":24,"x_max":777,"o":"m 475 -62 l 777 928 l 640 928 l 403 141 l 232 665 l 24 665 l 24 526 l 122 526 l 324 -62 l 475 -62 z "},"ř":{"ha":396,"x_min":23,"x_max":438,"o":"m 345 677 q 218 585 237 675 l 206 665 l 69 665 l 71 0 l 224 0 l 222 526 q 239 543 222 543 l 396 543 l 396 677 l 345 677 m 149 755 l 305 755 l 438 958 l 315 958 l 228 826 l 152 958 l 23 958 l 149 755 z "},"®":{"ha":719,"x_min":83,"x_max":667,"o":"m 576 808 q 590 793 589 806 l 590 289 q 576 275 587 277 l 175 275 q 160 289 161 278 l 160 793 q 175 808 163 807 l 576 808 m 83 347 q 163 218 83 241 q 233 210 193 210 l 517 210 q 658 283 633 210 q 667 347 667 311 l 667 736 q 587 865 667 842 q 517 873 557 873 l 233 873 q 92 800 117 873 q 83 736 83 773 l 83 347 m 328 320 l 327 475 l 382 475 q 397 464 395 473 l 448 320 l 559 320 l 519 435 q 487 491 503 479 q 548 597 547 519 l 548 646 q 456 758 548 745 q 420 760 438 760 l 216 755 l 216 320 l 328 320 m 419 677 q 431 665 431 677 l 431 570 q 419 559 429 560 l 327 559 l 327 677 l 419 677 z "},"˚":{"ha":487,"x_min":110,"x_max":389,"o":"m 389 859 q 334 982 389 956 q 248 996 301 996 q 122 939 146 996 q 110 859 110 909 q 167 736 110 761 q 248 723 198 723 q 380 788 355 723 q 389 859 389 817 m 187 859 q 209 921 187 910 q 248 926 222 926 q 307 901 297 926 q 312 859 312 886 q 283 795 312 806 q 248 791 269 791 q 191 822 199 791 q 187 859 187 837 z "},"s":{"ha":534,"x_min":43,"x_max":506,"o":"m 342 -3 q 494 72 464 -3 q 506 152 506 104 l 506 233 q 437 380 506 347 q 323 397 395 397 l 213 397 q 197 414 197 397 l 197 532 q 213 547 199 545 l 469 547 l 469 675 l 231 677 q 61 601 96 677 q 43 502 43 563 l 43 442 q 115 294 43 326 q 227 277 156 277 l 338 277 q 354 260 353 274 l 354 137 q 338 121 354 121 l 54 121 l 56 -3 l 342 -3 z "},"ś":{"ha":534,"x_min":43,"x_max":506,"o":"m 342 -3 q 494 72 464 -3 q 506 152 506 104 l 506 233 q 437 380 506 347 q 323 397 395 397 l 213 397 q 197 414 197 397 l 197 532 q 213 547 199 545 l 469 547 l 469 675 l 231 677 q 61 601 96 677 q 43 502 43 563 l 43 442 q 115 294 43 326 q 227 277 156 277 l 338 277 q 354 260 353 274 l 354 137 q 338 121 354 121 l 54 121 l 56 -3 l 342 -3 m 209 749 l 294 958 l 449 956 l 320 749 l 209 749 z "},"š":{"ha":534,"x_min":43,"x_max":506,"o":"m 342 -3 q 494 72 464 -3 q 506 152 506 104 l 506 233 q 437 380 506 347 q 323 397 395 397 l 213 397 q 197 414 197 397 l 197 532 q 213 547 199 545 l 469 547 l 469 675 l 231 677 q 61 601 96 677 q 43 502 43 563 l 43 442 q 115 294 43 326 q 227 277 156 277 l 338 277 q 354 260 353 274 l 354 137 q 338 121 354 121 l 54 121 l 56 -3 l 342 -3 m 205 755 l 361 755 l 494 958 l 370 958 l 283 826 l 208 958 l 79 958 l 205 755 z "},"§":{"ha":624,"x_min":45,"x_max":579,"o":"m 579 31 l 579 320 q 529 453 579 415 q 460 487 505 469 l 221 578 q 202 602 203 586 l 202 705 q 221 723 205 722 l 560 723 l 560 861 l 243 867 q 46 711 61 872 q 45 682 45 696 l 45 393 q 95 260 45 298 q 164 227 119 244 l 403 136 q 420 111 419 127 l 420 8 q 403 -9 418 -8 l 64 -9 l 64 -148 l 381 -153 q 579 24 574 -159 q 579 31 579 28 m 225 332 q 202 377 203 350 l 202 457 l 397 381 q 420 336 419 361 l 420 258 l 225 332 z "},";":{"ha":300,"x_min":76,"x_max":217,"o":"m 76 3 l 123 3 q 79 -114 118 -56 l 127 -155 q 217 28 216 -64 l 217 164 l 76 164 l 76 3 m 217 361 l 217 525 l 76 525 l 76 361 l 217 361 z "},"අ":{"ha":735,"x_min":30,"x_max":690,"o":"m 388 582 q 441 669 388 648 q 472 674 457 674 l 690 674 l 690 587 l 642 587 q 624 574 625 586 q 650 538 624 568 q 686 448 686 492 l 686 315 q 618 243 684 244 l 521 243 l 521 115 l 684 115 l 684 0 l 521 0 l 521 -190 l 388 -190 l 388 0 l 95 0 q 33 39 41 0 q 30 69 30 52 l 30 404 q 104 480 33 479 l 235 480 l 235 530 q 197 564 222 562 l 30 564 l 30 674 l 239 674 q 335 605 323 674 q 336 585 336 594 l 336 370 l 197 370 q 164 350 167 370 q 163 334 163 343 l 163 145 q 187 115 165 117 l 388 115 l 388 582 m 519 346 l 563 346 q 590 363 587 346 q 591 377 591 370 l 591 454 q 564 526 591 479 q 552 559 552 548 q 555 570 553 567 q 519 530 522 562 l 519 346 z "},"ආ":{"ha":1059,"x_min":30,"x_max":1006,"o":"m 388 582 q 441 669 388 648 q 472 674 457 674 l 690 674 l 690 587 l 642 587 q 624 574 625 586 q 650 538 624 568 q 686 448 686 492 l 686 315 q 618 243 684 244 l 521 243 l 521 115 l 684 115 l 684 0 l 521 0 l 521 -190 l 388 -190 l 388 0 l 95 0 q 33 39 41 0 q 30 69 30 52 l 30 404 q 104 480 33 479 l 235 480 l 235 530 q 197 564 222 562 l 30 564 l 30 674 l 239 674 q 335 605 323 674 q 336 585 336 594 l 336 370 l 197 370 q 164 350 167 370 q 163 334 163 343 l 163 145 q 187 115 165 117 l 388 115 l 388 582 m 519 346 l 563 346 q 590 363 587 346 q 591 377 591 370 l 591 454 q 564 526 591 479 q 552 559 552 548 q 555 570 553 567 q 519 530 522 562 l 519 346 m 766 674 l 951 674 q 1006 617 1005 671 l 1006 52 q 951 0 1004 1 l 766 0 l 766 115 l 850 115 q 873 141 872 118 l 873 541 q 850 564 871 563 l 766 564 l 766 674 z "},"ඈ":{"ha":1085,"x_min":30,"x_max":1029,"o":"m 388 582 q 441 669 388 648 q 472 674 457 674 l 690 674 l 690 587 l 642 587 q 624 574 625 586 q 650 538 624 568 q 686 448 686 492 l 686 315 q 618 243 684 244 l 521 243 l 521 115 l 684 115 l 684 0 l 521 0 l 521 -190 l 388 -190 l 388 0 l 95 0 q 33 39 41 0 q 30 69 30 52 l 30 404 q 104 480 33 479 l 235 480 l 235 530 q 197 564 222 562 l 30 564 l 30 674 l 239 674 q 335 605 323 674 q 336 585 336 594 l 336 370 l 197 370 q 164 350 167 370 q 163 334 163 343 l 163 145 q 187 115 165 117 l 388 115 l 388 582 m 519 346 l 563 346 q 590 363 587 346 q 591 377 591 370 l 591 454 q 564 526 591 479 q 552 559 552 548 q 555 570 553 567 q 519 530 522 562 l 519 346 m 769 674 l 1029 674 l 1029 570 l 909 484 l 1029 484 l 1029 392 l 926 286 q 902 217 902 259 l 902 141 q 909 117 902 118 q 925 115 916 115 l 1029 115 l 1029 0 l 810 0 q 769 49 769 0 l 769 220 q 799 305 770 274 l 886 384 l 769 384 l 769 480 l 879 564 l 769 564 l 769 674 z "},"ඇ":{"ha":1090,"x_min":30,"x_max":1036,"o":"m 776 674 l 1036 674 l 1036 557 l 922 326 q 909 256 909 298 l 909 141 q 936 115 911 117 l 1036 115 l 1036 0 l 823 0 q 776 49 777 3 l 776 260 q 796 359 776 321 l 903 563 l 776 563 l 776 674 m 388 582 q 441 669 388 648 q 472 674 457 674 l 690 674 l 690 587 l 642 587 q 624 574 625 586 q 650 538 624 568 q 686 448 686 492 l 686 315 q 618 243 684 244 l 521 243 l 521 115 l 684 115 l 684 0 l 521 0 l 521 -190 l 388 -190 l 388 0 l 95 0 q 33 39 41 0 q 30 69 30 52 l 30 404 q 104 480 33 479 l 235 480 l 235 530 q 197 564 222 562 l 30 564 l 30 674 l 239 674 q 335 605 323 674 q 336 585 336 594 l 336 370 l 197 370 q 164 350 167 370 q 163 334 163 343 l 163 145 q 187 115 165 117 l 388 115 l 388 582 m 519 346 l 563 346 q 590 363 587 346 q 591 377 591 370 l 591 454 q 564 526 591 479 q 552 559 552 548 q 555 570 553 567 q 519 530 522 562 l 519 346 z "},"ඓ":{"ha":1236,"x_min":30,"x_max":1192,"o":"m 823 804 l 823 708 q 840 682 823 684 q 854 681 845 681 l 1057 681 l 1057 686 q 1023 723 1055 709 q 863 798 1021 723 q 830 804 846 804 l 823 804 m 1192 670 l 1192 69 q 1143 1 1192 9 q 1130 0 1137 0 l 635 0 q 570 60 571 3 l 570 210 q 606 283 571 263 l 524 283 l 524 382 l 792 382 l 792 431 q 766 456 789 454 l 574 456 l 574 552 l 844 552 q 925 469 924 549 l 925 278 l 774 278 q 703 221 704 277 l 703 146 q 720 117 703 121 q 735 115 726 115 l 1031 115 q 1058 145 1057 118 l 1058 604 l 765 604 q 705 640 713 604 q 703 667 703 652 l 703 804 l 627 804 l 627 901 l 792 901 q 894 882 846 901 q 909 875 901 879 l 1097 788 q 1184 716 1168 757 q 1192 670 1192 694 m 457 674 l 102 674 q 31 620 41 674 q 30 604 30 612 l 30 62 q 92 0 33 1 l 395 0 q 464 66 458 9 l 464 373 q 392 441 461 439 l 243 441 l 243 334 l 300 334 q 331 301 328 323 l 331 142 q 302 115 328 117 l 189 115 q 163 142 164 121 l 163 532 q 197 563 174 560 l 457 563 l 457 674 z "},"ඖ":{"ha":1177,"x_min":30,"x_max":1146,"o":"m 720 674 l 720 376 q 765 331 723 332 l 890 331 q 956 378 955 334 l 956 538 q 974 563 958 562 l 1005 563 q 1021 541 1020 560 l 1021 141 q 1001 115 1019 117 l 890 115 q 865 141 868 126 l 865 224 l 723 224 l 723 64 q 777 0 731 5 l 1081 0 q 1145 46 1134 0 q 1146 62 1146 54 l 1146 618 q 1109 671 1146 658 q 1089 674 1100 674 l 906 674 q 865 633 869 674 q 865 618 865 627 l 865 471 q 846 441 861 442 l 819 441 q 803 456 806 441 q 803 469 803 463 l 803 674 l 720 674 m 393 336 l 278 336 q 231 377 232 339 l 231 498 q 217 511 228 510 l 184 511 q 163 487 164 509 l 163 145 q 191 115 168 117 l 247 115 q 283 157 282 118 l 283 259 l 393 259 l 393 159 q 433 115 396 117 l 487 115 q 515 146 514 118 l 515 680 q 488 724 515 719 q 468 726 479 726 l 30 726 l 30 849 l 548 849 q 647 760 646 846 l 647 68 q 583 0 644 1 l 404 0 q 338 46 350 1 q 292 1 332 11 q 274 0 282 0 l 94 0 q 30 65 31 3 l 30 534 q 110 623 33 621 l 248 623 q 304 575 302 620 l 304 463 q 319 445 307 446 l 350 445 q 365 463 365 448 l 365 623 l 446 623 l 446 384 q 393 336 444 338 z "},"බ":{"ha":699,"x_min":30,"x_max":648,"o":"m 551 848 l 30 848 l 30 732 l 471 732 q 514 708 509 732 q 515 690 515 700 l 515 142 q 491 115 507 118 l 423 115 q 399 132 401 115 q 397 145 397 138 l 397 564 q 323 637 395 636 l 106 637 q 30 563 31 635 l 30 73 q 75 1 30 11 q 98 0 85 0 l 233 0 l 233 115 l 189 115 q 163 146 164 118 l 163 494 q 189 524 165 522 l 251 524 q 274 494 273 521 l 275 73 q 346 0 286 4 l 581 0 q 647 47 639 0 q 648 73 648 60 l 648 739 q 595 842 648 826 q 551 848 576 848 z "},"භ":{"ha":803,"x_min":-8,"x_max":754,"o":"m 30 69 q 65 3 30 14 q 95 0 79 0 l 399 0 q 484 39 469 0 q 490 81 490 57 l 490 343 q 452 391 488 389 l 434 391 l 461 530 q 500 560 469 559 l 590 560 q 621 529 620 556 l 621 155 q 606 118 621 122 q 587 115 598 115 l 537 115 l 537 0 l 669 0 q 747 37 734 0 q 754 87 754 56 l 754 589 q 692 673 754 662 q 663 674 678 674 l 446 674 q 350 605 363 673 l 297 309 l 339 309 q 361 281 359 307 l 361 151 q 346 117 361 121 q 328 115 339 115 l 187 115 q 163 145 164 118 l 163 328 q 202 372 174 368 l 266 372 l 266 585 q 195 671 266 658 q 168 674 182 674 l 30 674 l 30 563 l 126 563 q 164 532 161 557 l 164 481 l -8 481 l -8 376 l 58 376 q 30 320 31 358 l 30 69 z "},"ච":{"ha":731,"x_min":-8,"x_max":689,"o":"m 593 848 l 71 848 l 71 732 l 511 732 q 555 708 549 732 q 556 690 556 700 l 556 148 q 529 115 553 117 l 231 115 q 203 146 205 118 l 203 260 q 263 327 206 326 l 393 327 l 393 562 q 312 637 391 636 l 71 637 l 71 526 l 235 526 q 260 506 259 524 l 260 429 l -8 429 l -8 327 l 92 327 q 71 259 71 304 l 71 73 q 115 1 71 11 q 138 0 126 0 l 621 0 q 688 47 680 0 q 689 73 689 60 l 689 739 q 639 841 689 825 q 593 848 618 848 z "},"ඡ":{"ha":696,"x_min":30,"x_max":704,"o":"m 385 528 q 410 562 385 555 q 418 563 414 563 l 490 563 q 519 529 518 560 l 521 439 q 481 397 518 399 l 414 397 q 385 426 387 400 l 385 528 m 98 0 l 581 0 q 647 47 639 0 q 648 73 648 60 l 648 245 q 616 342 648 315 q 606 349 610 346 q 648 450 648 377 l 648 591 q 574 674 646 673 l 525 674 q 562 708 545 688 l 704 872 l 557 872 l 416 720 q 355 669 385 685 q 327 652 342 663 q 260 674 304 674 l 31 674 l 31 563 l 217 563 q 247 537 245 560 l 247 481 l 106 481 q 30 407 31 479 l 30 73 q 75 1 30 11 q 98 0 85 0 m 190 115 q 163 149 164 118 l 163 343 q 194 372 165 370 l 292 372 l 292 357 q 346 294 294 296 l 469 294 q 515 252 514 292 l 515 148 q 488 115 513 117 l 190 115 z "},"ද":{"ha":624,"x_min":30,"x_max":605,"o":"m 574 0 l 342 0 q 285 -50 286 -3 l 285 -92 q 315 -118 288 -117 l 605 -118 l 605 -232 l 218 -232 q 148 -171 149 -229 l 148 -73 q 179 -4 148 -22 q 187 0 183 -1 l 90 0 q 30 53 35 0 q 30 68 30 61 l 30 403 q 109 480 33 479 l 435 480 l 435 536 q 411 563 433 562 l 30 563 l 30 674 l 496 674 q 568 602 567 671 l 568 370 l 197 370 q 163 338 164 368 l 163 151 q 191 115 167 117 l 574 115 l 574 0 z "},"ඩ":{"ha":697,"x_min":-8,"x_max":647,"o":"m -8 456 l -8 351 l 61 351 q 30 290 31 335 l 30 73 q 68 3 30 12 q 95 0 80 0 l 274 0 q 334 33 317 0 q 338 46 336 41 q 404 0 351 1 l 583 0 q 647 68 646 3 l 647 760 q 548 849 644 848 l 30 849 l 30 726 l 468 726 q 513 701 507 726 q 515 680 515 692 l 515 146 q 487 115 513 117 l 433 115 q 393 159 395 118 l 393 248 l 283 248 l 283 157 q 247 115 281 117 l 189 115 q 163 146 164 118 l 163 301 q 212 346 165 345 l 350 346 l 350 574 q 278 647 350 637 q 256 648 267 648 l 31 648 l 31 537 l 189 537 q 222 511 221 534 l 222 456 l -8 456 z "},"ඪ":{"ha":697,"x_min":-8,"x_max":648,"o":"m 385 753 l 486 753 q 513 723 513 750 l 513 658 l 415 658 q 387 671 391 658 q 385 685 385 677 l 385 753 m 648 534 l 648 758 q 602 844 648 830 q 557 849 583 849 l 195 849 l 195 754 l 266 754 l 266 643 q 302 582 266 589 q 327 579 313 579 l 515 579 l 515 146 q 487 115 513 117 l 433 115 q 393 159 395 118 l 393 213 l 283 213 l 283 157 q 247 115 281 117 l 189 115 q 163 146 164 118 l 163 245 q 212 290 165 289 l 350 290 l 350 494 q 278 567 350 557 q 256 568 267 568 l 31 568 l 31 467 l 210 467 q 244 439 243 464 l 244 388 l -8 388 l -8 296 l 60 296 q 30 235 30 277 l 30 73 q 68 3 30 12 q 95 0 80 0 l 274 0 q 334 33 317 0 q 338 46 336 41 q 404 0 351 1 l 583 0 q 647 68 646 3 l 647 534 l 648 534 z "},"ධ":{"ha":699,"x_min":30,"x_max":648,"o":"m 347 533 l 186 533 q 163 510 164 530 l 163 144 q 190 115 165 117 l 244 115 q 283 167 282 118 l 283 332 l 393 332 l 393 168 q 435 115 396 117 l 490 115 q 515 146 514 118 l 515 681 q 488 724 515 719 q 468 726 479 726 l 30 726 l 30 849 l 549 849 q 648 760 647 846 l 648 68 q 585 0 646 1 l 404 0 q 338 50 353 3 q 296 3 332 16 q 274 0 283 0 l 94 0 q 30 65 31 3 l 30 560 q 110 648 33 647 l 347 648 l 347 533 z "},"එ":{"ha":724,"x_min":5,"x_max":674,"o":"m 305 804 l 305 708 q 336 681 317 682 l 538 681 l 538 686 q 505 723 537 709 q 346 798 503 723 q 313 804 330 804 l 305 804 m 674 670 l 674 69 q 625 1 674 9 q 612 0 618 0 l 117 0 q 52 60 53 3 l 52 210 q 88 283 53 262 l 5 283 l 5 382 l 275 382 l 275 431 q 250 456 273 454 l 56 456 l 56 552 l 327 552 q 408 469 407 549 l 408 278 l 256 278 q 184 221 186 277 l 184 146 q 205 117 184 119 q 217 115 212 115 l 514 115 q 541 145 540 118 l 541 604 l 248 604 q 189 639 197 604 q 186 667 186 651 l 186 804 l 109 804 l 109 901 l 275 901 q 380 880 331 901 q 391 875 385 878 l 579 788 q 667 713 651 757 q 674 670 674 693 z "},"ඒ":{"ha":724,"x_min":5,"x_max":674,"o":"m 305 804 l 313 804 q 346 798 331 804 q 505 723 505 723 q 538 686 537 707 l 538 681 l 336 681 q 307 694 311 681 q 305 708 305 701 l 305 804 m 549 960 l 549 802 l 391 875 q 275 901 327 901 l 109 901 l 109 804 l 186 804 l 186 667 q 221 606 186 614 q 248 604 233 604 l 541 604 l 541 145 q 514 115 538 117 l 217 115 q 184 146 187 125 l 184 221 q 256 278 187 277 l 408 278 l 408 469 q 327 552 406 551 l 56 552 l 56 456 l 250 456 q 275 431 274 453 l 275 382 l 5 382 l 5 283 l 88 283 q 52 210 53 260 l 52 60 q 117 0 54 1 l 612 0 q 673 53 665 0 q 674 69 674 61 l 674 960 l 549 960 z "},"ෆ":{"ha":765,"x_min":30,"x_max":715,"o":"m 416 115 l 551 115 q 582 146 581 118 l 582 529 q 553 563 579 562 l 467 563 q 431 518 433 560 l 431 227 l 311 227 l 311 517 q 277 563 308 562 l 194 563 q 163 529 164 560 l 163 146 q 195 115 174 118 l 326 115 l 326 0 l 99 0 q 30 84 34 9 l 30 598 q 72 669 30 650 q 103 674 87 674 l 297 674 q 370 636 357 674 q 373 628 372 632 q 452 674 388 673 l 642 674 q 712 627 699 674 q 715 604 715 614 l 715 83 q 659 1 715 14 q 642 0 650 0 l 416 0 l 416 115 z "},"ග":{"ha":802,"x_min":30,"x_max":753,"o":"m 263 674 l 263 563 l 197 563 q 164 547 168 563 q 163 528 163 538 l 163 146 q 189 115 165 117 l 304 115 q 336 130 332 115 q 338 152 338 138 l 338 281 q 316 308 335 307 l 283 308 l 334 605 q 431 674 346 674 l 662 674 q 750 616 739 674 q 753 589 753 604 l 753 87 q 711 5 753 18 q 667 0 693 0 l 538 0 l 538 115 l 585 115 q 618 132 614 115 q 620 156 620 141 l 620 526 q 587 560 617 559 l 484 560 q 445 532 452 559 l 419 389 l 431 389 q 468 342 467 387 l 468 81 q 420 4 468 16 q 377 0 403 0 l 99 0 q 30 81 31 3 l 30 594 q 94 673 30 665 q 109 674 102 674 l 263 674 z "},"ඝ":{"ha":770,"x_min":-8,"x_max":715,"o":"m 448 0 l 647 0 q 713 47 705 0 q 715 73 715 60 l 715 403 q 631 481 704 477 l 500 481 l 500 537 q 536 563 503 562 l 713 563 l 713 674 l 488 674 q 396 614 407 674 q 395 600 395 606 l 395 370 l 551 370 q 582 346 581 368 l 582 146 q 556 115 579 117 l 480 115 q 452 140 453 118 l 452 151 q 473 178 453 165 q 500 199 498 195 q 503 214 503 208 l 503 271 q 468 305 500 304 l 275 305 q 240 271 241 302 l 240 214 q 262 183 240 198 q 271 178 269 180 q 292 151 290 163 l 292 140 q 263 115 289 117 l 187 115 q 163 146 164 118 l 163 327 q 212 370 165 369 l 350 370 l 350 600 q 278 673 350 663 q 256 674 267 674 l 31 674 l 31 563 l 210 563 q 244 537 243 560 l 244 481 l -8 481 l -8 377 l 61 377 q 30 315 31 361 l 30 73 q 75 1 30 11 q 98 0 85 0 l 296 0 q 361 38 342 0 q 366 64 366 50 l 366 164 q 342 195 365 178 q 320 225 321 212 l 320 240 q 336 254 321 252 l 407 254 q 423 240 422 251 l 423 225 q 401 195 420 209 q 377 164 378 175 l 377 64 q 420 4 377 20 q 448 0 434 0 z "},"හ":{"ha":802,"x_min":30,"x_max":753,"o":"m 163 145 q 189 115 165 117 l 319 115 q 351 130 347 115 q 353 152 353 138 l 353 281 q 331 308 350 307 l 298 308 l 349 605 q 446 674 361 674 l 662 674 q 750 616 739 674 q 753 589 753 604 l 753 87 q 712 5 753 19 q 667 0 693 0 l 538 0 l 538 115 l 586 115 q 618 134 614 115 q 620 155 620 142 l 620 526 q 587 560 617 559 l 499 560 q 460 532 467 559 l 434 389 l 446 389 q 483 342 481 387 l 483 81 q 438 5 483 18 q 392 0 419 0 l 95 0 q 33 41 41 0 q 30 69 30 54 l 30 406 q 104 480 33 479 l 161 480 l 161 530 q 125 563 149 560 l 30 563 l 30 674 l 167 674 q 262 601 252 674 q 263 585 263 593 l 263 370 l 197 370 q 164 354 168 370 q 163 335 163 346 l 163 145 z "},"්":{"ha":3,"x_min":-184,"x_max":-52,"o":"m -184 667 l -184 880 l -52 880 l -52 583 q -58 595 -53 586 q -87 639 -79 631 q -151 667 -123 666 l -184 667 z "},"ඉ":{"ha":704,"x_min":30,"x_max":654,"o":"m 400 469 l 400 279 q 327 212 397 213 l 106 212 q 30 285 31 214 l 30 600 q 94 673 30 663 q 113 674 103 674 l 570 674 q 654 600 652 671 l 654 146 q 597 62 652 80 q 631 -4 631 39 l 631 -134 q 568 -214 631 -209 q 553 -216 560 -216 l 62 -216 l 62 -99 l 463 -99 q 496 -87 494 -99 q 498 -77 498 -83 l 498 -24 q 461 0 495 -1 l 64 0 l 64 115 l 464 115 q 521 161 518 122 l 521 533 q 490 563 518 562 l 198 563 q 163 534 164 560 l 163 351 q 180 321 163 324 q 191 320 186 320 l 254 320 q 278 351 275 331 l 278 469 l 400 469 z "},"ඊ":{"ha":612,"x_min":30,"x_max":562,"o":"m 30 65 q 92 0 39 4 l 486 0 q 559 61 553 0 q 560 83 560 71 l 560 594 q 477 674 557 673 l 248 674 l 475 899 l 319 899 l 85 675 q 30 583 31 624 l 30 65 m 163 518 q 189 562 163 557 q 203 563 195 563 l 389 563 q 426 545 420 563 q 427 526 427 537 l 427 152 q 414 117 427 121 q 393 115 406 115 l 199 115 q 164 129 168 115 q 163 152 163 137 l 163 518 m 50 899 l 168 899 l 168 788 l 50 788 l 50 899 m 444 822 l 562 822 l 562 711 l 444 711 l 444 822 z "},"ජ":{"ha":696,"x_min":30,"x_max":705,"o":"m 488 115 l 190 115 q 163 148 164 118 l 163 340 q 195 370 165 369 l 316 370 l 316 600 q 239 673 316 666 q 222 674 231 674 l 31 674 l 31 563 l 180 563 q 210 536 209 560 l 210 481 l 106 481 q 30 406 31 479 l 30 73 q 79 1 30 9 q 99 0 88 0 l 579 0 q 647 53 640 0 q 648 73 648 62 l 648 406 q 572 481 646 480 l 468 481 l 468 536 q 498 563 471 562 l 647 563 l 647 674 l 568 674 q 600 709 587 690 l 705 872 l 559 872 l 452 719 q 397 662 426 680 q 395 661 396 661 q 361 600 362 639 l 361 370 l 483 370 q 515 340 514 368 l 515 148 q 488 115 513 117 z "},"ඣ":{"ha":1242,"x_min":16,"x_max":1198,"o":"m 16 285 l 64 285 q 30 197 30 260 l 30 66 q 90 0 33 1 l 220 0 q 271 35 262 0 q 273 39 273 38 q 323 0 285 1 l 444 0 q 513 54 505 0 q 514 71 514 62 l 514 411 q 445 486 510 483 l 320 486 l 373 529 q 439 556 408 556 q 468 553 450 556 l 582 540 q 579 513 579 524 l 579 65 q 643 0 582 1 l 823 0 q 882 35 865 0 q 887 50 886 43 q 954 0 903 1 l 1134 0 q 1198 68 1196 3 l 1198 760 q 1099 849 1195 848 l 579 849 l 579 726 l 1017 726 q 1061 703 1055 726 q 1063 681 1063 693 l 1063 146 q 1039 115 1061 117 l 985 115 q 943 168 944 118 l 943 332 l 833 332 l 833 167 q 793 115 830 117 l 739 115 q 712 144 713 118 l 712 471 q 735 495 715 494 l 895 495 l 895 610 l 890 610 l 895 612 l 491 659 q 423 665 442 665 q 335 635 378 663 l 289 601 l 289 617 q 247 673 289 666 q 236 674 241 674 l 37 674 l 37 563 l 153 563 q 187 537 186 560 l 189 514 l 16 365 l 16 285 m 396 355 l 396 149 q 373 115 389 118 l 342 115 q 312 141 316 115 q 312 157 312 148 l 312 255 l 232 255 l 232 156 q 210 117 232 121 q 201 115 205 115 l 171 115 q 149 144 152 127 l 149 231 q 176 304 151 288 l 176 328 l 138 328 l 203 384 l 372 384 q 396 355 395 381 z "},"ඥ":{"ha":1370,"x_min":30,"x_max":1351,"o":"m 1320 0 l 1320 115 l 937 115 q 909 151 911 123 l 909 338 q 943 370 911 369 l 1314 370 l 1314 602 q 1242 674 1312 673 l 655 674 q 557 605 570 674 l 507 308 l 540 308 q 562 281 560 305 l 562 152 q 548 117 562 121 q 528 115 540 115 l 412 115 q 387 146 388 118 l 387 514 q 412 562 387 556 q 430 563 420 563 l 487 563 l 487 674 l 146 674 q 38 605 64 674 q 30 557 30 583 l 30 0 l 157 0 l 157 522 q 198 567 163 566 l 254 567 l 254 72 q 292 3 254 12 q 319 0 302 0 l 601 0 q 686 41 673 0 q 692 81 692 58 l 692 342 q 655 389 689 388 l 643 389 l 671 534 q 711 563 680 562 l 1157 563 q 1181 536 1180 560 l 1181 480 l 854 480 q 776 403 777 477 l 776 68 q 823 1 776 7 q 836 0 829 0 l 933 0 q 894 -73 897 -27 l 894 -171 q 964 -232 897 -231 l 1351 -232 l 1351 -118 l 1061 -118 q 1032 -92 1034 -115 l 1032 -50 q 1088 0 1035 -1 l 1320 0 z "},"ක":{"ha":803,"x_min":16,"x_max":753,"o":"m 396 355 q 372 384 393 382 l 203 384 l 138 328 l 176 328 l 176 304 q 149 231 149 286 l 149 144 q 171 114 155 115 l 201 114 q 232 156 229 127 l 232 255 l 312 255 l 312 157 q 331 115 312 119 q 342 114 336 114 l 373 114 q 396 149 395 122 l 396 355 m 289 601 l 339 644 q 426 674 376 674 l 674 674 q 750 623 736 674 q 753 601 753 612 l 753 69 q 694 1 753 9 q 680 0 686 0 l 538 0 l 538 114 l 595 115 q 618 144 617 118 l 618 533 q 586 563 616 562 l 442 563 q 387 541 411 562 l 320 486 l 445 486 q 514 411 510 477 l 514 69 q 457 1 514 8 q 444 0 450 0 l 323 0 q 273 39 283 3 q 220 0 262 3 l 90 0 q 30 66 31 3 l 30 197 q 64 283 31 264 l 16 283 l 16 365 q 189 513 18 366 l 187 537 q 153 563 184 562 l 37 563 l 37 674 l 236 674 q 289 617 283 666 l 289 601 z "},"ඛ":{"ha":700,"x_min":30,"x_max":647,"o":"m 30 562 l 30 65 q 88 0 33 1 l 203 0 l 210 115 l 182 115 q 163 140 164 118 l 163 495 q 194 530 168 528 l 263 530 q 290 498 289 528 l 290 365 l 239 -7 l 340 -7 l 366 103 l 399 49 q 479 0 433 1 l 586 0 q 647 69 643 8 l 647 768 q 581 846 647 833 q 552 849 567 849 l 30 849 l 30 726 l 456 726 q 515 682 514 724 l 515 159 q 500 129 514 130 q 460 142 483 129 q 457 145 458 144 q 393 222 438 145 q 391 227 391 225 l 412 339 l 414 574 q 338 648 403 642 l 110 648 q 31 583 43 648 q 30 562 30 572 z "},"ල":{"ha":755,"x_min":30,"x_max":704,"o":"m 298 65 l 298 324 l 228 324 l 228 423 l 503 423 l 503 327 l 431 327 l 431 140 q 458 115 442 118 l 548 115 q 571 145 570 118 l 571 524 q 534 563 566 560 l 198 563 q 163 525 164 560 l 163 -39 q 193 -96 163 -88 q 220 -99 203 -99 l 704 -99 l 704 -221 l 125 -221 q 30 -123 31 -218 l 30 589 q 76 669 30 648 q 103 674 90 674 l 621 674 q 696 621 674 674 q 704 581 704 601 l 704 83 q 633 0 701 1 l 365 0 q 300 52 308 0 q 298 65 298 60 z "},"ළ":{"ha":750,"x_min":30,"x_max":701,"o":"m 163 326 q 176 357 164 349 l 176 129 q 232 73 176 84 q 255 71 244 71 l 699 71 l 699 197 l 275 197 q 237 232 239 199 l 237 361 l 701 361 l 701 604 q 623 674 693 670 l 454 674 q 406 646 422 673 q 359 674 392 673 l 182 674 q 109 598 110 671 l 109 454 q 34 391 47 449 q 30 362 30 377 l 30 -100 q 136 -206 33 -205 l 701 -206 l 701 -83 l 213 -83 q 163 -33 164 -77 l 163 326 m 567 461 l 456 461 l 456 543 q 481 572 458 571 l 541 572 q 567 543 566 570 l 567 461 m 236 461 l 236 541 q 263 572 239 571 l 324 572 q 349 543 347 570 l 349 461 l 236 461 z "},"ම":{"ha":699,"x_min":30,"x_max":648,"o":"m 551 848 l 30 848 l 30 732 l 471 732 q 514 708 509 732 q 515 690 515 700 l 515 149 q 487 115 513 117 l 190 115 q 163 148 164 118 l 163 212 l 353 212 q 422 273 416 212 q 423 290 423 281 l 423 568 q 343 637 420 636 l 113 637 q 33 579 45 637 q 30 559 30 570 l 30 77 q 102 0 33 1 l 572 0 q 648 80 647 3 l 648 739 q 595 842 648 826 q 551 848 576 848 m 163 498 q 191 528 165 526 l 270 528 q 297 502 296 525 l 297 345 q 274 320 294 321 l 163 320 l 163 498 z "},"ා":{"ha":313,"x_min":28,"x_max":269,"o":"m 28 674 l 213 674 q 269 617 267 671 l 269 52 q 213 0 266 1 l 28 0 l 28 115 l 113 115 q 136 141 134 118 l 136 541 q 113 564 133 563 l 28 564 l 28 674 z "},"ෑ":{"ha":336,"x_min":30,"x_max":290,"o":"m 30 674 l 290 674 l 290 570 l 170 484 l 290 484 l 290 392 l 187 286 q 163 217 163 259 l 163 141 q 170 117 163 118 q 186 115 176 115 l 290 115 l 290 0 l 71 0 q 30 49 30 0 l 30 220 q 60 305 31 274 l 146 384 l 30 384 l 30 480 l 140 564 l 30 564 l 30 674 z "},"ැ":{"ha":339,"x_min":30,"x_max":292,"o":"m 30 674 l 292 674 l 292 557 l 176 326 q 163 256 163 298 l 163 140 q 190 114 165 115 l 292 115 l 292 0 l 77 0 q 30 49 31 3 l 30 260 q 50 359 30 321 l 157 563 l 30 563 l 30 674 z "},"ෛ":{"ha":1024,"x_min":30,"x_max":979,"o":"m 457 674 l 102 674 q 31 620 41 674 q 30 604 30 612 l 30 62 q 92 0 33 1 l 395 0 q 464 66 458 9 l 464 373 q 392 441 461 439 l 243 441 l 243 334 l 300 334 q 331 301 328 323 l 331 142 q 302 115 328 117 l 189 115 q 163 142 164 121 l 163 532 q 197 563 174 560 l 457 563 l 457 674 m 972 674 l 617 674 q 547 620 556 674 q 545 604 545 612 l 545 62 q 608 0 548 1 l 910 0 q 979 66 974 9 l 979 373 q 907 441 977 439 l 758 441 l 758 334 l 815 334 q 846 301 844 323 l 846 142 q 818 115 844 117 l 704 115 q 678 142 680 121 l 678 532 q 712 563 689 560 l 972 563 l 972 674 z "},"ෞ":{"ha":1621,"x_min":30,"x_max":1497,"o":"m 457 674 l 102 674 q 31 620 41 674 q 30 604 30 612 l 30 62 q 92 0 33 1 l 395 0 q 464 66 458 9 l 464 373 q 392 441 461 439 l 243 441 l 243 334 l 300 334 q 331 301 328 323 l 331 142 q 302 115 328 117 l 189 115 q 163 142 164 121 l 163 532 q 197 563 174 560 l 457 563 l 457 674 m 1072 674 l 1072 376 q 1116 331 1074 332 l 1241 331 q 1308 378 1306 334 l 1308 538 q 1324 563 1309 562 l 1356 563 q 1373 541 1371 560 l 1373 141 q 1352 114 1370 115 l 1241 114 q 1217 141 1219 125 l 1217 224 l 1074 224 l 1074 64 q 1128 0 1080 4 l 1432 0 q 1496 46 1485 0 q 1497 62 1497 54 l 1497 618 q 1461 671 1497 658 q 1440 674 1450 674 l 1256 674 q 1218 639 1222 674 q 1217 618 1217 629 l 1217 471 q 1198 441 1215 442 l 1171 441 q 1154 456 1157 441 q 1154 469 1154 461 l 1154 674 l 1072 674 z "},"ෙ":{"ha":510,"x_min":30,"x_max":464,"o":"m 457 674 l 102 674 q 31 620 41 674 q 30 604 30 612 l 30 62 q 92 0 33 1 l 395 0 q 464 66 458 9 l 464 373 q 392 441 461 439 l 243 441 l 243 334 l 300 334 q 331 301 328 323 l 331 142 q 302 115 328 117 l 189 115 q 163 142 164 121 l 163 532 q 197 563 174 560 l 457 563 l 457 674 z "},"ේ":{"ha":1317,"x_min":30,"x_max":1213,"o":"m 457 674 l 102 674 q 31 620 41 674 q 30 604 30 612 l 30 62 q 92 0 33 1 l 395 0 q 464 66 458 9 l 464 373 q 392 441 461 439 l 243 441 l 243 334 l 300 334 q 331 301 328 323 l 331 142 q 302 115 328 117 l 189 115 q 163 142 164 121 l 163 532 q 197 563 174 560 l 457 563 l 457 674 m 1080 667 l 1080 880 l 1213 880 l 1213 583 q 1206 595 1211 586 q 1177 639 1185 631 q 1115 667 1141 666 l 1080 667 z "},"ි":{"ha":3,"x_min":-788,"x_max":-91,"o":"m -788 693 l -788 808 q -728 868 -785 867 l -146 868 q -91 810 -92 865 l -91 693 l -224 693 l -224 741 q -244 766 -229 765 l -636 766 q -655 741 -655 764 l -655 693 l -788 693 z "},"ී":{"ha":699,"x_min":-787,"x_max":-88,"o":"m -305 800 q -326 784 -326 800 l -326 765 q -305 747 -323 749 l -210 747 q -190 766 -191 750 l -190 783 q -213 800 -193 799 l -305 800 m -633 766 q -654 742 -652 764 l -654 693 l -787 693 l -787 808 q -727 868 -784 867 l -145 868 q -88 814 -90 865 l -88 739 q -129 699 -88 699 l -391 699 q -429 728 -427 700 l -429 755 q -426 766 -429 764 l -633 766 z "},"ෳ":{"ha":495,"x_min":24,"x_max":450,"o":"m 24 674 l 24 376 q 69 331 27 332 l 194 331 q 260 378 259 334 l 260 538 q 277 563 262 562 l 309 563 q 326 541 324 560 l 326 141 q 305 114 323 115 l 194 114 q 170 141 172 125 l 170 224 l 27 224 l 27 64 q 81 0 33 4 l 385 0 q 449 46 438 0 q 450 62 450 54 l 450 618 q 414 671 450 658 q 393 674 403 674 l 209 674 q 171 639 175 674 q 170 618 170 629 l 170 471 q 151 441 168 442 l 123 441 q 107 456 110 441 q 107 469 107 461 l 107 674 l 24 674 z "},"ෟ":{"ha":495,"x_min":24,"x_max":450,"o":"m 24 674 l 24 376 q 69 331 27 332 l 194 331 q 260 378 259 334 l 260 538 q 277 563 262 562 l 309 563 q 326 541 324 560 l 326 141 q 305 114 323 115 l 194 114 q 170 141 172 125 l 170 224 l 27 224 l 27 64 q 81 0 33 4 l 385 0 q 449 46 438 0 q 450 62 450 54 l 450 618 q 414 671 450 658 q 393 674 403 674 l 209 674 q 171 639 175 674 q 170 618 170 629 l 170 471 q 151 441 168 442 l 123 441 q 107 456 110 441 q 107 469 107 461 l 107 674 l 24 674 z "},"ො":{"ha":1337,"x_min":30,"x_max":1192,"o":"m 457 674 l 102 674 q 31 620 41 674 q 30 604 30 612 l 30 62 q 92 0 33 1 l 395 0 q 464 66 458 9 l 464 373 q 392 441 461 439 l 243 441 l 243 334 l 300 334 q 331 301 328 323 l 331 142 q 302 115 328 117 l 189 115 q 163 142 164 121 l 163 532 q 197 563 174 560 l 457 563 l 457 674 m 952 674 l 1137 674 q 1192 617 1191 671 l 1192 52 q 1137 0 1190 1 l 952 0 l 952 115 l 1036 115 q 1059 141 1058 118 l 1059 541 q 1035 564 1057 563 l 952 564 l 952 674 z "},"ෝ":{"ha":1400,"x_min":30,"x_max":1289,"o":"m 457 674 l 102 674 q 31 620 41 674 q 30 604 30 612 l 30 62 q 92 0 33 1 l 395 0 q 464 66 458 9 l 464 373 q 392 441 461 439 l 243 441 l 243 334 l 300 334 q 331 301 328 323 l 331 142 q 302 115 328 117 l 189 115 q 163 142 164 121 l 163 532 q 197 563 174 560 l 457 563 l 457 674 m 1048 674 l 1048 564 l 1131 564 q 1156 541 1154 562 l 1156 141 q 1131 115 1153 117 l 1048 115 l 1048 0 l 1233 0 q 1289 52 1287 3 l 1289 880 l 1156 880 l 1156 674 l 1048 674 z "},"ෘ":{"ha":469,"x_min":30,"x_max":422,"o":"m 30 674 l 355 674 q 422 610 420 671 l 422 0 l 313 0 l 297 54 q 231 0 275 1 l 80 0 q 30 57 31 3 l 30 380 q 76 437 30 430 q 87 438 83 438 l 289 438 l 289 532 q 278 562 289 557 q 259 563 270 563 l 30 563 l 30 674 m 289 331 l 183 331 q 163 307 164 326 l 163 137 q 184 115 171 117 l 240 115 q 289 184 288 118 l 289 331 z "},"ෲ":{"ha":926,"x_min":30,"x_max":876,"o":"m 30 674 l 355 674 q 422 610 420 671 l 422 0 l 313 0 l 297 54 q 231 0 275 1 l 80 0 q 30 57 31 3 l 30 380 q 76 437 30 430 q 87 438 83 438 l 289 438 l 289 532 q 278 562 289 557 q 259 563 270 563 l 30 563 l 30 674 m 289 331 l 183 331 q 163 307 164 326 l 163 137 q 184 115 171 117 l 240 115 q 289 184 288 118 l 289 331 m 486 674 l 810 674 q 876 610 875 671 l 876 0 l 769 0 l 753 54 q 686 0 730 1 l 536 0 q 486 57 487 3 l 486 380 q 543 438 494 433 l 745 438 l 745 532 q 730 562 745 559 q 713 563 723 563 l 486 563 l 486 674 m 745 331 l 637 331 q 618 307 620 328 l 618 137 q 639 115 627 117 l 696 115 q 745 184 743 118 l 745 331 z "},"ු":{"ha":3,"x_min":-677,"x_max":-62,"o":"m -62 -216 l -677 -216 l -677 -102 l -194 -102 l -194 38 l -123 38 q -62 91 -73 41 l -62 -216 z "},"ූ":{"ha":3,"x_min":-681,"x_max":-66,"o":"m -66 -216 l -189 -216 q -221 -183 -210 -193 q -270 -171 -240 -171 l -319 -171 q -372 -184 -343 -171 l -431 -208 q -513 -221 -468 -221 l -616 -221 q -681 -165 -680 -218 l -681 -39 l -556 -39 l -556 -94 q -533 -118 -553 -117 l -505 -118 q -433 -104 -469 -118 l -385 -85 q -321 -73 -354 -73 l -267 -73 q -213 -84 -228 -73 q -198 -98 -206 -90 l -198 27 l -118 27 q -66 84 -76 30 l -66 -216 z "},"ඹ":{"ha":699,"x_min":30,"x_max":648,"o":"m 163 499 q 191 528 165 526 l 260 528 q 288 503 286 525 l 288 461 q 264 437 285 438 l 163 437 l 163 499 m 30 73 q 73 1 30 9 q 91 0 81 0 l 269 0 q 327 38 311 0 q 332 64 332 52 l 332 164 q 308 197 332 180 q 304 199 305 199 q 282 228 285 214 l 282 241 q 298 255 283 255 l 380 255 q 395 241 393 252 l 395 227 q 393 219 395 222 q 389 212 392 216 q 385 208 387 209 q 380 203 384 206 l 374 199 q 346 164 347 182 l 346 64 q 384 5 346 22 q 410 0 397 0 l 586 0 q 646 45 637 0 q 648 73 648 58 l 648 739 q 595 842 648 826 q 551 848 576 848 l 30 848 l 30 732 l 471 732 q 514 708 509 732 q 515 690 515 700 l 515 146 q 491 115 513 117 l 426 115 q 403 133 404 118 l 403 152 q 425 180 404 170 q 456 210 453 194 q 457 217 457 214 l 457 273 q 423 308 454 307 l 254 308 q 220 273 221 305 l 220 217 q 251 182 220 197 l 252 180 q 275 152 274 164 l 275 133 q 251 115 274 115 l 184 115 q 163 146 164 118 l 163 363 l 343 363 q 412 420 406 363 q 414 441 414 430 l 414 568 q 334 637 411 636 l 113 637 q 33 583 47 637 q 30 560 30 571 l 30 73 z "},"න":{"ha":802,"x_min":30,"x_max":753,"o":"m 419 0 q 505 41 491 0 q 510 81 510 58 l 510 365 q 464 429 510 422 q 445 430 454 430 l 376 430 l 465 532 q 519 560 491 560 l 586 560 q 618 528 617 557 l 618 155 q 605 118 618 123 q 585 115 597 115 l 538 115 l 538 0 l 667 0 q 746 39 732 0 q 753 88 753 58 l 753 589 q 690 673 753 662 q 662 674 677 674 l 484 674 q 436 665 457 674 q 404 645 415 655 q 373 612 393 635 l 372 610 l 339 572 l 339 587 q 248 674 336 673 l 30 674 l 30 563 l 205 563 q 240 530 239 560 l 240 454 l 176 378 q 161 369 165 369 q 153 372 157 369 l 153 463 l 30 463 l 30 69 q 65 3 30 14 q 95 0 79 0 l 419 0 m 202 232 l 289 331 l 355 331 q 380 301 378 328 l 380 152 q 368 118 380 122 q 347 115 359 115 l 187 115 q 161 141 164 126 l 161 217 q 172 216 165 216 q 202 232 187 217 z "},"ඳ":{"ha":845,"x_min":30,"x_max":826,"o":"m 795 0 l 795 115 l 412 115 q 384 151 387 123 l 384 338 q 418 370 387 369 l 789 370 l 789 602 q 718 674 787 673 l 146 674 q 38 605 64 674 q 30 557 30 583 l 30 0 l 157 0 l 157 530 q 198 575 163 574 l 251 575 l 251 563 l 632 563 q 656 536 655 560 l 656 480 l 330 480 q 251 403 252 477 l 251 68 q 298 1 251 7 q 311 0 304 0 l 408 0 q 369 -73 372 -27 l 369 -171 q 439 -232 372 -231 l 826 -232 l 826 -118 l 536 -118 q 507 -92 509 -115 l 507 -50 q 563 0 510 -1 l 795 0 z "},"ඦ":{"ha":926,"x_min":30,"x_max":932,"o":"m 715 115 l 416 115 q 389 148 391 118 l 389 340 q 422 370 392 369 l 543 370 l 543 600 q 465 673 543 666 q 449 674 457 674 l 146 674 q 38 605 64 674 q 30 557 30 583 l 30 0 l 157 0 l 157 533 q 198 578 163 576 l 258 578 l 258 563 l 407 563 q 437 536 435 560 l 437 481 l 332 481 q 256 406 258 479 l 256 73 q 305 1 256 9 q 326 0 315 0 l 806 0 q 873 53 867 0 q 875 73 875 62 l 875 406 q 799 481 872 480 l 694 481 l 694 536 q 724 563 697 562 l 873 563 l 873 674 l 795 674 q 826 709 814 690 l 932 872 l 785 872 l 678 719 q 624 662 652 680 q 621 661 623 661 q 587 600 589 639 l 587 370 l 709 370 q 742 340 741 368 l 742 148 q 715 115 739 117 z "},"ඞ":{"ha":784,"x_min":11,"x_max":732,"o":"m 11 572 q 69 637 11 629 q 87 639 77 639 l 370 639 q 464 553 463 636 l 464 292 l 289 292 q 247 255 250 282 l 247 146 q 273 115 250 117 l 331 115 q 369 157 368 118 l 369 229 l 477 229 l 477 159 q 517 115 480 117 l 572 115 q 600 146 598 118 l 600 680 q 572 724 600 719 q 552 726 563 726 l 114 726 l 114 849 l 633 849 q 732 760 731 846 l 732 68 q 669 0 730 1 l 488 0 q 422 46 437 1 q 376 1 416 11 q 358 0 366 0 l 179 0 q 117 43 125 0 q 114 73 114 57 l 114 289 q 168 369 114 354 q 194 373 180 373 l 350 373 l 350 536 q 317 566 347 564 l 260 566 q 271 551 270 562 l 271 467 q 233 429 267 431 l 73 429 q 11 492 12 431 l 11 572 m 88 552 l 88 509 q 102 495 91 496 l 182 495 q 194 507 194 495 l 194 552 q 183 566 193 563 l 103 566 q 88 552 90 563 z "},"ණ":{"ha":1146,"x_min":30,"x_max":1096,"o":"m 186 534 q 225 567 189 566 l 315 567 l 186 388 l 186 534 m 503 0 q 601 102 600 3 l 601 521 q 640 563 604 562 l 680 563 q 718 515 716 560 l 718 245 l 837 245 l 837 518 q 873 563 841 560 l 930 563 q 962 543 959 563 q 963 524 963 534 l 963 153 q 944 117 963 121 q 930 115 937 115 l 656 115 l 656 0 l 997 0 q 1096 88 1090 12 l 1096 595 q 1013 674 1093 673 l 859 674 q 781 629 798 673 q 715 674 764 673 l 656 674 q 583 633 604 673 q 528 674 560 671 l 642 836 l 509 836 l 392 674 l 145 674 q 62 601 65 669 l 62 331 q 88 254 64 282 l 30 172 l 30 39 l 83 96 q 107 69 106 94 q 141 4 107 14 q 174 0 155 0 l 503 0 m 433 115 l 235 115 q 205 141 208 115 q 205 159 205 148 q 187 189 203 187 l 216 229 l 378 229 l 378 323 l 282 323 l 448 560 q 468 521 467 547 l 468 159 q 433 115 465 117 z "},"ඬ":{"ha":948,"x_min":30,"x_max":897,"o":"m 241 456 l 241 351 l 311 351 q 279 290 281 335 l 279 73 q 317 3 279 12 q 345 0 330 0 l 524 0 q 583 33 567 0 q 587 46 586 41 q 654 0 601 1 l 833 0 q 897 68 895 3 l 897 760 q 798 849 894 848 l 279 849 l 279 726 l 718 726 q 762 701 755 726 q 764 680 764 692 l 764 146 q 736 115 761 117 l 682 115 q 643 159 644 118 l 643 248 l 533 248 l 533 157 q 496 115 530 117 l 438 115 q 412 146 414 118 l 412 301 q 461 346 415 345 l 600 346 l 600 574 q 528 647 600 637 q 506 648 517 648 l 146 648 q 38 581 64 648 q 30 533 30 557 l 30 0 l 157 0 l 157 510 q 198 553 160 552 l 281 553 l 281 537 l 438 537 q 472 511 471 534 l 472 456 l 241 456 z "},"ඟ":{"ha":1031,"x_min":30,"x_max":977,"o":"m 487 674 l 146 674 q 38 605 64 674 q 30 557 30 583 l 30 0 l 157 0 l 157 522 q 198 567 163 566 l 254 567 l 254 72 q 292 3 254 12 q 319 0 302 0 l 601 0 q 686 41 673 0 q 692 81 692 58 l 692 342 q 655 389 689 388 l 643 389 l 669 532 q 708 560 678 559 l 811 560 q 844 526 842 557 l 844 156 q 830 118 844 122 q 808 115 822 115 l 762 115 l 762 0 l 891 0 q 970 38 956 0 q 977 87 977 57 l 977 589 q 914 673 977 662 q 886 674 901 674 l 655 674 q 557 605 570 674 l 507 308 l 540 308 q 562 281 560 305 l 562 152 q 548 117 562 121 q 528 115 540 115 l 412 115 q 387 146 388 118 l 387 514 q 412 562 387 556 q 430 563 420 563 l 487 563 l 487 674 z "},"ඤ":{"ha":1375,"x_min":30,"x_max":1356,"o":"m 1325 0 l 1325 115 l 944 115 q 914 151 917 126 l 914 338 q 948 370 917 369 l 1320 370 l 1320 602 q 1248 674 1317 673 l 681 674 q 591 659 631 674 q 552 636 567 647 l 503 601 l 503 617 q 461 673 503 666 q 450 674 456 674 l 146 674 q 38 605 64 674 q 30 557 30 583 l 30 0 l 157 0 l 157 534 q 198 579 163 578 l 251 579 l 251 563 l 369 563 q 403 537 401 560 l 403 514 l 231 365 l 231 285 l 278 285 q 244 197 244 260 l 244 66 q 305 0 247 1 l 435 0 q 487 35 475 0 q 488 39 488 38 q 538 0 498 1 l 658 0 q 728 57 722 0 q 730 71 730 65 l 730 411 q 661 486 726 483 l 536 486 l 583 524 q 637 556 612 545 q 699 563 658 563 l 1162 563 q 1187 536 1185 560 l 1187 480 l 861 480 q 783 403 784 477 l 783 68 q 830 1 783 7 q 842 0 836 0 l 940 0 q 901 -73 903 -27 l 901 -171 q 971 -232 903 -231 l 1356 -232 l 1356 -118 l 1067 -118 q 1038 -92 1039 -115 l 1038 -50 q 1093 0 1042 -3 l 1325 0 m 612 357 l 612 151 q 589 115 610 117 l 556 115 q 528 145 530 115 q 528 159 528 151 l 528 256 l 448 256 l 448 157 q 426 117 448 121 q 416 115 420 115 l 385 115 q 365 144 366 126 l 365 232 q 392 305 366 288 l 391 330 l 354 330 l 419 385 l 587 385 q 612 357 610 382 z "},"ඕ":{"ha":699,"x_min":19,"x_max":648,"o":"m 648 543 l 648 644 q 606 746 648 727 q 555 754 585 754 l 255 754 q 205 796 206 757 q 237 821 208 819 l 646 821 l 646 913 l 134 913 q 68 857 69 910 l 68 808 q 122 746 71 760 l 19 746 l 19 651 l 476 651 q 514 627 511 651 q 515 616 515 621 l 515 146 q 487 115 513 117 l 433 115 q 393 159 395 118 l 393 233 l 283 233 l 283 157 q 247 115 281 117 l 191 115 q 163 145 164 121 l 163 445 q 183 467 165 465 l 217 467 q 231 453 229 464 l 231 346 q 278 305 233 307 l 393 305 q 446 353 445 308 l 446 578 l 365 578 l 365 418 q 350 400 362 401 l 319 400 q 304 419 304 403 l 304 530 q 248 578 301 576 l 110 578 q 30 490 31 575 l 30 65 q 94 0 33 1 l 274 0 q 335 34 320 0 q 338 46 336 41 q 404 0 351 1 l 583 0 q 647 69 646 3 l 647 543 l 648 543 z "},"ඔ":{"ha":699,"x_min":30,"x_max":647,"o":"m 393 336 l 278 336 q 231 377 232 339 l 231 498 q 217 511 228 510 l 184 511 q 163 487 164 509 l 163 145 q 191 115 168 117 l 247 115 q 283 157 282 118 l 283 259 l 393 259 l 393 159 q 433 115 396 117 l 487 115 q 515 146 514 118 l 515 680 q 488 724 515 719 q 468 726 479 726 l 30 726 l 30 849 l 548 849 q 647 760 646 846 l 647 68 q 583 0 644 1 l 404 0 q 338 46 350 1 q 292 1 332 11 q 274 0 282 0 l 94 0 q 30 65 31 3 l 30 534 q 110 623 33 621 l 248 623 q 304 575 302 620 l 304 463 q 319 445 307 446 l 350 445 q 365 463 365 448 l 365 623 l 446 623 l 446 384 q 393 336 444 338 z "},"ප":{"ha":694,"x_min":30,"x_max":648,"o":"m 30 73 l 30 406 q 106 481 33 480 l 210 481 l 210 536 q 180 563 208 562 l 31 563 l 31 674 l 222 674 q 316 600 308 663 l 316 370 l 195 370 q 163 340 164 368 l 163 148 q 190 115 165 117 l 488 115 q 515 148 514 118 l 515 340 q 483 370 513 369 l 361 370 l 361 600 q 433 673 361 663 q 454 674 444 674 l 647 674 l 647 563 l 498 563 q 468 536 469 560 l 468 481 l 572 481 q 648 406 647 479 l 648 73 q 600 1 648 9 q 579 0 590 0 l 99 0 q 31 53 38 0 q 30 73 30 62 z "},"ඵ":{"ha":699,"x_min":30,"x_max":648,"o":"m 385 753 l 486 753 q 513 723 513 750 l 513 658 l 415 658 q 387 671 391 658 q 385 685 385 677 l 385 753 m 98 0 l 579 0 q 647 53 640 0 q 648 73 648 62 l 648 758 q 602 844 648 830 q 559 849 585 849 l 195 849 l 195 754 l 266 754 l 266 643 q 301 582 266 590 q 328 579 313 579 l 515 579 l 515 148 q 490 115 513 117 l 187 115 q 163 146 164 118 l 163 256 q 194 286 165 285 l 353 286 l 353 486 q 271 562 350 560 l 30 562 l 30 458 l 194 458 q 220 437 218 456 l 220 377 l 106 377 q 30 302 31 374 l 30 73 q 75 1 30 11 q 98 0 85 0 z "},"ර":{"ha":627,"x_min":30,"x_max":574,"o":"m 30 578 q 85 675 31 635 l 354 879 l 544 879 l 275 674 l 490 674 q 574 594 571 669 l 574 71 q 509 0 566 4 l 91 0 q 30 65 31 3 l 30 578 m 163 517 l 163 160 q 189 117 163 121 q 201 115 194 115 l 404 115 q 439 137 434 115 q 441 157 441 146 l 441 522 q 401 563 433 560 l 205 563 q 163 517 167 552 z "},"ස":{"ha":765,"x_min":-8,"x_max":715,"o":"m 30 315 l 30 73 q 75 1 30 11 q 98 0 85 0 l 301 0 q 366 37 346 0 q 373 58 372 47 q 419 4 376 19 q 444 0 431 0 l 647 0 q 713 47 705 0 q 715 73 715 60 l 715 403 q 631 481 704 477 l 502 481 l 502 537 q 536 563 505 562 l 713 563 l 713 674 l 488 674 q 396 614 407 674 q 395 600 395 606 l 395 370 l 551 370 q 582 346 581 368 l 582 146 q 556 115 579 117 l 479 115 q 433 164 434 118 l 433 248 l 312 248 l 312 164 q 267 115 309 117 l 187 115 q 163 146 164 118 l 163 327 q 212 370 165 369 l 350 370 l 350 600 q 278 673 350 663 q 256 674 267 674 l 31 674 l 31 563 l 210 563 q 243 537 241 560 l 243 481 l -8 481 l -8 377 l 61 377 q 30 315 31 361 z "},"ශ":{"ha":803,"x_min":30,"x_max":753,"o":"m 579 104 l 492 104 l 492 0 l 667 0 q 746 38 732 0 q 753 87 753 57 l 753 589 q 690 673 753 662 q 662 674 677 674 l 411 674 q 313 605 326 674 l 263 308 l 296 308 q 317 281 316 305 l 317 152 q 304 117 317 121 q 283 115 296 115 l 189 115 q 163 146 164 118 l 163 528 q 180 562 163 557 q 197 563 187 563 l 255 563 l 255 674 l 109 674 q 31 609 39 674 q 30 594 30 601 l 30 81 q 99 0 33 1 l 357 0 q 442 39 427 0 q 448 81 448 57 l 448 342 q 411 389 445 388 l 399 389 l 425 532 q 464 560 433 559 l 590 560 q 623 526 621 557 l 623 426 l 552 426 q 492 372 494 423 l 492 222 q 579 104 494 130 m 631 339 l 631 144 q 562 227 563 167 l 562 324 q 574 339 564 338 l 631 339 z "},"ෂ":{"ha":694,"x_min":30,"x_max":648,"o":"m 30 73 q 79 1 30 9 q 99 0 88 0 l 579 0 q 647 53 640 0 q 648 73 648 62 l 648 400 q 610 468 647 453 l 629 487 q 648 537 648 507 l 648 608 q 597 673 648 665 q 585 674 590 674 l 438 674 q 346 614 357 674 q 345 600 345 606 l 345 370 l 400 370 l 297 282 q 271 216 271 260 l 271 168 l 395 168 l 395 208 q 418 266 396 244 l 513 357 q 515 340 515 347 l 515 148 q 488 115 513 117 l 190 115 q 163 148 164 118 l 163 340 q 195 370 165 369 l 304 370 l 304 600 q 227 673 304 666 q 210 674 218 674 l 31 674 l 31 563 l 168 563 q 198 536 197 560 l 198 481 l 106 481 q 30 406 31 479 l 30 73 m 450 475 l 450 536 q 480 563 453 562 l 534 563 q 553 538 553 560 q 533 499 552 518 l 506 475 l 450 475 z "},"ත":{"ha":803,"x_min":16,"x_max":753,"o":"m 380 355 q 355 384 377 382 l 203 384 l 138 328 l 189 328 l 189 304 q 161 231 161 286 l 161 144 q 183 114 170 117 l 357 114 q 380 149 378 122 l 380 355 m 289 601 l 339 644 q 426 674 376 674 l 674 674 q 750 623 736 674 q 753 601 753 612 l 753 69 q 694 1 753 9 q 680 0 686 0 l 538 0 l 538 114 l 595 115 q 618 144 617 118 l 618 533 q 586 563 616 562 l 442 563 q 387 541 411 562 l 320 486 l 441 486 q 510 411 506 477 l 510 69 q 452 1 510 8 q 438 0 445 0 l 90 0 q 30 66 31 3 l 30 197 q 64 283 31 264 l 16 283 l 16 365 q 189 513 18 366 l 187 537 q 153 563 184 562 l 37 563 l 37 674 l 236 674 q 289 617 283 666 l 289 601 z "},"ථ":{"ha":697,"x_min":30,"x_max":648,"o":"m 385 753 l 486 753 q 513 723 513 750 l 513 658 l 415 658 q 387 671 391 658 q 385 685 385 677 l 385 753 m 321 420 l 321 534 l 106 534 q 30 460 31 532 l 30 73 q 75 1 30 11 q 98 0 85 0 l 579 0 q 647 53 640 0 q 648 73 648 62 l 648 758 q 602 844 648 830 q 559 849 585 849 l 195 849 l 195 754 l 266 754 l 266 643 q 301 582 266 590 q 328 579 313 579 l 514 579 l 514 148 q 488 115 511 117 l 187 115 q 163 146 164 118 l 163 391 q 194 420 165 419 l 321 420 z "},"ට":{"ha":699,"x_min":30,"x_max":648,"o":"m 339 514 l 339 628 l 106 628 q 30 553 31 625 l 30 73 q 75 1 30 11 q 98 0 85 0 l 579 0 q 647 53 640 0 q 648 73 648 62 l 648 739 q 595 842 648 826 q 551 848 576 848 l 30 848 l 30 732 l 471 732 q 514 708 509 732 q 515 690 515 700 l 515 148 q 488 115 513 117 l 187 115 q 163 146 164 118 l 163 484 q 194 514 165 513 l 339 514 z "},"ඨ":{"ha":699,"x_min":30,"x_max":648,"o":"m 385 753 l 487 753 q 514 723 514 750 l 514 658 l 415 658 q 387 671 391 658 q 385 685 385 677 l 385 753 m 274 0 q 332 35 316 0 q 338 50 336 43 q 404 0 354 1 l 585 0 q 648 68 647 3 l 648 758 q 602 844 648 830 q 559 849 585 849 l 195 849 l 195 754 l 266 754 l 266 643 q 301 582 266 590 q 328 579 313 579 l 515 579 l 515 145 q 490 115 513 117 l 434 115 q 393 168 395 118 l 393 292 l 283 292 l 283 167 q 244 115 281 117 l 190 115 q 163 144 164 118 l 163 378 q 186 401 165 400 l 347 401 l 347 517 l 110 517 q 30 429 31 514 l 30 65 q 94 0 33 1 l 274 0 z "},"උ":{"ha":707,"x_min":30,"x_max":663,"o":"m 126 674 l 571 674 q 659 594 658 671 l 659 370 l 212 370 q 167 354 172 370 q 163 324 163 343 l 163 -49 q 179 -87 163 -83 q 198 -90 187 -90 l 500 -90 q 530 -60 529 -85 l 530 133 l 663 133 l 663 -125 q 605 -206 663 -198 q 583 -208 594 -208 l 103 -208 q 30 -117 31 -205 l 30 382 q 130 480 33 479 l 526 480 l 526 536 q 498 563 524 562 l 126 563 l 126 674 z "},"ඌ":{"ha":1206,"x_min":30,"x_max":1177,"o":"m 126 674 l 571 674 q 659 594 658 671 l 659 370 l 212 370 q 167 354 172 370 q 163 324 163 343 l 163 -49 q 179 -87 163 -83 q 198 -90 187 -90 l 500 -90 q 530 -60 529 -85 l 530 133 l 663 133 l 663 -125 q 605 -206 663 -198 q 583 -208 594 -208 l 103 -208 q 30 -117 31 -205 l 30 382 q 130 480 33 479 l 526 480 l 526 536 q 498 563 524 562 l 126 563 l 126 674 m 751 674 l 751 376 q 796 331 754 332 l 921 331 q 987 378 986 334 l 987 538 q 1005 563 989 562 l 1036 563 q 1053 541 1051 560 l 1053 141 q 1032 114 1050 115 l 921 114 q 897 141 899 125 l 897 224 l 754 224 l 754 64 q 808 0 760 4 l 1112 0 q 1176 46 1165 0 q 1177 62 1177 54 l 1177 618 q 1141 671 1177 658 q 1120 674 1131 674 l 937 674 q 897 633 901 674 q 897 618 897 627 l 897 471 q 878 441 892 442 l 850 441 q 834 456 837 441 q 834 469 834 461 l 834 674 l 751 674 z "},"ව":{"ha":699,"x_min":30,"x_max":648,"o":"m 551 848 l 30 848 l 30 732 l 471 732 q 514 708 509 732 q 515 690 515 700 l 515 148 q 488 115 513 117 l 187 115 q 163 146 164 118 l 163 326 q 194 355 165 354 l 353 355 l 353 572 q 271 648 350 647 l 30 648 l 30 537 l 194 537 q 220 517 218 534 l 220 457 l 106 457 q 30 382 31 454 l 30 73 q 75 1 30 11 q 98 0 85 0 l 579 0 q 647 53 640 0 q 648 73 648 62 l 648 739 q 595 842 648 826 q 551 848 576 848 z "},"ය":{"ha":765,"x_min":30,"x_max":715,"o":"m 311 674 l 311 563 l 193 563 q 163 526 164 560 l 163 145 q 187 115 165 117 l 267 115 q 312 164 311 118 l 312 248 l 433 248 l 433 164 q 479 115 435 117 l 556 115 q 582 146 581 118 l 582 346 q 551 370 579 369 l 366 370 l 366 593 q 460 674 369 673 l 713 674 l 713 563 l 524 563 q 490 537 491 560 l 490 481 l 631 481 q 715 403 711 473 l 715 73 q 670 1 715 11 q 647 0 659 0 l 444 0 q 381 34 401 0 q 373 58 374 46 q 326 4 369 19 q 301 0 312 0 l 98 0 q 31 47 39 0 q 30 73 30 58 l 30 594 q 106 674 33 673 l 311 674 z "},"෴":{"ha":2493,"x_min":57,"x_max":2433,"o":"m 206 285 l 271 175 l 227 149 l 247 114 q 275 117 255 104 l 453 216 q 532 218 500 241 q 552 203 533 218 l 662 350 q 697 353 681 370 q 701 346 700 349 l 734 292 l 875 445 q 910 445 892 463 q 918 433 916 439 l 954 354 l 1097 505 q 1134 506 1116 522 q 1141 492 1139 499 l 1183 372 l 1340 532 q 1375 533 1360 549 q 1381 521 1379 528 l 1409 350 l 1575 471 q 1617 468 1605 491 q 1621 445 1622 457 l 1626 297 l 1770 385 q 1811 377 1801 399 q 1812 358 1815 369 l 1815 240 l 1929 312 q 1965 307 1956 324 q 1967 286 1969 297 l 1963 208 q 1987 214 1983 214 q 2043 209 2016 224 l 2214 111 q 2245 110 2238 100 l 2264 146 l 2222 172 l 2284 281 l 2406 206 q 2416 155 2433 190 q 2413 151 2414 152 l 2336 15 q 2256 -8 2307 -22 q 2238 -1 2246 -5 l 2033 111 q 1967 118 1998 130 l 1830 57 l 1841 164 l 1667 69 l 1675 224 l 1497 118 l 1488 281 l 1303 145 l 1272 336 l 1104 175 l 1055 327 l 887 159 l 842 275 l 694 121 l 659 183 l 576 81 l 514 126 q 458 121 494 140 l 247 3 q 170 4 203 -22 q 156 19 161 11 l 79 155 q 83 210 58 191 q 85 212 84 212 l 206 285 z "},"ඏ":{"ha":1171,"x_min":30,"x_max":1128,"o":"m 1024 178 l 1024 132 q 1004 110 1021 111 l 948 110 q 933 123 935 113 l 933 186 q 949 201 936 199 l 998 201 q 1024 178 1023 198 m 888 406 q 812 481 886 480 l 708 481 l 708 536 q 738 563 711 562 l 887 563 l 887 674 l 842 674 l 842 701 q 875 726 845 724 l 978 726 q 1021 684 1020 723 l 1021 278 q 1002 286 1015 286 l 933 286 q 888 274 906 286 l 888 406 m 819 0 q 884 38 872 1 q 939 19 905 19 l 1055 19 q 1128 106 1127 22 l 1128 715 q 1067 808 1128 785 q 1021 815 1046 815 l 831 815 q 743 765 755 815 q 741 730 741 750 l 741 674 l 694 674 q 602 614 613 674 q 601 600 601 606 l 601 370 l 723 370 q 755 340 754 368 l 755 148 q 728 115 753 117 l 430 115 q 403 148 404 118 l 403 340 q 435 370 406 369 l 556 370 l 556 600 q 479 673 556 666 q 463 674 471 674 l 418 674 l 418 730 q 376 808 418 795 q 327 815 355 815 l 137 815 q 34 747 54 815 q 30 715 30 731 l 30 106 q 103 19 33 20 l 220 19 q 274 38 255 20 q 339 0 288 0 l 819 0 m 136 178 q 160 201 138 199 l 209 201 q 227 186 225 199 l 227 123 q 210 110 224 111 l 155 110 q 136 132 137 113 l 136 178 m 270 406 l 270 274 q 225 286 252 286 l 156 286 q 137 279 144 286 l 137 684 q 182 726 140 724 l 285 726 q 316 701 315 723 l 316 674 l 271 674 l 271 563 l 420 563 q 450 536 449 560 l 450 481 l 346 481 q 270 406 271 479 z "},"ඐ":{"ha":1662,"x_min":30,"x_max":1600,"o":"m 1024 178 l 1024 132 q 1004 110 1021 111 l 948 110 q 933 123 935 113 l 933 186 q 949 201 936 199 l 998 201 q 1024 178 1023 198 m 888 406 q 812 481 886 480 l 708 481 l 708 536 q 738 563 711 562 l 887 563 l 887 674 l 842 674 l 842 701 q 875 726 845 724 l 978 726 q 1021 684 1020 723 l 1021 278 q 1002 286 1015 286 l 933 286 q 888 274 906 286 l 888 406 m 819 0 q 884 38 872 1 q 939 19 905 19 l 1055 19 q 1128 106 1127 22 l 1128 715 q 1067 808 1128 785 q 1021 815 1046 815 l 831 815 q 743 765 755 815 q 741 730 741 750 l 741 674 l 694 674 q 602 614 613 674 q 601 600 601 606 l 601 370 l 723 370 q 755 340 754 368 l 755 148 q 728 115 753 117 l 430 115 q 403 148 404 118 l 403 340 q 435 370 406 369 l 556 370 l 556 600 q 479 673 556 666 q 463 674 471 674 l 418 674 l 418 730 q 376 808 418 795 q 327 815 355 815 l 137 815 q 34 747 54 815 q 30 715 30 731 l 30 106 q 103 19 33 20 l 220 19 q 274 38 255 20 q 339 0 288 0 l 819 0 m 136 178 q 160 201 138 199 l 209 201 q 227 186 225 199 l 227 123 q 210 110 224 111 l 155 110 q 136 132 137 113 l 136 178 m 270 406 l 270 274 q 225 286 252 286 l 156 286 q 137 279 144 286 l 137 684 q 182 726 140 724 l 285 726 q 316 701 315 723 l 316 674 l 271 674 l 271 563 l 420 563 q 450 536 449 560 l 450 481 l 346 481 q 270 406 271 479 m 1194 674 l 1194 376 q 1238 331 1196 332 l 1340 331 q 1397 378 1396 334 l 1397 538 q 1415 564 1398 563 l 1450 564 q 1466 541 1465 562 l 1466 141 q 1446 114 1463 115 l 1350 114 q 1326 141 1329 125 l 1326 224 l 1194 224 l 1194 64 q 1248 0 1199 4 l 1535 0 q 1599 46 1588 0 q 1600 62 1600 54 l 1600 618 q 1564 671 1600 658 q 1544 674 1553 674 l 1392 674 q 1341 618 1343 671 l 1341 471 q 1322 441 1340 442 l 1293 441 q 1276 456 1279 441 q 1276 469 1276 463 l 1276 674 l 1194 674 z "},"ඍ":{"ha":1233,"x_min":30,"x_max":1185,"o":"m 795 674 l 795 563 l 1023 563 q 1051 551 1048 563 q 1053 532 1053 544 l 1053 438 l 852 438 q 795 380 800 427 l 795 57 q 845 0 798 1 l 994 0 q 1062 54 1040 1 l 1078 0 l 1185 0 l 1185 610 q 1119 674 1183 673 l 795 674 m 1053 331 l 1053 184 q 1005 115 1051 117 l 948 115 q 928 137 929 123 l 928 307 q 947 331 930 330 l 1053 331 m 372 58 q 419 4 376 19 q 444 0 433 0 l 647 0 q 713 47 705 0 q 715 73 715 60 l 715 403 q 631 481 704 477 l 500 481 l 500 537 q 536 563 503 562 l 713 563 l 713 674 l 488 674 q 396 614 407 674 q 395 600 395 606 l 395 370 l 551 370 q 582 346 581 368 l 582 146 q 556 115 579 117 l 479 115 q 433 164 434 118 l 433 248 l 312 248 l 312 164 q 267 115 309 117 l 187 115 q 163 146 164 118 l 163 346 q 194 370 165 369 l 349 370 l 349 600 q 271 673 349 666 q 255 674 263 674 l 31 674 l 31 563 l 209 563 q 243 537 241 560 l 243 481 l 114 481 q 30 403 34 473 l 30 73 q 75 1 30 11 q 98 0 85 0 l 301 0 q 363 34 343 0 q 372 58 370 46 z "},"ඎ":{"ha":1686,"x_min":30,"x_max":1634,"o":"m 1242 674 l 1242 563 l 1472 563 q 1500 551 1497 563 q 1501 532 1501 544 l 1501 438 l 1301 438 q 1244 393 1251 438 q 1242 380 1242 387 l 1242 57 q 1293 0 1245 1 l 1443 0 q 1511 53 1489 1 l 1527 0 l 1634 0 l 1634 610 q 1568 674 1632 673 l 1242 674 m 1501 331 l 1501 183 q 1454 114 1500 115 l 1397 114 q 1375 137 1377 122 l 1375 307 q 1396 331 1378 330 l 1501 331 m 788 674 l 788 563 l 1016 563 q 1044 551 1042 563 q 1046 532 1046 544 l 1046 438 l 845 438 q 788 380 793 427 l 788 57 q 838 0 791 1 l 987 0 q 1055 53 1034 1 l 1072 0 l 1179 0 l 1179 610 q 1112 674 1176 673 l 788 674 m 1046 331 l 1046 183 q 998 114 1044 115 l 941 114 q 921 137 922 122 l 921 307 q 940 331 924 330 l 1046 331 m 372 58 q 419 4 376 19 q 444 0 433 0 l 647 0 q 713 47 705 0 q 715 73 715 60 l 715 403 q 631 481 704 477 l 500 481 l 500 537 q 536 563 503 562 l 713 563 l 713 674 l 488 674 q 396 614 407 674 q 395 600 395 606 l 395 370 l 551 370 q 582 346 581 368 l 582 146 q 556 115 579 117 l 479 115 q 433 164 434 118 l 433 248 l 312 248 l 312 164 q 267 115 309 117 l 187 115 q 163 146 164 118 l 163 346 q 194 370 165 369 l 349 370 l 349 600 q 271 673 349 666 q 255 674 263 674 l 31 674 l 31 563 l 209 563 q 243 537 241 560 l 243 481 l 114 481 q 30 403 34 473 l 30 73 q 75 1 30 11 q 98 0 85 0 l 301 0 q 363 34 343 0 q 372 58 370 46 z "},"/":{"ha":598,"x_min":18,"x_max":589,"o":"m 441 916 l 18 -130 l 168 -130 l 589 916 l 441 916 z "}," ":{"ha":271,"x_min":0,"x_max":0,"o":""},"£":{"ha":593,"x_min":52,"x_max":555,"o":"m 555 0 l 555 140 l 255 140 q 290 213 290 159 l 290 363 l 496 363 l 496 479 l 290 479 l 290 659 q 307 675 293 674 l 544 675 l 544 819 l 342 819 q 130 631 132 817 l 130 479 l 52 479 l 52 363 l 130 363 l 130 157 q 113 140 127 141 l 52 140 l 52 0 l 555 0 z "},"∑":{"ha":593,"x_min":24,"x_max":557,"o":"m 24 0 l 557 0 l 557 140 l 212 140 l 407 446 l 232 722 l 557 722 l 557 861 l 37 861 l 37 746 l 237 439 l 24 115 l 24 0 z "},"t":{"ha":419,"x_min":31,"x_max":411,"o":"m 411 665 l 258 665 l 258 834 l 104 834 l 104 665 l 31 665 l 31 545 l 104 545 l 104 179 q 203 14 104 46 q 307 0 245 0 l 411 0 l 411 129 l 274 129 q 258 145 258 129 l 258 545 l 411 545 l 411 665 z "},"ť":{"ha":442,"x_min":31,"x_max":437,"o":"m 411 665 l 258 665 l 258 834 l 104 834 l 104 665 l 31 665 l 31 545 l 104 545 l 104 179 q 203 14 104 46 q 307 0 245 0 l 411 0 l 411 129 l 274 129 q 258 145 258 129 l 258 545 l 411 545 l 411 665 m 315 840 l 357 840 q 316 735 351 788 l 358 701 q 437 861 435 780 l 437 979 l 315 979 l 315 840 z "},"þ":{"ha":636,"x_min":77,"x_max":578,"o":"m 231 -258 l 231 -1 l 395 -3 q 559 62 525 -4 q 578 161 578 99 l 578 521 q 492 667 578 640 q 414 677 460 677 l 353 677 q 231 593 254 675 l 229 916 l 77 916 l 77 -258 l 231 -258 m 231 536 q 247 552 231 552 l 410 552 q 426 536 425 549 l 426 138 q 410 122 423 123 l 231 123 l 231 536 z "},"¾":{"ha":1146,"x_min":34,"x_max":1109,"o":"m 407 457 l 407 515 q 350 608 406 583 q 403 694 401 633 l 403 745 q 286 867 403 860 q 269 867 277 867 l 37 863 l 37 760 l 262 760 q 273 747 271 757 l 273 669 q 262 658 270 659 l 85 658 l 85 557 l 266 557 q 277 547 275 555 l 277 453 q 266 441 274 442 l 34 441 l 34 338 l 271 335 q 407 457 404 340 m 749 873 l 264 -12 l 391 -12 l 873 873 l 749 873 m 1025 0 l 1025 110 l 1109 110 l 1109 213 l 1025 213 l 1025 526 l 892 529 q 807 495 834 530 q 780 452 796 481 l 632 191 l 632 110 l 899 110 l 899 0 l 1025 0 m 876 415 q 888 423 884 423 l 899 423 l 899 213 l 758 213 l 876 415 z "},"³":{"ha":487,"x_min":34,"x_max":407,"o":"m 407 457 l 407 515 q 350 608 406 583 q 403 694 401 633 l 403 745 q 286 867 403 860 q 269 867 277 867 l 37 863 l 37 760 l 262 760 q 273 747 271 757 l 273 669 q 262 658 270 659 l 85 658 l 85 557 l 266 557 q 277 547 275 555 l 277 453 q 266 441 274 442 l 34 441 l 34 338 l 271 335 q 407 457 404 340 z "},"˜":{"ha":568,"x_min":79,"x_max":481,"o":"m 172 773 q 205 827 174 826 q 288 798 221 827 q 377 774 342 774 q 481 933 480 777 l 387 933 q 359 882 387 886 q 350 880 354 880 q 263 909 330 880 q 175 932 210 932 q 87 859 104 932 q 79 774 79 825 l 172 773 z "},"™":{"ha":929,"x_min":18,"x_max":868,"o":"m 802 873 l 765 873 l 632 624 l 518 838 q 483 872 502 868 q 464 873 475 873 l 397 873 l 397 335 l 507 335 l 507 658 l 594 492 l 656 492 l 750 669 l 750 335 l 868 335 l 868 811 q 802 873 863 871 m 252 335 l 252 774 l 362 774 l 362 873 l 18 873 l 18 774 l 129 774 l 129 335 l 252 335 z "},"²":{"ha":465,"x_min":47,"x_max":419,"o":"m 47 502 l 47 338 l 416 338 l 416 441 l 178 441 l 178 486 q 193 511 179 505 l 343 583 q 415 651 406 612 q 419 681 419 665 l 419 750 q 302 867 419 867 q 300 867 301 867 l 62 863 l 62 760 l 278 760 q 289 747 288 757 l 289 697 q 277 682 286 688 l 121 606 q 57 555 69 582 q 47 502 47 533 z "},"u":{"ha":633,"x_min":60,"x_max":562,"o":"m 286 -12 q 412 84 393 -11 l 425 0 l 562 0 l 560 665 l 407 665 l 408 113 l 229 113 q 213 129 213 113 l 213 665 l 60 665 l 60 144 q 145 -3 60 24 q 224 -12 178 -12 l 286 -12 z "},"ú":{"ha":633,"x_min":60,"x_max":562,"o":"m 286 -12 q 412 84 393 -11 l 425 0 l 562 0 l 560 665 l 407 665 l 408 113 l 229 113 q 213 129 213 113 l 213 665 l 60 665 l 60 144 q 145 -3 60 24 q 224 -12 178 -12 l 286 -12 m 244 749 l 330 958 l 484 956 l 355 749 l 244 749 z "},"û":{"ha":633,"x_min":60,"x_max":562,"o":"m 286 -12 q 412 84 393 -11 l 425 0 l 562 0 l 560 665 l 407 665 l 408 113 l 229 113 q 213 129 213 113 l 213 665 l 60 665 l 60 144 q 145 -3 60 24 q 224 -12 178 -12 l 286 -12 m 382 951 l 227 951 l 94 749 l 217 749 l 304 880 l 380 749 l 509 749 l 382 951 z "},"ü":{"ha":633,"x_min":60,"x_max":562,"o":"m 286 -12 q 412 84 393 -11 l 425 0 l 562 0 l 560 665 l 407 665 l 408 113 l 229 113 q 213 129 213 113 l 213 665 l 60 665 l 60 144 q 145 -3 60 24 q 224 -12 178 -12 l 286 -12 m 250 774 l 250 916 l 118 916 l 118 774 l 250 774 m 498 774 l 498 916 l 366 916 l 366 774 l 498 774 z "},"ù":{"ha":633,"x_min":60,"x_max":562,"o":"m 286 -12 q 412 84 393 -11 l 425 0 l 562 0 l 560 665 l 407 665 l 408 113 l 229 113 q 213 129 213 113 l 213 665 l 60 665 l 60 144 q 145 -3 60 24 q 224 -12 178 -12 l 286 -12 m 127 956 l 281 958 l 369 749 l 263 749 l 127 956 z "},"ű":{"ha":633,"x_min":60,"x_max":591,"o":"m 286 -12 q 412 84 393 -11 l 425 0 l 562 0 l 560 665 l 407 665 l 408 113 l 229 113 q 213 129 213 113 l 213 665 l 60 665 l 60 144 q 145 -3 60 24 q 224 -12 178 -12 l 286 -12 m 144 749 l 227 958 l 374 956 l 252 749 l 144 749 m 353 749 l 439 958 l 591 956 l 461 749 l 353 749 z "},"ū":{"ha":633,"x_min":60,"x_max":562,"o":"m 286 -12 q 412 84 393 -11 l 425 0 l 562 0 l 560 665 l 407 665 l 408 113 l 229 113 q 213 129 213 113 l 213 665 l 60 665 l 60 144 q 145 -3 60 24 q 224 -12 178 -12 l 286 -12 m 487 888 l 121 888 l 121 779 l 487 779 l 487 888 z "},"_":{"ha":610,"x_min":27,"x_max":583,"o":"m 583 -54 l 27 -54 l 27 -149 l 583 -149 l 583 -54 z "}," ":{"ha":248,"x_min":0,"x_max":0,"o":""},"­":{"ha":439,"x_min":38,"x_max":401,"o":"m 401 453 l 38 453 l 38 328 l 401 328 l 401 453 z "},"µ":{"ha":633,"x_min":60,"x_max":562,"o":"m 210 -258 l 198 14 q 267 -12 221 -12 l 316 -12 q 412 81 396 -9 l 425 0 l 562 0 l 560 665 l 407 665 l 408 113 l 229 113 q 213 129 213 113 l 213 665 l 60 665 l 60 -258 l 210 -258 z "},"Ģ":{"ha":736,"x_min":79,"x_max":671,"o":"m 460 -12 q 671 178 666 -3 l 671 471 l 397 471 l 397 338 l 518 338 l 518 148 q 502 132 518 132 l 258 132 q 241 148 241 132 l 241 713 q 258 730 241 730 l 655 730 l 655 873 l 290 873 q 79 685 80 871 l 79 178 q 271 -12 79 -4 q 290 -12 281 -12 l 460 -12 m 320 -220 l 366 -220 q 321 -335 359 -277 l 368 -373 q 454 -195 454 -286 l 454 -64 l 320 -64 l 320 -220 z "},"ģ":{"ha":620,"x_min":58,"x_max":560,"o":"m 254 833 l 301 833 q 269 741 298 795 l 316 705 q 389 859 389 777 l 389 986 l 254 986 l 254 833 m 406 129 q 389 113 406 113 l 227 113 q 210 129 210 113 l 210 524 q 227 540 213 538 l 406 538 l 406 129 m 389 -142 l 85 -142 l 85 -270 l 358 -270 q 547 -179 510 -270 q 560 -91 560 -142 l 560 665 l 241 669 q 77 604 111 670 q 58 505 58 567 l 58 144 q 144 -3 58 24 q 222 -12 176 -12 l 283 -12 q 406 72 382 -11 l 406 -126 q 389 -142 406 -142 z "},"Ķ":{"ha":770,"x_min":99,"x_max":766,"o":"m 418 365 q 434 350 429 365 l 598 0 l 766 0 l 617 315 q 544 423 576 400 q 522 435 533 430 q 590 519 559 453 q 605 553 597 534 l 735 861 l 576 861 l 434 521 q 416 505 425 506 l 258 505 l 258 861 l 99 861 l 99 0 l 258 0 l 258 365 l 418 365 m 330 -220 l 376 -220 q 331 -335 369 -277 l 377 -373 q 464 -195 464 -286 l 464 -64 l 330 -64 l 330 -220 z "},"ķ":{"ha":635,"x_min":77,"x_max":631,"o":"m 369 283 q 387 267 381 281 l 473 0 l 631 0 l 553 228 q 492 340 525 317 q 465 354 480 349 q 522 467 496 380 l 581 665 l 429 665 l 359 427 q 343 412 354 414 l 228 412 l 228 916 l 77 916 l 77 0 l 228 0 l 228 283 l 369 283 m 260 -217 l 305 -217 q 262 -330 300 -273 l 308 -368 q 393 -193 393 -282 l 393 -62 l 260 -62 l 260 -217 z "},"Ļ":{"ha":570,"x_min":92,"x_max":559,"o":"m 559 138 l 251 138 l 251 861 l 92 861 l 92 0 l 559 0 l 559 138 m 252 -220 l 298 -220 q 254 -335 292 -277 l 300 -373 q 387 -195 387 -286 l 387 -64 l 252 -64 l 252 -220 z "},"ļ":{"ha":315,"x_min":81,"x_max":233,"o":"m 233 0 l 233 916 l 81 916 l 81 0 l 233 0 m 91 -217 l 136 -217 q 92 -330 130 -273 l 138 -368 q 224 -193 224 -282 l 224 -62 l 91 -62 l 91 -217 z "},"Ņ":{"ha":796,"x_min":83,"x_max":713,"o":"m 601 0 l 713 0 l 713 861 l 575 861 l 575 282 l 194 861 l 83 861 l 83 0 l 220 0 l 220 579 l 601 0 m 328 -220 l 374 -220 q 330 -335 368 -277 l 376 -373 q 463 -195 463 -286 l 463 -64 l 328 -64 l 328 -220 z "},"ņ":{"ha":632,"x_min":72,"x_max":574,"o":"m 347 677 q 221 585 240 675 l 209 665 l 72 665 l 73 0 l 227 0 l 225 536 q 241 552 225 552 l 404 552 q 420 536 419 549 l 420 0 l 574 0 l 574 521 q 488 667 574 640 q 410 677 456 677 l 347 677 m 255 -217 l 300 -217 q 256 -330 294 -273 l 302 -368 q 388 -193 388 -282 l 388 -62 l 255 -62 l 255 -217 z "},"Ŗ":{"ha":750,"x_min":98,"x_max":713,"o":"m 256 0 l 256 328 l 427 328 q 449 313 442 328 q 450 309 449 311 l 553 0 l 713 0 l 623 258 q 563 347 600 321 q 682 532 681 396 l 682 669 q 524 863 682 838 q 461 867 494 867 l 98 861 l 98 0 l 256 0 m 500 728 q 519 711 518 726 l 519 483 q 500 465 517 467 l 256 465 l 256 728 l 500 728 m 330 -220 l 376 -220 q 331 -335 369 -277 l 377 -373 q 464 -195 464 -286 l 464 -64 l 330 -64 l 330 -220 z "},"ŗ":{"ha":393,"x_min":69,"x_max":396,"o":"m 345 677 q 218 585 237 675 l 206 665 l 69 665 l 71 0 l 224 0 l 222 526 q 239 543 222 543 l 396 543 l 396 677 l 345 677 m 84 -217 l 129 -217 q 85 -330 123 -273 l 132 -368 q 217 -193 217 -282 l 217 -62 l 84 -62 l 84 -217 z "},"Ş":{"ha":655,"x_min":46,"x_max":613,"o":"m 227 505 q 209 524 210 507 l 209 704 q 227 723 212 722 l 585 723 l 585 861 l 269 867 q 58 747 102 871 q 46 667 46 711 l 46 559 q 241 362 46 373 q 267 361 255 361 l 433 361 q 450 342 449 358 l 450 157 q 433 138 448 140 l 64 138 l 64 0 l 256 -3 l 228 -136 l 339 -136 q 349 -145 347 -138 l 349 -197 q 339 -206 346 -205 l 213 -206 l 213 -292 l 321 -292 q 442 -183 441 -289 l 442 -146 q 358 -61 442 -69 q 334 -60 346 -60 l 320 -60 l 331 -4 l 392 -5 q 606 133 575 -11 q 613 193 613 161 l 613 307 q 467 496 613 463 q 391 505 431 505 l 227 505 z "},"ş":{"ha":534,"x_min":43,"x_max":506,"o":"m 342 -3 q 494 72 464 -3 q 506 152 506 104 l 506 233 q 437 380 506 347 q 323 397 395 397 l 213 397 q 197 414 197 397 l 197 532 q 213 547 199 545 l 469 547 l 469 675 l 231 677 q 61 601 96 677 q 43 502 43 563 l 43 442 q 115 294 43 326 q 227 277 156 277 l 338 277 q 354 260 353 274 l 354 137 q 338 121 354 121 l 54 121 l 56 -3 l 212 -3 l 183 -134 l 294 -134 q 304 -144 302 -137 l 304 -195 q 294 -205 301 -203 l 168 -205 l 168 -290 l 277 -290 q 397 -182 396 -288 l 397 -145 q 313 -60 397 -68 q 289 -58 301 -58 l 275 -58 l 286 -3 l 342 -3 z "},"Ţ":{"ha":582,"x_min":7,"x_max":575,"o":"m 370 0 l 370 723 l 575 723 l 575 861 l 7 861 l 7 723 l 212 723 l 212 0 l 231 0 l 202 -134 l 313 -134 q 323 -144 321 -137 l 323 -195 q 313 -205 320 -203 l 187 -205 l 187 -290 l 296 -290 q 416 -182 415 -288 l 416 -145 q 332 -60 416 -68 q 308 -58 320 -58 l 294 -58 l 305 0 l 370 0 z "},"ţ":{"ha":419,"x_min":31,"x_max":411,"o":"m 411 665 l 258 665 l 258 834 l 104 834 l 104 665 l 31 665 l 31 545 l 104 545 l 104 179 q 194 18 106 52 l 161 -134 l 273 -134 q 282 -144 281 -137 l 282 -195 q 273 -205 279 -203 l 146 -205 l 146 -290 l 255 -290 q 376 -182 374 -288 l 376 -145 q 292 -60 376 -68 q 267 -58 279 -58 l 254 -58 l 264 1 q 307 0 279 0 l 411 0 l 411 129 l 274 129 q 258 145 258 129 l 258 545 l 411 545 l 411 665 z "},"Ș":{"ha":659,"x_min":46,"x_max":613,"o":"m 227 505 q 209 524 210 507 l 209 704 q 227 723 212 722 l 585 723 l 585 861 l 269 867 q 58 747 102 871 q 46 667 46 711 l 46 559 q 241 362 46 373 q 267 361 255 361 l 433 361 q 450 342 449 358 l 450 157 q 433 138 448 140 l 64 138 l 64 0 l 392 -5 q 606 133 575 -11 q 613 193 613 161 l 613 307 q 467 496 613 463 q 391 505 431 505 l 227 505 m 254 -220 l 300 -220 q 255 -335 293 -277 l 301 -373 q 388 -195 388 -286 l 388 -64 l 254 -64 l 254 -220 z "},"ș":{"ha":534,"x_min":43,"x_max":506,"o":"m 342 -3 q 494 72 464 -3 q 506 152 506 104 l 506 233 q 437 380 506 347 q 323 397 395 397 l 213 397 q 197 414 197 397 l 197 532 q 213 547 199 545 l 469 547 l 469 675 l 231 677 q 61 601 96 677 q 43 502 43 563 l 43 442 q 115 294 43 326 q 227 277 156 277 l 338 277 q 354 260 353 274 l 354 137 q 338 121 354 121 l 54 121 l 56 -3 l 342 -3 m 209 -217 l 254 -217 q 210 -330 248 -273 l 256 -368 q 342 -193 342 -282 l 342 -62 l 209 -62 l 209 -217 z "},"Ț":{"ha":582,"x_min":7,"x_max":575,"o":"m 370 0 l 370 723 l 575 723 l 575 861 l 7 861 l 7 723 l 212 723 l 212 0 l 370 0 m 224 -220 l 270 -220 q 225 -335 263 -277 l 271 -373 q 358 -195 358 -286 l 358 -64 l 224 -64 l 224 -220 z "},"ț":{"ha":419,"x_min":31,"x_max":411,"o":"m 411 665 l 258 665 l 258 834 l 104 834 l 104 665 l 31 665 l 31 545 l 104 545 l 104 179 q 203 14 104 46 q 307 0 245 0 l 411 0 l 411 129 l 274 129 q 258 145 258 129 l 258 545 l 411 545 l 411 665 m 193 -217 l 237 -217 q 194 -330 232 -273 l 240 -368 q 326 -193 326 -282 l 326 -62 l 193 -62 l 193 -217 z "},"ˉ":{"ha":491,"x_min":62,"x_max":429,"o":"m 429 888 l 62 888 l 62 779 l 429 779 l 429 888 z "},"₺":{"ha":727,"x_min":45,"x_max":677,"o":"m 465 -11 q 677 178 675 -8 l 677 349 l 515 349 l 515 149 q 499 133 513 134 l 289 133 l 289 331 l 461 393 l 461 480 l 289 418 l 289 488 l 461 549 l 461 637 l 289 575 l 289 814 l 130 814 l 130 515 l 45 486 l 45 399 l 130 429 l 130 358 l 45 328 l 45 241 l 130 271 l 130 -9 l 465 -11 z "},"₽":{"ha":727,"x_min":28,"x_max":675,"o":"m 269 0 l 269 155 l 452 155 l 452 264 l 269 264 l 269 327 l 465 327 q 675 530 670 338 l 675 621 q 509 817 675 796 q 456 819 483 819 l 110 814 l 110 438 l 28 438 l 28 327 l 110 327 l 110 264 l 28 264 l 28 155 l 110 155 l 110 0 l 269 0 m 496 680 q 514 662 513 677 l 514 456 q 496 438 511 439 l 269 438 l 269 680 l 496 680 z "},"ℓ":{"ha":631,"x_min":11,"x_max":601,"o":"m 600 -12 l 600 132 l 317 132 q 301 148 301 132 l 301 292 l 481 407 q 585 498 563 457 q 601 571 601 529 l 601 739 q 399 928 598 926 l 340 928 q 138 739 140 925 l 138 351 l 11 270 l 77 149 l 138 189 l 138 178 q 331 -12 138 -4 q 350 -12 340 -12 l 600 -12 m 301 768 q 317 784 301 784 l 422 784 q 438 768 438 784 l 438 557 q 420 533 435 543 l 301 456 l 301 768 z "},"Ω":{"ha":766,"x_min":42,"x_max":724,"o":"m 317 0 l 317 136 l 252 153 q 236 172 237 160 l 236 713 q 251 730 239 728 l 511 730 q 528 713 526 727 l 528 172 q 510 153 525 157 l 445 136 l 445 0 l 724 0 l 724 138 l 629 138 q 689 286 689 187 l 689 685 q 477 873 686 872 l 285 873 q 73 685 75 871 l 73 286 q 133 138 75 186 l 42 138 l 42 0 l 317 0 z "},"∆":{"ha":739,"x_min":8,"x_max":731,"o":"m 731 0 l 454 861 l 290 861 l 8 0 l 731 0 m 537 138 l 198 138 l 370 686 l 537 138 z "},"∕":{"ha":633,"x_min":9,"x_max":618,"o":"m 494 873 l 9 -12 l 136 -12 l 618 873 l 494 873 z "},"∙":{"ha":400,"x_min":90,"x_max":311,"o":"m 90 326 q 170 240 90 247 q 189 239 179 239 l 212 239 q 311 312 304 239 q 311 326 311 319 l 311 430 q 233 517 311 510 q 212 518 222 518 l 189 518 q 91 446 98 518 q 90 430 90 438 l 90 326 z "},"ų":{"ha":633,"x_min":60,"x_max":585,"o":"m 286 -12 q 412 84 393 -11 l 425 0 l 458 0 l 382 -69 q 347 -159 347 -102 l 347 -191 q 429 -286 347 -273 q 484 -290 453 -290 l 585 -290 l 585 -189 l 475 -189 q 465 -179 467 -186 l 465 -127 q 476 -104 467 -115 l 562 0 l 560 665 l 407 665 l 408 113 l 229 113 q 213 129 213 113 l 213 665 l 60 665 l 60 144 q 145 -3 60 24 q 224 -12 178 -12 l 286 -12 z "},"ů":{"ha":633,"x_min":60,"x_max":562,"o":"m 286 -12 q 412 84 393 -11 l 425 0 l 562 0 l 560 665 l 407 665 l 408 113 l 229 113 q 213 129 213 113 l 213 665 l 60 665 l 60 144 q 145 -3 60 24 q 224 -12 178 -12 l 286 -12 m 449 859 q 393 982 449 956 q 308 996 361 996 q 182 939 206 996 q 170 859 170 909 q 227 736 170 761 q 308 723 258 723 q 439 788 415 723 q 449 859 449 817 m 247 859 q 269 921 247 910 q 308 926 282 926 q 366 901 357 926 q 372 859 372 886 q 343 795 372 806 q 308 791 328 791 q 251 822 259 791 q 247 859 247 837 z "},"v":{"ha":585,"x_min":7,"x_max":582,"o":"m 472 142 l 582 665 l 433 665 l 330 129 q 313 113 324 114 l 267 113 l 160 665 l 7 665 l 141 0 l 308 -7 q 438 39 404 -12 q 472 142 457 72 z "},"ඃ":{"ha":347,"x_min":39,"x_max":296,"o":"m 39 248 l 39 18 q 60 0 42 1 l 277 0 q 296 16 294 3 l 296 250 q 274 269 293 267 l 61 269 q 39 248 41 266 m 133 183 l 199 183 q 209 174 208 180 l 209 100 q 199 90 206 91 l 133 90 q 123 99 123 92 l 123 174 q 133 183 126 182 m 39 656 l 39 425 q 60 407 42 408 l 277 407 q 296 423 294 410 l 296 656 q 274 675 293 674 l 61 675 q 39 656 41 674 m 133 590 l 199 590 q 209 582 208 587 l 209 507 q 199 498 206 498 l 133 498 q 123 507 123 500 l 123 582 q 133 590 126 590 z "},"w":{"ha":947,"x_min":65,"x_max":882,"o":"m 319 -12 q 472 83 446 -11 q 625 -12 502 -11 l 718 -12 q 871 66 841 -12 q 882 144 882 98 l 879 665 l 726 665 l 728 129 q 712 113 728 113 l 563 113 q 547 129 548 115 l 547 665 l 397 665 l 397 129 q 381 113 397 113 l 235 113 q 218 129 220 115 l 218 665 l 65 665 l 65 140 q 142 0 65 27 q 229 -12 176 -12 l 319 -12 z "},"x":{"ha":623,"x_min":8,"x_max":618,"o":"m 165 0 l 266 256 q 282 270 273 269 l 339 270 q 355 255 350 270 l 457 0 l 618 0 l 526 214 q 458 324 490 302 q 434 336 446 332 q 507 445 473 359 q 510 453 509 449 l 594 665 l 444 665 l 347 411 q 328 397 340 397 l 297 397 q 279 412 285 400 l 186 665 l 30 665 l 114 453 q 189 338 152 359 q 121 264 148 323 q 99 214 111 245 l 8 0 l 165 0 z "},"y":{"ha":629,"x_min":60,"x_max":560,"o":"m 392 -142 l 87 -142 l 87 -270 l 358 -270 q 547 -179 510 -270 q 560 -91 560 -142 l 559 665 l 406 665 l 408 113 l 229 113 q 213 129 213 113 l 213 665 l 60 665 l 60 144 q 145 -3 60 24 q 224 -12 178 -12 l 286 -12 q 408 72 385 -11 l 408 -126 q 392 -142 408 -142 z "},"ý":{"ha":629,"x_min":60,"x_max":560,"o":"m 392 -142 l 87 -142 l 87 -270 l 358 -270 q 547 -179 510 -270 q 560 -91 560 -142 l 559 665 l 406 665 l 408 113 l 229 113 q 213 129 213 113 l 213 665 l 60 665 l 60 144 q 145 -3 60 24 q 224 -12 178 -12 l 286 -12 q 408 72 385 -11 l 408 -126 q 392 -142 408 -142 m 244 749 l 330 958 l 484 956 l 355 749 l 244 749 z "},"ÿ":{"ha":629,"x_min":60,"x_max":560,"o":"m 392 -142 l 87 -142 l 87 -270 l 358 -270 q 547 -179 510 -270 q 560 -91 560 -142 l 559 665 l 406 665 l 408 113 l 229 113 q 213 129 213 113 l 213 665 l 60 665 l 60 144 q 145 -3 60 24 q 224 -12 178 -12 l 286 -12 q 408 72 385 -11 l 408 -126 q 392 -142 408 -142 m 250 774 l 250 916 l 118 916 l 118 774 l 250 774 m 498 774 l 498 916 l 366 916 l 366 774 l 498 774 z "},"¥":{"ha":739,"x_min":30,"x_max":709,"o":"m 628 156 l 628 247 l 446 247 l 446 311 l 628 311 l 628 401 l 533 401 q 543 422 537 410 l 709 814 l 552 814 l 408 441 q 389 426 400 427 l 355 426 q 336 441 342 429 l 197 814 l 30 814 l 191 423 q 197 410 193 418 q 201 401 199 404 l 107 401 l 107 311 l 288 311 l 288 247 l 107 247 l 107 156 l 288 156 l 288 0 l 446 0 l 446 156 l 628 156 z "},"z":{"ha":500,"x_min":12,"x_max":480,"o":"m 472 119 l 210 119 q 197 133 195 119 q 202 142 199 138 l 480 537 q 353 665 477 663 l 41 665 l 41 545 l 286 545 q 301 533 301 545 q 297 524 300 528 l 12 115 q 129 0 15 1 l 471 0 l 472 119 z "},"ź":{"ha":500,"x_min":12,"x_max":480,"o":"m 472 119 l 210 119 q 197 133 195 119 q 202 142 199 138 l 480 537 q 353 665 477 663 l 41 665 l 41 545 l 286 545 q 301 533 301 545 q 297 524 300 528 l 12 115 q 129 0 15 1 l 471 0 l 472 119 m 191 749 l 277 958 l 431 956 l 302 749 l 191 749 z "},"ž":{"ha":500,"x_min":12,"x_max":480,"o":"m 472 119 l 210 119 q 197 133 195 119 q 202 142 199 138 l 480 537 q 353 665 477 663 l 41 665 l 41 545 l 286 545 q 301 533 301 545 q 297 524 300 528 l 12 115 q 129 0 15 1 l 471 0 l 472 119 m 179 755 l 335 755 l 468 958 l 345 958 l 258 826 l 182 958 l 53 958 l 179 755 z "},"ż":{"ha":500,"x_min":12,"x_max":480,"o":"m 472 119 l 210 119 q 197 133 195 119 q 202 142 199 138 l 480 537 q 353 665 477 663 l 41 665 l 41 545 l 286 545 q 301 533 301 545 q 297 524 300 528 l 12 115 q 129 0 15 1 l 471 0 l 472 119 m 317 769 l 317 924 l 180 924 l 180 769 l 317 769 z "},"‍":{"ha":0,"x_min":-232,"x_max":232,"o":"m 64 888 l 232 722 l 168 658 l 46 781 l 46 -7 l -46 -7 l -46 781 l -168 658 l -232 722 l -64 888 l -232 1053 l -168 1116 l 0 948 l 168 1116 l 232 1053 l 64 888 z "},"‌":{"ha":0,"x_min":-46,"x_max":46,"o":"m -46 -7 l -46 1051 l 46 1051 l 46 -7 l -46 -7 z "}}}
